<?xml version="1.0" standalone="no"?>
<!DOCTYPE svg PUBLIC "-//W3C//DTD SVG 1.1//EN" "http://www.w3.org/Graphics/SVG/1.1/DTD/svg11.dtd" >
<svg xmlns="http://www.w3.org/2000/svg">
<metadata></metadata>
<defs>
<font id="webfontregular" horiz-adv-x="1233" >
<font-face units-per-em="2048" ascent="1638" descent="-410" />
<missing-glyph horiz-adv-x="500" />
<glyph />
<glyph />
<glyph unicode="&#xd;" />
<glyph unicode=" " />
<glyph unicode="!" d="M428 0v377h377v-377h-377zM463 1077v344h307v-344l-78 -577h-151z" />
<glyph unicode="&#x22;" d="M358 913v560h191v-560h-191zM682 913v560h192v-560h-192z" />
<glyph unicode="#" d="M57 412l39 184h185l55 256h-184l38 184h187l94 428h209l-96 -428h200l95 428h206l-94 -428h185l-39 -184h-187l-55 -256h186l-39 -184h-188l-92 -422h-207l92 422h-198l-93 -422h-209l93 422h-183zM487 596h201l55 256h-198z" />
<glyph unicode="$" d="M121 436h268q0 -52 13 -94t37 -76q44 -62 132 -80v414q-234 60 -331 155t-97 259q0 183 116 295q60 58 137 87.5t175 29.5v128h119v-128q96 0 171.5 -30.5t132 -87t88.5 -133t32 -169.5h-272q0 44 -11.5 79t-32.5 62q-36 50 -108 57v-364q248 -78 348.5 -176.5 t100.5 -260.5q0 -191 -117.5 -305.5t-331.5 -132.5v-190h-119v192q-108 0 -193 34.5t-145 96.5q-112 118 -112 338zM412 1040q0 -61 37 -101t122 -69v340q-76 -9 -117.5 -53t-41.5 -117zM690 186q81 11 124.5 59.5t43.5 127.5q0 70 -39 115t-129 75v-377z" />
<glyph unicode="%" d="M33 1112q0 131 93.5 225.5t225.5 94.5t226 -94t94 -226t-93.5 -225.5t-226.5 -93.5t-226 92.5t-93 226.5zM86 561l1042 418l41 -96l-1048 -418zM215 1112q0 -58 40 -98.5t97 -40.5t97 41t40 98q0 56 -40 96.5t-97 40.5t-97 -40t-40 -97zM580 319q0 131 93.5 225.5 t225.5 94.5q131 0 225.5 -93.5t94.5 -226.5q0 -131 -94 -225t-226 -94q-134 0 -226.5 93t-92.5 226zM762 319q0 -56 39 -96.5t96 -40.5t98 40.5t41 96.5q0 57 -41 97.5t-98 40.5t-96 -39.5t-39 -98.5z" />
<glyph unicode="&#x26;" d="M45 367q0 114 59.5 203t210.5 192q-57 77 -87.5 162t-30.5 172q0 158 105 261t265 103q168 0 268.5 -94t100.5 -250q0 -118 -54.5 -209t-191.5 -194l129 -170q8 21 12.5 36t8.5 34t6 34t2 31v12h235q0 -102 -23.5 -196.5t-70.5 -184.5l240 -309h-328l-72 92 q-56 -63 -144 -97t-200 -34q-195 0 -317.5 114t-122.5 292zM344 379q0 -68 42.5 -112t111.5 -44q47 0 89.5 22.5t86.5 67.5l-197 254q-78 -54 -105.5 -93.5t-27.5 -94.5zM442 1110q0 -45 25 -97.5t74 -109.5q80 56 119 109q18 24 28 50.5t10 53.5q0 53 -36.5 91t-88.5 38 q-57 0 -94 -37t-37 -98z" />
<glyph unicode="'" d="M520 913v560h193v-560h-193z" />
<glyph unicode="(" d="M381 522q0 225 90 464.5t264 475.5h211q-137 -223 -204.5 -453t-67.5 -487q0 -253 66 -484q33 -116 84 -228.5t122 -227.5h-211q-174 236 -264 475.5t-90 464.5z" />
<glyph unicode=")" d="M287 -418q137 225 205 456q33 115 50 235.5t17 248.5q0 256 -66.5 485.5t-205.5 454.5h211q171 -232 262.5 -475t91.5 -465q0 -226 -91 -465.5t-263 -474.5h-211z" />
<glyph unicode="*" d="M182 1030l66 203l266 -96v284h201v-284l266 94l68 -203l-281 -76l193 -239l-175 -125l-172 252l-174 -248l-172 119l193 241z" />
<glyph unicode="+" d="M139 631v198h375v416h205v-416h373v-198h-373v-416h-205v416h-375z" />
<glyph unicode="," d="M383 -285q125 15 187.5 78t62.5 178v29h-205v377h377v-363q0 -202 -110 -315q-56 -59 -134.5 -92t-177.5 -33v141z" />
<glyph unicode="-" d="M336 412v276h561v-276h-561z" />
<glyph unicode="." d="M428 0v377h377v-377h-377z" />
<glyph unicode="/" d="M289 -190l491 1650h164l-491 -1650h-164z" />
<glyph unicode="0" d="M98 715q0 352 131.5 534.5t386.5 182.5q258 0 387.5 -183.5t129.5 -554.5q0 -370 -128 -551.5t-389 -181.5q-263 0 -390.5 185.5t-127.5 568.5zM395 713q0 -272 51 -393t168 -121q114 0 168 119t54 378t-53.5 377.5t-168.5 118.5q-110 0 -164.5 -117.5t-54.5 -361.5z" />
<glyph unicode="1" d="M217 979v201h14q197 0 280 55.5t101 196.5h230v-1432h-283v979h-342z" />
<glyph unicode="2" d="M94 0q0 97 20.5 177.5t62.5 148.5q79 133 284 270l92 60q268 170 268 331q0 92 -58 148.5t-155 56.5q-107 0 -166 -68t-59 -192v-12h-264v6q0 236 131.5 371t361.5 135t366 -119.5t136 -321.5q0 -144 -70 -250t-268 -237l-110 -72q-193 -123 -217 -188h651v-244h-1006z " />
<glyph unicode="3" d="M92 432v4h277q0 -116 56 -178.5t161 -62.5q115 0 174 55.5t59 163.5q0 107 -69 160t-213 53h-33v198h31q122 0 183.5 48.5t61.5 148.5q0 82 -52 131t-138 49q-94 0 -145.5 -55t-51.5 -160v-12h-270q0 215 126 335t353 120q214 0 341.5 -105.5t127.5 -282.5 q0 -95 -43 -165.5t-129 -116.5q108 -48 164.5 -133t56.5 -201q0 -214 -141.5 -340.5t-384.5 -126.5q-239 0 -370.5 123t-131.5 350z" />
<glyph unicode="4" d="M84 309v252l526 830h357v-854h166v-228h-166v-309h-281v309h-602zM303 530h391v613z" />
<glyph unicode="5" d="M86 385h281q0 -45 16 -81t47 -65q56 -51 150 -51q116 0 178.5 68t62.5 195q0 117 -63.5 186.5t-175.5 69.5q-64 0 -112 -24.5t-77 -74.5l-258 15l94 768h822v-242h-621l-35 -287q47 36 107 55t135 19q214 0 346.5 -129.5t132.5 -341.5q0 -228 -146.5 -367t-389.5 -139 q-222 0 -354 114q-68 58 -104 136.5t-36 175.5z" />
<glyph unicode="6" d="M100 664q0 373 146 570.5t420 197.5q187 0 305 -100q60 -51 93 -118t33 -149h-290q-9 69 -53 104t-123 35q-108 0 -166 -94q-30 -49 -48 -120t-18 -161q48 50 117.5 75.5t155.5 25.5q210 0 337.5 -128t127.5 -341q0 -225 -139 -364.5t-363 -139.5q-261 0 -398 180.5 t-137 526.5zM403 457q0 -127 61.5 -198t168.5 -71q99 0 156 70.5t57 194.5q0 117 -60 180t-174 63q-92 0 -150.5 -66.5t-58.5 -172.5z" />
<glyph unicode="7" d="M102 1147v244h1016v-215q-237 -264 -364 -551q-70 -161 -106 -299q-44 -168 -44 -326h-297q0 137 39 290q34 134 102 290q127 290 359 567h-705z" />
<glyph unicode="8" d="M102 406q0 126 49.5 206.5t159.5 139.5q-90 50 -130 117t-40 165q0 187 126.5 293.5t348.5 106.5t349 -104.5t127 -289.5q0 -99 -42 -171.5t-128 -116.5q106 -51 157 -137t51 -209q0 -210 -136.5 -328.5t-377.5 -118.5q-243 0 -378.5 117.5t-135.5 329.5zM393 406 q0 -99 59.5 -154t163.5 -55q105 0 165.5 57.5t60.5 161.5q0 95 -63 157t-163 62t-161.5 -63t-61.5 -166zM414 1030q0 -81 52.5 -126.5t149.5 -45.5t150 45t53 127q0 77 -55 124.5t-148 47.5t-147.5 -47t-54.5 -125z" />
<glyph unicode="9" d="M90 928q0 224 138.5 364t363.5 140q261 0 397.5 -181t136.5 -526q0 -373 -145 -570.5t-420 -197.5q-190 0 -306 100q-60 51 -93 117.5t-33 148.5l291 1q7 -65 51.5 -102.5t116.5 -37.5q114 0 172 91q31 50 49 121t18 165q-48 -48 -119 -74t-153 -26q-210 0 -337.5 127 t-127.5 340zM381 942q0 -117 58.5 -183.5t164.5 -66.5q101 0 160 64t59 178q0 123 -61 194.5t-168 71.5q-98 0 -155.5 -69.5t-57.5 -188.5z" />
<glyph unicode=":" d="M428 0v377h377v-377h-377zM428 723v377h377v-377h-377z" />
<glyph unicode=";" d="M383 -285q125 15 187.5 78t62.5 178v29h-205v377h377v-363q0 -202 -110 -315q-56 -59 -134.5 -92t-177.5 -33v141zM428 723v377h377v-377h-377z" />
<glyph unicode="&#x3c;" d="M139 637v184l953 424v-219l-668 -297l668 -295v-219z" />
<glyph unicode="=" d="M139 416v198h953v-198h-953zM139 846v198h953v-198h-953z" />
<glyph unicode="&#x3e;" d="M139 215v219l668 295l-668 297v219l953 -424v-184z" />
<glyph unicode="?" d="M117 1040q0 190 135 305t360 115q227 0 364.5 -107.5t137.5 -285.5q0 -78 -19.5 -130.5t-66.5 -100.5q-19 -20 -45 -42t-65 -48l-97 -70q-36 -30 -51.5 -65t-15.5 -87v-22h-269l-2 30q0 92 21.5 146t73.5 102q28 25 92 74q137 99 137 188q0 75 -51.5 121.5t-137.5 46.5 q-99 0 -153.5 -51.5t-63.5 -152.5h-282l-1 18zM430 0v377h377v-377h-377z" />
<glyph unicode="@" d="M70 682q0 387 141.5 582.5t421.5 195.5q128 0 232 -47t165 -135q43 -62 63.5 -159.5t20.5 -256.5v-284q0 -38 9 -50q10 -10 34 -10l30 3l7 1v-167l-58 -15l-42 -4q-69 0 -109.5 28t-46.5 80q-68 -66 -130.5 -95.5t-139.5 -29.5q-128 0 -202.5 88.5t-74.5 241.5 q0 143 66 227t205 115q37 8 118 19q121 15 121 67q0 88 -76 144.5t-198 56.5q-179 0 -265 -139.5t-86 -431.5q0 -306 81.5 -434t273.5 -128q50 0 97 9.5t112 33.5v-188q-46 -17 -101 -27t-123 -10q-278 0 -412 176t-134 543zM598 668q0 -81 28.5 -120.5t86.5 -39.5 q85 0 141.5 56t56.5 143v178q-26 -29 -138 -52q-24 -4 -41 -7.5t-26 -6.5q-56 -13 -83 -49q-25 -36 -25 -102z" />
<glyph unicode="A" d="M-6 0l481 1421h283l479 -1421h-307l-101 326h-438l-96 -326h-301zM469 565h287l-142 502z" />
<glyph unicode="B" d="M143 0v1421h506q199 0 307.5 -88.5t108.5 -247.5q0 -114 -50.5 -199t-140.5 -118q119 -27 186.5 -118.5t67.5 -223.5q0 -190 -122.5 -308t-327.5 -118h-535zM442 270h199q86 0 132 42t46 124t-47 120q-24 20 -58.5 30t-84.5 10h-187v-326zM442 868h154q90 0 125 34.5 t35 117.5q0 66 -38 98q-36 33 -114 33h-162v-283z" />
<glyph unicode="C" d="M100 711q0 352 141 550.5t386 198.5q193 0 324.5 -126.5t158.5 -340.5h-295q-16 96 -65.5 148.5t-124.5 52.5q-108 0 -162.5 -115t-54.5 -342q0 -258 54 -384t167 -126q86 0 138 76.5t67 224.5h299q0 -124 -44 -234q-39 -99 -113 -181q-135 -152 -349 -152 q-246 0 -386.5 199t-140.5 551z" />
<glyph unicode="D" d="M141 0v1421h473q258 0 393.5 -180.5t135.5 -529.5q0 -352 -133 -531.5t-396 -179.5h-473zM442 266h172q117 0 169.5 104t52.5 341q0 219 -56.5 332.5t-165.5 113.5h-172v-891z" />
<glyph unicode="E" d="M174 0v1421h887v-270h-592v-283h530v-272h-530v-326h608v-270h-903z" />
<glyph unicode="F" d="M180 0v1421h928v-270h-635v-283h510v-272h-508v-596h-295z" />
<glyph unicode="G" d="M76 711q0 345 150 547t411 202q196 0 321 -123t152 -344h-313q-20 103 -65 152t-118 49q-113 0 -172 -118.5t-59 -352.5q0 -253 54.5 -372.5t172.5 -119.5q93 0 144 78q28 42 44.5 100.5t16.5 130.5l-207 1v227h520v-768h-141l-33 135q-70 -86 -158 -130t-194 -44 q-232 0 -379 207t-147 543z" />
<glyph unicode="H" d="M141 0v1421h299v-532h353v532h297v-1421h-297v621h-353v-621h-299z" />
<glyph unicode="I" d="M207 0v246h260v930h-260v245h819v-245h-260v-930h260v-246h-819z" />
<glyph unicode="J" d="M94 453l1 56q0 10 0.5 19.5t4.5 40.5h297v-11q0 -7 -2 -21v-48q0 -135 45 -198.5t144 -63.5q103 0 144.5 62t41.5 254v878h297v-966q0 -249 -122.5 -371.5t-373.5 -122.5q-241 0 -359 120t-118 372z" />
<glyph unicode="K" d="M127 0v1421h295v-503l465 503h379l-561 -592l573 -829h-358l-424 614l-74 -79v-535h-295z" />
<glyph unicode="L" d="M209 0v1421h299v-1151h614v-270h-913z" />
<glyph unicode="M" d="M94 0v1421h357l161 -876h9l161 876h357v-1421h-244v1096h-27l-194 -1096h-115l-199 1096h-24v-1096h-242z" />
<glyph unicode="N" d="M156 0v1421h235l428 -891v891h256v-1421h-235l-428 887v-887h-256z" />
<glyph unicode="O" d="M90 725q0 341 141.5 538t384.5 197q246 0 386.5 -199t140.5 -550q0 -350 -140.5 -550t-386.5 -200q-247 0 -386.5 201.5t-139.5 562.5zM395 745q0 -266 54 -391t172 -125q110 0 162.5 116t52.5 362t-54.5 367.5t-165.5 121.5q-105 0 -163 -118.5t-58 -332.5z" />
<glyph unicode="P" d="M178 0v1421h494q216 0 324 -107.5t108 -324.5q0 -142 -43.5 -235t-138.5 -152q-48 -28 -120.5 -42.5t-223.5 -14.5h-101v-545h-299zM477 815h123q109 0 154 39t45 129t-42 129t-149 39h-131v-336z" />
<glyph unicode="Q" d="M90 711q0 353 140 551t386 198t386.5 -199t140.5 -550q0 -78 -6 -144t-20 -129q-24 -121 -73 -198l154 -168l-149 -146l-134 144q-50 -50 -129 -79.5t-170 -29.5q-245 0 -385.5 198.5t-140.5 551.5zM395 731q0 -257 55.5 -379.5t172.5 -122.5q24 0 49.5 9t49.5 29 l-155 155l152 147l100 -100q4 29 8.5 59.5t4.5 56.5l4 111q0 256 -53.5 378t-166.5 122q-106 0 -163.5 -119t-57.5 -346z" />
<glyph unicode="R" d="M141 0v1421h521q210 0 321 -104.5t111 -304.5q0 -138 -45.5 -223t-145.5 -134q78 -24 111 -72t45 -190l14 -190q0 -36 5.5 -63t14.5 -50q14 -34 44 -51v-39h-326q-12 21 -23 67q-2 13 -6.5 55t-7.5 71l-10 144q0 69 -15.5 114.5t-42.5 68.5q-48 43 -167 43h-54h-45v-563 h-299zM440 834h148q113 0 154.5 36.5t41.5 128.5q0 82 -41 117t-145 35h-158v-317z" />
<glyph unicode="S" d="M84 469h305q0 -105 64 -173.5t163 -68.5q102 0 163 51t61 140q0 127 -287 190l-55 13q-195 42 -282 134.5t-87 254.5q0 201 130 324q66 62 150.5 93t192.5 31q240 0 373 -120t133 -341h-311v17q0 79 -50 129.5t-129 50.5q-80 0 -129 -46t-49 -118q0 -73 47.5 -112 t225.5 -76q255 -54 345.5 -144.5t90.5 -263.5q0 -220 -144.5 -346.5t-400.5 -126.5q-233 0 -373 135q-71 69 -109 162t-38 211z" />
<glyph unicode="T" d="M90 1151v270h1051v-270h-377v-1151h-297v1151h-377z" />
<glyph unicode="U" d="M127 541v880h299v-889q0 -153 46.5 -228t143.5 -75q102 0 146.5 69.5t44.5 233.5v889h299v-880q0 -292 -122 -436t-368 -144q-248 0 -368.5 141.5t-120.5 438.5z" />
<glyph unicode="V" d="M61 1423h297l258 -1005l254 1005h301l-434 -1423h-241z" />
<glyph unicode="W" d="M-18 1423h290l88 -940h19l135 940h203l141 -940h14l86 940h291l-268 -1423h-240l-114 891h-19l-116 -891h-242z" />
<glyph unicode="X" d="M37 0l418 723l-392 700h334l221 -452l222 452h331l-385 -698l410 -725h-344l-236 483l-233 -483h-346z" />
<glyph unicode="Y" d="M31 1423h299l284 -612l285 612h303l-436 -837v-586h-299v582z" />
<glyph unicode="Z" d="M98 0v219l670 932h-614v270h985v-219l-674 -932h674v-270h-1041z" />
<glyph unicode="[" d="M412 -436v1857h503v-211h-233v-1433h233v-213h-503z" />
<glyph unicode="\" d="M289 1458h164l491 -1648h-164z" />
<glyph unicode="]" d="M315 -223h236v1433h-236v211h506v-1857h-506v213z" />
<glyph unicode="^" d="M213 924q0 12 6.5 27t18.5 30l309 360q10 14 29 22.5t40 8.5q23 0 41 -8t29 -23l309 -360q12 -15 18.5 -31.5t6.5 -27.5q0 -12 -5 -22t-14 -19q-6 -8 -16 -12l-20 -3l-17 3l-15 8l-317 260l-309 -254l-20 -13l-21 -4q-10 0 -19.5 3.5t-14.5 10.5q-8 8 -12.5 18t-6.5 26z " />
<glyph unicode="_" d="M0 -279h1233v-204h-1233v204z" />
<glyph unicode="`" d="M324 1620h258l196 -371h-141z" />
<glyph unicode="a" d="M133 315q0 160 90 252t268 115l77 8q165 17 165 111q0 54 -32.5 82t-96.5 28q-69 0 -104 -35q-33 -35 -33 -108h-281v16q0 162 113 258.5t305 96.5q211 0 310.5 -83t99.5 -259v-488q0 -67 16.5 -88.5t61.5 -21.5l21 1l28 4v-212l-61 -12q-32 -5 -56 -5q-100 0 -149 36 t-66 122q-65 -83 -152 -128q-42 -22 -85.5 -33t-92.5 -11q-162 0 -254 95t-92 259zM416 317q0 -55 32 -89.5t82 -34.5q85 0 142 56.5t57 143.5v127q-27 -29 -133 -50q-43 -7 -54 -9.5t-28 -7.5q-48 -13 -73 -47t-25 -89z" />
<glyph unicode="b" d="M158 0v1470h293v-538q57 111 123 159t161 48q174 0 280.5 -160t106.5 -428q0 -270 -106 -430t-281 -160q-95 0 -161 48t-123 161v-170h-293zM436 559q0 -170 51 -261t150 -91q90 0 141 90t51 254q0 162 -50.5 252t-141.5 90q-94 0 -147.5 -88t-53.5 -246z" />
<glyph unicode="c" d="M152 547q0 270 133.5 431t359.5 161q200 0 320 -107q63 -56 97 -127q38 -79 38 -170h-288q-9 76 -55 118t-118 42q-91 0 -142 -89t-51 -253q0 -168 50 -256t143 -88q68 0 116.5 50.5t57.5 133.5h287q0 -96 -36.5 -176t-103.5 -141q-126 -115 -333 -115 q-216 0 -345.5 159.5t-129.5 426.5z" />
<glyph unicode="d" d="M133 551q0 271 105.5 429.5t281.5 158.5q93 0 159 -48t126 -159v538h293v-1470h-293v170q-57 -111 -124 -160t-161 -49q-173 0 -280 160.5t-107 429.5zM426 551q0 -161 51 -252.5t141 -91.5q96 0 148.5 90.5t52.5 253.5q0 165 -51.5 253.5t-149.5 88.5 q-89 0 -140.5 -89.5t-51.5 -252.5z" />
<glyph unicode="e" d="M141 551q0 272 130.5 430t353.5 158q238 0 364.5 -155t126.5 -449l-1 -47l-1 -27h-686q11 -124 65 -192t140 -68q49 0 88 24t61 70h308q-63 -173 -176 -253.5t-296 -80.5q-220 0 -348.5 158t-128.5 432zM434 672h381q0 54 -14 94.5t-41 72.5q-50 60 -135 60 q-77 0 -133 -63q-27 -33 -42.5 -74t-15.5 -90z" />
<glyph unicode="f" d="M104 834v229h316v86q0 173 104 247t363 74l101 -3q21 0 49.5 -1.5t64.5 -5.5l-1 -233l-97 7l-84 3q-113 0 -162 -30t-49 -97v-47h391v-229h-391v-834h-289v834h-316z" />
<glyph unicode="g" d="M129 573q0 128 26 228.5t81 180.5q109 157 280 157q92 0 159 -44t136 -155v162h283v-1053q0 -249 -111 -361t-358 -112q-223 0 -340 81.5t-117 238.5v4h274q0 -50 40.5 -75.5t115.5 -25.5q113 0 163 50t50 163v176q-73 -113 -138.5 -157.5t-156.5 -44.5q-173 0 -280 160 t-107 427zM422 551q0 -146 54 -234t145 -88q95 0 149 90q27 46 40 107.5t13 146.5q0 149 -54.5 234.5t-147.5 85.5q-92 0 -145.5 -91t-53.5 -251z" />
<glyph unicode="h" d="M164 0v1470h293v-538q53 109 126 157t179 48q173 0 243 -91.5t70 -377.5v-668h-293v612q0 181 -30 229t-105 48q-103 0 -147 -77q-21 -38 -32 -104t-11 -161v-547h-293z" />
<glyph unicode="i" d="M172 0v227h350v607h-266v229h555v-836h315v-227h-954zM522 1192v278h289v-278h-289z" />
<glyph unicode="j" d="M256 -184l13 -1l124 -8q92 0 135 25t43 76v24v902h-282v229h571v-1167q0 -168 -99 -246t-310 -78l-78 3l-117 7v234zM571 1192v278h289v-278h-289z" />
<glyph unicode="k" d="M182 0v1470h283v-694l321 324h353l-410 -408l424 -692h-317l-295 510l-76 -80v-430h-283z" />
<glyph unicode="l" d="M184 0v227h338v1014h-266v229h555v-1243h328v-227h-955z" />
<glyph unicode="m" d="M117 0v1100h211v-117q26 76 71.5 116t102.5 40q66 0 113 -42t65 -118q45 81 97.5 120.5t115.5 39.5q120 0 173 -83q26 -42 39 -114.5t13 -181.5v-760h-231v815v14q0 39 -17 58.5t-51 19.5q-39 0 -62.5 -26.5t-23.5 -73.5v-807h-231v829q0 40 -16 59t-50 19q-39 0 -65 -27 q-23 -26 -23 -73v-807h-231z" />
<glyph unicode="n" d="M164 0v1100h293v-168q53 109 126 157t179 48q173 0 243 -91.5t70 -377.5v-668h-293v612q0 181 -30 229t-105 48q-103 0 -147 -77q-21 -38 -32 -104t-11 -161v-547h-293z" />
<glyph unicode="o" d="M129 549q0 278 128.5 434t356.5 156q231 0 360.5 -156t129.5 -434q0 -277 -128.5 -432.5t-359.5 -155.5q-229 0 -358 154.5t-129 433.5zM422 559q0 -171 49.5 -261.5t144.5 -90.5q94 0 144.5 89t50.5 255q0 165 -50.5 254.5t-144.5 89.5q-90 0 -142 -88t-52 -248z" />
<glyph unicode="p" d="M158 -426v1528h293v-170q57 111 123 159t161 48q174 0 280.5 -160t106.5 -428q0 -270 -106 -430t-281 -160q-95 0 -161 48t-123 161v-596h-293zM436 559q0 -170 51 -261t150 -91q90 0 141 90t51 254q0 162 -50.5 252t-141.5 90q-94 0 -147.5 -88t-53.5 -246z" />
<glyph unicode="q" d="M129 551q0 271 105.5 429.5t281.5 158.5q93 0 159 -48t126 -159v170h293v-1528h-291v596q-55 -111 -123 -160t-164 -49q-173 0 -280 160.5t-107 429.5zM422 551q0 -161 51 -252.5t143 -91.5q97 0 148 89.5t51 254.5t-51.5 253.5t-147.5 88.5q-89 0 -141.5 -90t-52.5 -252 z" />
<glyph unicode="r" d="M203 0v1100h295v-187q48 114 127 169t192 55q154 0 225.5 -97t71.5 -305v-18h-285v6q0 88 -37 133t-106 45q-100 0 -145 -76q-21 -38 -32 -103.5t-11 -162.5v-559h-295z" />
<glyph unicode="s" d="M158 354h278q0 -36 13 -64.5t36.5 -49.5t53.5 -31t71 -10q82 0 129 33.5t47 91.5q0 45 -27 73.5t-81 38.5l-174 31q-152 26 -234 109.5t-82 209.5q0 165 111 258t309 93t316 -93t118 -249v-4h-280q0 25 -11.5 45t-34.5 36q-43 31 -112 31q-58 0 -94.5 -27.5t-36.5 -74.5 q0 -43 28 -71.5t77 -37.5l159 -26q170 -27 253 -107.5t83 -218.5q0 -179 -122.5 -279t-342.5 -100q-215 0 -332.5 102.5t-117.5 290.5z" />
<glyph unicode="t" d="M135 834v229h275v321h288v-321h351v-229h-351v-385q0 -141 50 -196.5t165 -55.5h28h28q11 2 16 2l64 6l-1 -234l-134 -7l-99 -3q-226 0 -315.5 83.5t-89.5 299.5v490h-275z" />
<glyph unicode="u" d="M162 432v668h293v-596q0 -194 30 -243.5t107 -49.5q102 0 146 77t44 265v547h293v-1100h-293v168q-52 -107 -125 -156t-182 -49q-173 0 -243 92t-70 377z" />
<glyph unicode="v" d="M119 1100h274l228 -791l219 791h272l-326 -1100h-337z" />
<glyph unicode="w" d="M10 1100h266l113 -627h14l123 627h179l129 -627h14l106 627h269l-271 -1100h-211l-114 653h-15l-123 -653h-208z" />
<glyph unicode="x" d="M78 0l395 567l-369 533h324l186 -316l187 316h325l-366 -533l393 -567h-328l-209 348l-210 -348h-328z" />
<glyph unicode="y" d="M88 1100h297l254 -697l227 697h295l-448 -1243q-60 -165 -147.5 -225t-258.5 -60q-43 0 -90 6q-21 2 -44.5 6t-49.5 10v230l74 -15q35 -6 65 -6q83 0 124 29q41 26 95 152l29 65z" />
<glyph unicode="z" d="M166 0v215l516 647h-483v238h854v-205l-531 -657h559v-238h-915z" />
<glyph unicode="{" d="M254 387v211l19 -1l20 -1q124 0 174.5 56.5t50.5 195.5v274q0 207 78.5 272.5t312.5 65.5h70v-209h-61q-90 0 -124 -37.5t-34 -158.5v-264q0 -150 -44 -210t-163 -87q118 -27 162.5 -88t44.5 -211v-265q0 -123 36.5 -159.5t141.5 -36.5h41v-209h-72q-233 0 -311 64 t-78 274v274q0 138 -50.5 195t-174.5 57l-20 -1z" />
<glyph unicode="|" d="M512 -483v2048h209v-2048h-209z" />
<glyph unicode="}" d="M252 -266h61q90 0 125 38t35 158v265q0 150 44.5 209.5t162.5 89.5q-116 27 -161.5 87.5t-45.5 209.5v264q0 122 -37 159t-143 37h-41v209h72q234 0 312.5 -65.5t78.5 -272.5v-274q0 -139 50.5 -195.5t174.5 -56.5l19 1l20 1v-211l-20 1l-19 1q-122 0 -173.5 -56.5 t-51.5 -195.5v-274q0 -206 -78.5 -272t-312.5 -66h-72v209z" />
<glyph unicode="~" d="M102 586q0 68 94.5 130t211.5 62q78 0 219.5 -43t197.5 -43q58 0 130 36t96 36q33 0 55 -23.5t22 -62.5q0 -71 -92.5 -132t-208.5 -61q-80 0 -221 43q-70 21 -119.5 32t-78.5 11q-61 0 -132.5 -36.5t-93.5 -36.5q-36 0 -58 24t-22 64z" />
<glyph unicode="&#xa0;" />
<glyph unicode="&#xa1;" d="M428 1044v377h377v-377h-377zM463 0v344l78 578h151l78 -578v-344h-307z" />
<glyph unicode="&#xa2;" d="M117 547q0 273 136.5 428t375.5 155h19.5t22.5 -2q20 0 64 -6l45 164h109l-53 -188q126 -39 196 -139q39 -55 60.5 -116.5t21.5 -135.5h-282q-5 48 -22 82t-50 63l-178 -637l37 -3l24 -1q81 0 129.5 51.5t63.5 151.5h280q0 -100 -37.5 -181.5t-107.5 -145.5 q-133 -122 -338 -122h-22h-18q-13 2 -19 2l-56 6l-57 -215h-109l68 244q-148 63 -225.5 202t-77.5 343zM410 545q0 -100 21.5 -171.5t66.5 -115.5l178 631l-28 3l-27 1q-101 0 -156 -90t-55 -258z" />
<glyph unicode="&#xa3;" d="M139 633v125h109q-22 40 -37 73.5t-28 71.5q-21 66 -21 129q0 176 130.5 287t344.5 111q230 0 364 -120q69 -62 106.5 -146t37.5 -191h-277q0 55 -16.5 97.5t-47.5 75.5q-56 60 -155 60q-92 0 -144 -49t-52 -133q0 -42 21.5 -104.5t72.5 -161.5h287v-125h-242l12 -62 l4 -51q0 -76 -42 -148t-152 -171q38 16 66.5 26.5t59.5 20.5q50 14 87 14q52 0 140.5 -24.5t127.5 -24.5q49 0 96.5 16t98.5 52l88 -218q-78 -45 -159 -74q-76 -26 -142 -26q-73 0 -203 39t-197 39q-53 0 -112 -20.5t-111 -59.5l-113 209q124 87 171.5 154.5t47.5 152.5 q0 34 -9.5 73t-31.5 83h-180z" />
<glyph unicode="&#xa4;" d="M121 492l182 182q-31 47 -47 99.5t-16 111.5q0 58 15.5 112.5t47.5 100.5l-182 182l102 102l180 -184q45 32 99 49t114 17q64 0 114.5 -16t96.5 -50l183 184l102 -102l-184 -182q29 -44 47 -101q8 -28 12 -54t4 -58q0 -60 -16 -113t-47 -98l184 -182l-102 -105l-183 186 q-48 -33 -100 -51q-54 -16 -111 -16q-61 0 -112 16q-23 8 -49.5 21t-51.5 30l-180 -186zM389 885q0 -95 66.5 -162.5t160.5 -67.5t161 68t67 162q0 93 -66.5 161t-161.5 68q-93 0 -160 -67.5t-67 -161.5z" />
<glyph unicode="&#xa5;" d="M-16 1391h325l322 -631l299 631h305l-256 -480h233v-125h-292l-68 -116h360v-123h-424l-12 -29v-518h-289v518l-16 29h-453v123h383l-73 116h-310v125h244z" />
<glyph unicode="&#xa6;" d="M518 -352v760h195v-760h-195zM518 674v758h195v-758h-195z" />
<glyph unicode="&#xa7;" d="M158 641q0 87 41.5 152.5t130.5 113.5q-49 45 -74 98.5t-25 118.5q0 151 103.5 243.5t273.5 92.5q176 0 277.5 -90.5t101.5 -248.5l-235 -1q0 63 -40 100t-110 37q-59 0 -95 -27q-34 -28 -34 -75q0 -38 40.5 -73t143.5 -85l168 -77q130 -60 190 -136t60 -174 q0 -89 -45 -156t-131 -104q55 -49 85 -113t30 -139q0 -153 -109 -253.5t-282 -100.5q-189 0 -293 94q-53 48 -82 116t-29 155l248 -1q9 -81 47.5 -117t116.5 -36q58 0 95.5 33.5t37.5 83.5q0 42 -27.5 73t-115.5 76l-238 123q-112 58 -168.5 131.5t-56.5 165.5zM381 698 q0 -39 31 -71q32 -30 129 -78l223 -113q41 24 60.5 51.5t19.5 59.5q0 37 -22.5 63.5t-96.5 67.5l-264 137q-40 -21 -60 -52t-20 -65z" />
<glyph unicode="&#xa8;" d="M330 1309v245h225v-245h-225zM678 1309v245h225v-245h-225z" />
<glyph unicode="&#xa9;" d="M2 680q0 120 45.5 230t133 198.5t201 136t234.5 47.5q120 0 233.5 -47t199 -131.5t133 -199t47.5 -234.5q0 -119 -47.5 -232.5t-134 -200.5t-198 -133t-235.5 -46q-121 0 -230 45t-198 132t-136.5 199t-47.5 236zM106 680q0 -52 9 -100.5t29 -95.5q38 -90 113.5 -164.5 t167 -114t189.5 -39.5q103 0 195 39t163.5 112.5t111.5 167t40 195.5q0 99 -39 195t-112 169q-69 69 -164.5 109.5t-192.5 40.5q-100 0 -195 -39.5t-166.5 -112.5t-110 -166.5t-38.5 -195.5zM289 680q0 153 92 253.5t233 100.5q38 0 79 -9q20 -4 39 -10.5t42 -17.5 q11 15 24 22t29 7q24 0 38 -17t14 -48v-140q0 -38 -13 -51.5t-45 -13.5q-24 0 -37 11t-22 42q-15 54 -46.5 77t-88.5 23q-85 0 -130.5 -59t-45.5 -170q0 -109 45.5 -169t132.5 -60q56 0 129 39.5t90 39.5q21 0 36 -18.5t15 -46.5q0 -49 -86 -94t-195 -45q-145 0 -237 99 t-92 255z" />
<glyph unicode="&#xaa;" d="M244 883q0 109 68.5 173.5t208.5 82.5l64 6q122 11 122 76q0 38 -26 58q-24 21 -73 21q-50 0 -78 -24t-28 -72v-4h-217v8q0 115 87.5 183.5t235.5 68.5q164 0 240 -58t76 -181v-342q0 -47 12 -64q12 -14 49 -14l29 3l8 1v-150l-44 -9l-32 -3q-87 0 -128 24q-38 24 -52 87 q-54 -60 -120.5 -90.5t-143.5 -30.5q-117 0 -187.5 68t-70.5 182zM293 387v148h680v-148h-680zM463 887q0 -41 24 -68q24 -24 68 -24q61 0 105.5 40.5t44.5 100.5v90q-30 -18 -138 -41q-104 -20 -104 -98z" />
<glyph unicode="&#xab;" d="M217 416v268l350 303v-260l-215 -178l215 -176v-258zM664 416v268l350 303v-260l-215 -178l215 -176v-258z" />
<glyph unicode="&#xac;" d="M70 836q0 43 31 72.5t77 29.5h895q39 0 62.5 -18.5t23.5 -51.5v-438q0 -50 -29 -79q-27 -29 -77 -29q-51 0 -76 27t-25 81v305h-774q-47 0 -79 27q-29 27 -29 74z" />
<glyph unicode="&#xad;" d="M336 412v276h561v-276h-561z" />
<glyph unicode="&#xae;" d="M2 680q0 120 45.5 230t133 198.5t201 136t234.5 47.5q120 0 233.5 -47t199 -131.5t133 -199t47.5 -234.5q0 -119 -47.5 -232.5t-134 -200.5t-198 -133t-235.5 -46q-121 0 -230 45t-198 132t-136.5 199t-47.5 236zM106 680q0 -52 9 -100.5t29 -95.5q38 -90 113.5 -164.5 t167 -114t189.5 -39.5q103 0 195 39t163.5 112.5t111.5 167t40 195.5q0 99 -39 195t-112 169q-69 69 -164.5 109.5t-192.5 40.5q-100 0 -195 -39.5t-166.5 -112.5t-110 -166.5t-38.5 -195.5zM324 430q0 27 15 43t44 16h10v406h-10q-28 0 -43.5 15.5t-15.5 45.5 q0 31 15.5 45.5t53.5 14.5h250q116 0 176 -45t60 -133q0 -62 -31 -104t-96 -66q8 -6 23 -26l8 -12l89 -141h15q34 0 49.5 -14t15.5 -45q0 -33 -15 -48q-16 -13 -52 -13h-68q-24 0 -34.5 5t-26.5 27l-131 209q-6 10 -16 16.5t-23 6.5h-51v-144h6q29 0 47 -15q16 -16 16 -44 q0 -33 -16.5 -47t-55.5 -14h-139q-36 0 -53 14q-16 16 -16 47zM528 743h74q66 0 93.5 18.5t27.5 59.5q0 40 -25 59t-77 19h-93v-156z" />
<glyph unicode="&#xaf;" d="M330 1354v155h573v-155h-573z" />
<glyph unicode="&#xb0;" d="M313 1159q0 128 89 216.5t214 88.5t214.5 -89.5t89.5 -215.5q0 -124 -89 -213.5t-215 -89.5q-125 0 -214 88.5t-89 214.5zM442 1161q0 -74 50.5 -125t123.5 -51q72 0 125 52q26 27 39 57t13 67q0 72 -51.5 123t-125.5 51q-70 0 -122 -51t-52 -123z" />
<glyph unicode="&#xb1;" d="M139 166v199h953v-199h-953zM139 809v201h375v282h203v-282h375v-201h-375v-283h-203v283h-375z" />
<glyph unicode="&#xb2;" d="M205 404q0 66 16.5 122t47.5 103q59 91 227 192l78 46q202 116 202 227q0 65 -45 104t-123 39q-83 0 -128.5 -48.5t-45.5 -137.5v-7h-209q0 168 102.5 263.5t282.5 95.5q183 0 289.5 -83t106.5 -224q0 -99 -54 -171.5t-213 -168.5l-76 -45q-155 -90 -178 -138h510v-170z " />
<glyph unicode="&#xb3;" d="M221 711v4h217q0 -80 45 -124t125 -44q90 0 137.5 38.5t47.5 112.5q0 75 -56 112q-26 18 -68 28t-98 10l-4 -1l-22 -1v137h24q96 0 143.5 33.5t47.5 101.5q0 61 -41 93t-117 32q-64 0 -103.5 -40t-39.5 -109v-9l-215 1q0 147 100.5 231t278.5 84q167 0 266 -74 q50 -36 75 -84t25 -110q0 -66 -33.5 -115.5t-101.5 -81.5q84 -28 130 -88t46 -141q0 -149 -111.5 -236.5t-304.5 -87.5q-186 0 -289.5 85.5t-103.5 242.5z" />
<glyph unicode="&#xb4;" d="M455 1249l196 371h258l-313 -371h-141z" />
<glyph unicode="&#xb5;" d="M51 -299l1 21l5 24l215 977h-34q-37 0 -62.5 26.5t-25.5 65.5q0 52 34.5 82.5t96.5 30.5h133q54 0 81 -23.5t27 -73.5l-3 -34l-1 -11l-102 -448l-8 -40l-2 -36q0 -42 27 -66q28 -22 79 -22q111 0 183.5 77.5t111.5 240.5l72 315q15 71 43 96t82 25q52 0 78 -26 q26 -24 26 -77q0 -13 -2 -21q0 -13 -4 -25l-125 -576h41q36 0 61 -26.5t25 -65.5q0 -52 -34 -81.5t-95 -29.5h-135q-56 0 -81.5 22t-25.5 70v21q0 15 2 24q-51 -77 -115.5 -117t-134.5 -40q-43 0 -77 15t-62 46l-65 -324q-12 -59 -41 -87.5t-80 -28.5q-55 0 -82 26 q-27 24 -27 74z" />
<glyph unicode="&#xb6;" d="M145 1122q0 156 107.5 253.5t284.5 97.5h550v-113h-112v-1360h-152v1360h-157v-1360h-154v776q-82 0 -147 25.5t-119 75.5q-101 96 -101 245z" />
<glyph unicode="&#xb8;" d="M387 -309q27 -7 79 -18q39 -8 69 -14q68 -11 108 -11q50 0 75 18t25 55q0 38 -28.5 54t-89.5 16h-36q-15 0 -23 -2l-1 211h103v-90h14q116 0 176 -48t60 -143q0 -99 -66.5 -149.5t-198.5 -50.5q-54 0 -122.5 11t-143.5 32v129z" />
<glyph unicode="&#xb9;" d="M307 1081v140h17q152 0 214.5 38t77.5 136h181v-992h-222v678h-268z" />
<glyph unicode="&#xba;" d="M242 1047q0 194 99.5 303.5t274.5 109.5q177 0 277 -109t100 -304t-100 -304.5t-277 -109.5q-175 0 -274.5 109.5t-99.5 304.5zM266 387v148h701v-148h-701zM469 1047q0 -115 38.5 -177.5t108.5 -62.5q72 0 112 62q20 33 30 75.5t10 102.5q0 115 -40 178t-112 63 q-68 0 -107.5 -63.5t-39.5 -177.5z" />
<glyph unicode="&#xbb;" d="M217 115v258l215 176l-215 178v260l350 -303v-268zM664 115v258l215 176l-215 178v260l350 -303v-268z" />
<glyph unicode="&#xbc;" d="M63 616l1090 267l29 -119l-1092 -266zM102 1372v119h17q67 0 108.5 7.5t70.5 24.5q52 33 64 115h150v-839h-182v573h-228zM485 -53v149l349 498h233v-512h111v-135h-111v-187h-184v187h-398zM631 78h256v366z" />
<glyph unicode="&#xbd;" d="M68 616l1089 267l27 -119l-1094 -270zM102 1372v119h17q67 0 108.5 7.5t70.5 24.5q52 33 64 115h150v-839h-182v573h-228zM508 -256q0 109 52 188q47 72 196 164l71 42q170 96 170 190q0 53 -39.5 88t-105.5 35q-70 0 -108.5 -43t-38.5 -121h-180q0 71 22.5 127.5 t67.5 97.5q88 80 241 80q158 0 248 -71t90 -191q0 -44 -11 -79t-36 -69q-46 -61 -180 -141l-75 -42q-123 -69 -144 -112h438v-143h-678z" />
<glyph unicode="&#xbe;" d="M37 1069v4h186q0 -70 37.5 -106.5t112.5 -36.5q72 0 111.5 33.5t39.5 95.5q0 63 -47 95t-141 32l-4 -1l-19 -1v114h17q85 0 126.5 29.5t41.5 87.5q0 51 -35.5 79t-100.5 28q-53 0 -87.5 -34.5t-34.5 -88.5v-13l-183 1q0 127 85 197.5t237 70.5q142 0 228.5 -62.5 t86.5 -165.5q0 -52 -30 -95.5t-86 -71.5q71 -24 111 -73.5t40 -119.5q0 -126 -96.5 -201t-259.5 -75q-158 0 -248 72q-44 36 -66 87t-22 119zM63 616l1090 267l29 -119l-1092 -266zM469 -53v149l350 498h232v-512h110v-135h-110v-187h-185v187h-397zM616 78h254v366z" />
<glyph unicode="&#xbf;" d="M117 354q0 77 19.5 129.5t66.5 104.5q33 36 108.5 88.5t98.5 71.5q37 29 53 64.5t16 84.5v23h269v-37q0 -91 -21.5 -142t-73.5 -100q-25 -24 -93 -74q-136 -98 -136 -186q0 -78 53.5 -124t143.5 -46q91 0 147 54q28 28 44.5 66.5t16.5 86.5h285l1 -19l1 -16 q0 -191 -135.5 -306.5t-359.5 -115.5q-229 0 -366.5 108t-137.5 285zM424 1047v376h377v-376h-377z" />
<glyph unicode="&#xc0;" d="M-6 0l481 1421h283l479 -1421h-307l-101 326h-438l-96 -326h-301zM324 1942h258l196 -371h-141zM469 565h287l-142 502z" />
<glyph unicode="&#xc1;" d="M-6 0l481 1421h283l479 -1421h-307l-101 326h-438l-96 -326h-301zM455 1571l196 371h258l-313 -371h-141zM469 565h287l-142 502z" />
<glyph unicode="&#xc2;" d="M-6 0l481 1421h283l479 -1421h-307l-101 326h-438l-96 -326h-301zM301 1571l197 371h237l197 -371h-141l-177 217l-174 -217h-139zM469 565h287l-142 502z" />
<glyph unicode="&#xc3;" d="M-6 0l481 1421h283l479 -1421h-307l-101 326h-438l-96 -326h-301zM299 1618q24 122 74 179t131 57h15.5t23.5 -4q22 -3 26 -4q14 -5 20 -6l93 -25l5 -1l50 -7q32 0 52 19.5t34 66.5h111q-27 -125 -78 -184.5t-131 -59.5h-14h-12q-8 2 -16 3t-14 2.5t-17 4.5l-89 27l-31 7 l-34 3q-34 0 -54.5 -18t-33.5 -60h-111zM469 565h287l-142 502z" />
<glyph unicode="&#xc4;" d="M-6 0l481 1421h283l479 -1421h-307l-101 326h-438l-96 -326h-301zM330 1631v245h225v-245h-225zM469 565h287l-142 502zM678 1631v245h225v-245h-225z" />
<glyph unicode="&#xc5;" d="M-6 0l473 1411h291l479 -1411h-307l-101 326h-438l-96 -326h-301zM352 1716q0 105 77 180.5t187 75.5q111 0 189 -75t78 -181q0 -107 -77.5 -180.5t-189.5 -73.5q-111 0 -187.5 73.5t-76.5 180.5zM469 565h287l-142 502zM496 1716q0 -48 34 -83q36 -34 86 -34 q52 0 87.5 34.5t35.5 82.5q0 47 -36.5 82t-86.5 35q-51 0 -85.5 -34t-34.5 -83z" />
<glyph unicode="&#xc6;" d="M-137 0l448 1421h973v-270h-436v-283h389v-272h-389v-326h436v-270h-721v342h-325l-107 -342h-268zM317 594h246v547h-69z" />
<glyph unicode="&#xc7;" d="M100 711q0 352 141 550.5t386 198.5q193 0 324.5 -126.5t158.5 -340.5h-295q-16 96 -65.5 148.5t-124.5 52.5q-108 0 -162.5 -115t-54.5 -342q0 -258 54 -384t167 -126q86 0 138 76.5t67 224.5h299q0 -124 -44 -234q-39 -99 -113 -181q-63 -71 -140.5 -110.5 t-167.5 -39.5v-53h14q116 0 176 -48t60 -143q0 -99 -66.5 -149.5t-198.5 -50.5q-54 0 -122.5 11t-143.5 32v129q27 -7 79 -18q39 -8 69 -14q68 -11 108 -11q50 0 75 18t25 55q0 38 -28.5 54t-89.5 16h-36q-15 0 -23 -2l-1 175q-202 22 -325 196q-140 199 -140 551z" />
<glyph unicode="&#xc8;" d="M174 0v1421h887v-270h-592v-283h530v-272h-530v-326h608v-270h-903zM324 1942h258l196 -371h-141z" />
<glyph unicode="&#xc9;" d="M174 0v1421h887v-270h-592v-283h530v-272h-530v-326h608v-270h-903zM455 1571l196 371h258l-313 -371h-141z" />
<glyph unicode="&#xca;" d="M174 0v1421h887v-270h-592v-283h530v-272h-530v-326h608v-270h-903zM301 1571l197 371h237l197 -371h-141l-177 217l-174 -217h-139z" />
<glyph unicode="&#xcb;" d="M174 0v1421h887v-270h-592v-283h530v-272h-530v-326h608v-270h-903zM330 1631v245h225v-245h-225zM678 1631v245h225v-245h-225z" />
<glyph unicode="&#xcc;" d="M207 0v246h260v930h-260v245h819v-245h-260v-930h260v-246h-819zM324 1942h258l196 -371h-141z" />
<glyph unicode="&#xcd;" d="M207 0v246h260v930h-260v245h819v-245h-260v-930h260v-246h-819zM455 1571l196 371h258l-313 -371h-141z" />
<glyph unicode="&#xce;" d="M207 0v246h260v930h-260v245h819v-245h-260v-930h260v-246h-819zM301 1571l197 371h237l197 -371h-141l-177 217l-174 -217h-139z" />
<glyph unicode="&#xcf;" d="M207 0v246h260v930h-260v245h819v-245h-260v-930h260v-246h-819zM330 1631v245h225v-245h-225zM678 1631v245h225v-245h-225z" />
<glyph unicode="&#xd0;" d="M76 711q0 345 150 547t411 202q196 0 321 -123t152 -344h-313q-20 103 -65 152t-118 49q-113 0 -172 -118.5t-59 -352.5q0 -253 54.5 -372.5t172.5 -119.5q93 0 144 78q28 42 44.5 100.5t16.5 130.5l-207 1v227h520v-768h-141l-33 135q-70 -86 -158 -130t-194 -44 q-232 0 -379 207t-147 543zM307 1907h123q0 -39 12.5 -66t37.5 -47q45 -34 136 -34q92 0 135 34t50 113h123q0 -76 -23 -133.5t-64 -97.5q-72 -72 -221 -72q-148 0 -223 74q-40 40 -63 96t-23 133z" />
<glyph unicode="&#xd1;" d="M156 0v1421h235l428 -891v891h256v-1421h-235l-428 887v-887h-256zM299 1618q24 122 74 179t131 57h15.5t23.5 -4q22 -3 26 -4q14 -5 20 -6l93 -25l5 -1l50 -7q32 0 52 19.5t34 66.5h111q-27 -125 -78 -184.5t-131 -59.5h-14h-12q-8 2 -16 3t-14 2.5t-17 4.5l-89 27 l-31 7l-34 3q-34 0 -54.5 -18t-33.5 -60h-111z" />
<glyph unicode="&#xd2;" d="M90 725q0 341 141.5 538t384.5 197q246 0 386.5 -199t140.5 -550q0 -350 -140.5 -550t-386.5 -200q-247 0 -386.5 201.5t-139.5 562.5zM324 1942h258l196 -371h-141zM395 745q0 -266 54 -391t172 -125q110 0 162.5 116t52.5 362t-54.5 367.5t-165.5 121.5 q-105 0 -163 -118.5t-58 -332.5z" />
<glyph unicode="&#xd3;" d="M90 725q0 341 141.5 538t384.5 197q246 0 386.5 -199t140.5 -550q0 -350 -140.5 -550t-386.5 -200q-247 0 -386.5 201.5t-139.5 562.5zM395 745q0 -266 54 -391t172 -125q110 0 162.5 116t52.5 362t-54.5 367.5t-165.5 121.5q-105 0 -163 -118.5t-58 -332.5zM455 1571 l196 371h258l-313 -371h-141z" />
<glyph unicode="&#xd4;" d="M90 725q0 341 141.5 538t384.5 197q246 0 386.5 -199t140.5 -550q0 -350 -140.5 -550t-386.5 -200q-247 0 -386.5 201.5t-139.5 562.5zM301 1571l197 371h237l197 -371h-141l-177 217l-174 -217h-139zM395 745q0 -266 54 -391t172 -125q110 0 162.5 116t52.5 362 t-54.5 367.5t-165.5 121.5q-105 0 -163 -118.5t-58 -332.5z" />
<glyph unicode="&#xd5;" d="M90 725q0 341 141.5 538t384.5 197q246 0 386.5 -199t140.5 -550q0 -350 -140.5 -550t-386.5 -200q-247 0 -386.5 201.5t-139.5 562.5zM299 1618q24 122 74 179t131 57h15.5t23.5 -4q22 -3 26 -4q14 -5 20 -6l93 -25l5 -1l50 -7q32 0 52 19.5t34 66.5h111 q-27 -125 -78 -184.5t-131 -59.5h-14h-12q-8 2 -16 3t-14 2.5t-17 4.5l-89 27l-31 7l-34 3q-34 0 -54.5 -18t-33.5 -60h-111zM395 745q0 -266 54 -391t172 -125q110 0 162.5 116t52.5 362t-54.5 367.5t-165.5 121.5q-105 0 -163 -118.5t-58 -332.5z" />
<glyph unicode="&#xd6;" d="M90 725q0 341 141.5 538t384.5 197q246 0 386.5 -199t140.5 -550q0 -350 -140.5 -550t-386.5 -200q-247 0 -386.5 201.5t-139.5 562.5zM330 1631v245h225v-245h-225zM395 745q0 -266 54 -391t172 -125q110 0 162.5 116t52.5 362t-54.5 367.5t-165.5 121.5 q-105 0 -163 -118.5t-58 -332.5zM678 1631v245h225v-245h-225z" />
<glyph unicode="&#xd7;" d="M190 973q0 38 32 70t71 32q21 0 41.5 -9.5t38.5 -27.5l245 -245l236 235q14 14 34 24.5t40 10.5q43 0 73.5 -27.5t30.5 -68.5q0 -20 -9 -42.5t-26 -39.5l-235 -236l244 -243q15 -16 24.5 -37.5t9.5 -40.5q0 -43 -29 -73t-71 -30q-24 0 -44 8.5t-36 24.5l-246 246 l-233 -236q-8 -7 -18 -14q-6 -4 -21 -12q-21 -9 -43 -9q-39 0 -68.5 30.5t-29.5 70.5q0 19 9 39t28 39l233 235l-246 246q-15 15 -25 36t-10 44z" />
<glyph unicode="&#xd8;" d="M25 25l153 223q-44 100 -66 212t-22 251q0 351 140.5 550t385.5 199q50 0 94 -8t87 -26q81 -33 137 -95l100 150l135 -80l-139 -195q50 -64 82 -198q15 -66 23 -140t8 -157q0 -350 -140.5 -550t-386.5 -200q-107 0 -192.5 38t-155.5 116l-118 -172zM385 729q0 -98 8 -173 v-5l387 541q-11 42 -57 72t-105 30q-114 0 -173.5 -118.5t-59.5 -346.5zM434 371q38 -75 83 -108.5t106 -33.5q114 0 169.5 118t55.5 370v13v55q-3 23 -4 34q0 21 -3.5 48.5t-9.5 56.5z" />
<glyph unicode="&#xd9;" d="M127 541v880h299v-889q0 -153 46.5 -228t143.5 -75q102 0 146.5 69.5t44.5 233.5v889h299v-880q0 -292 -122 -436t-368 -144q-248 0 -368.5 141.5t-120.5 438.5zM324 1942h258l196 -371h-141z" />
<glyph unicode="&#xda;" d="M127 541v880h299v-889q0 -153 46.5 -228t143.5 -75q102 0 146.5 69.5t44.5 233.5v889h299v-880q0 -292 -122 -436t-368 -144q-248 0 -368.5 141.5t-120.5 438.5zM455 1571l196 371h258l-313 -371h-141z" />
<glyph unicode="&#xdb;" d="M127 541v880h299v-889q0 -153 46.5 -228t143.5 -75q102 0 146.5 69.5t44.5 233.5v889h299v-880q0 -292 -122 -436t-368 -144q-248 0 -368.5 141.5t-120.5 438.5zM301 1571l197 371h237l197 -371h-141l-177 217l-174 -217h-139z" />
<glyph unicode="&#xdc;" d="M127 541v880h299v-889q0 -153 46.5 -228t143.5 -75q102 0 146.5 69.5t44.5 233.5v889h299v-880q0 -292 -122 -436t-368 -144q-248 0 -368.5 141.5t-120.5 438.5zM330 1631v245h225v-245h-225zM678 1631v245h225v-245h-225z" />
<glyph unicode="&#xdd;" d="M207 0v246h260v930h-260v245h819v-245h-260v-930h260v-246h-819zM500 1625v258h235v-258h-235z" />
<glyph unicode="&#xde;" d="M84 469h305q0 -105 64 -173.5t163 -68.5q102 0 163 51t61 140q0 127 -287 190l-55 13q-195 42 -282 134.5t-87 254.5q0 201 130 324q66 62 150.5 93t192.5 31q240 0 373 -120t133 -341h-311v17q0 79 -50 129.5t-129 50.5q-80 0 -129 -46t-49 -118q0 -73 47.5 -112 t225.5 -76q255 -54 345.5 -144.5t90.5 -263.5q0 -220 -145 -347q-66 -58 -146 -89q-89 -35 -190 -35v-53h14q116 0 176 -48t60 -143q0 -99 -66.5 -149.5t-198.5 -50.5q-54 0 -122.5 11t-143.5 32v129q27 -7 79 -18q39 -8 69 -14q68 -11 108 -11q50 0 75 18t25 55 q0 38 -28.5 54t-89.5 16h-36q-15 0 -23 -2l-1 173q-100 0 -183.5 34.5t-150.5 99.5q-71 69 -109 162t-38 211z" />
<glyph unicode="&#xdf;" d="M170 0v1100q0 163 115.5 265.5t308.5 102.5q194 0 307 -98.5t113 -271.5q0 -107 -33.5 -175.5t-101.5 -105.5q107 -48 161 -138.5t54 -221.5q0 -221 -117.5 -357.5t-304.5 -136.5l-47 3l-78 12v229l16 -1l47 -3q90 0 139.5 65.5t49.5 184.5q0 113 -54.5 175t-154.5 62 h-21l1 201l9 -2h17q66 0 103.5 45.5t37.5 128.5q0 80 -36 126t-103 46q-70 0 -106.5 -48.5t-36.5 -144.5v-1042h-285z" />
<glyph unicode="&#xe0;" d="M133 315q0 160 90 252t268 115l77 8q165 17 165 111q0 54 -32.5 82t-96.5 28q-69 0 -104 -35q-33 -35 -33 -108h-281v16q0 162 113 258.5t305 96.5q211 0 310.5 -83t99.5 -259v-488q0 -67 16.5 -88.5t61.5 -21.5l21 1l28 4v-212l-61 -12q-32 -5 -56 -5q-100 0 -149 36 t-66 122q-65 -83 -152 -128q-42 -22 -85.5 -33t-92.5 -11q-162 0 -254 95t-92 259zM324 1620h258l196 -371h-141zM416 317q0 -55 32 -89.5t82 -34.5q85 0 142 56.5t57 143.5v127q-27 -29 -133 -50q-43 -7 -54 -9.5t-28 -7.5q-48 -13 -73 -47t-25 -89z" />
<glyph unicode="&#xe1;" d="M133 315q0 160 90 252t268 115l77 8q165 17 165 111q0 54 -32.5 82t-96.5 28q-69 0 -104 -35q-33 -35 -33 -108h-281v16q0 162 113 258.5t305 96.5q211 0 310.5 -83t99.5 -259v-488q0 -67 16.5 -88.5t61.5 -21.5l21 1l28 4v-212l-61 -12q-32 -5 -56 -5q-100 0 -149 36 t-66 122q-65 -83 -152 -128q-42 -22 -85.5 -33t-92.5 -11q-162 0 -254 95t-92 259zM416 317q0 -55 32 -89.5t82 -34.5q85 0 142 56.5t57 143.5v127q-27 -29 -133 -50q-43 -7 -54 -9.5t-28 -7.5q-48 -13 -73 -47t-25 -89zM455 1249l196 371h258l-313 -371h-141z" />
<glyph unicode="&#xe2;" d="M133 315q0 160 90 252t268 115l77 8q165 17 165 111q0 54 -32.5 82t-96.5 28q-69 0 -104 -35q-33 -35 -33 -108h-281v16q0 162 113 258.5t305 96.5q211 0 310.5 -83t99.5 -259v-488q0 -67 16.5 -88.5t61.5 -21.5l21 1l28 4v-212l-61 -12q-32 -5 -56 -5q-100 0 -149 36 t-66 122q-65 -83 -152 -128q-42 -22 -85.5 -33t-92.5 -11q-162 0 -254 95t-92 259zM301 1249l197 371h237l197 -371h-141l-177 217l-174 -217h-139zM416 317q0 -55 32 -89.5t82 -34.5q85 0 142 56.5t57 143.5v127q-27 -29 -133 -50q-43 -7 -54 -9.5t-28 -7.5 q-48 -13 -73 -47t-25 -89z" />
<glyph unicode="&#xe3;" d="M133 315q0 160 90 252t268 115l77 8q165 17 165 111q0 54 -32.5 82t-96.5 28q-69 0 -104 -35q-33 -35 -33 -108h-281v16q0 162 113 258.5t305 96.5q211 0 310.5 -83t99.5 -259v-488q0 -67 16.5 -88.5t61.5 -21.5l21 1l28 4v-212l-61 -12q-32 -5 -56 -5q-100 0 -149 36 t-66 122q-65 -83 -152 -128q-42 -22 -85.5 -33t-92.5 -11q-162 0 -254 95t-92 259zM299 1296q24 122 74 179t131 57h15.5t23.5 -4q22 -3 26 -4q14 -5 20 -6l93 -25l5 -1l50 -7q32 0 52 19.5t34 66.5h111q-27 -125 -78 -184.5t-131 -59.5h-14h-12q-8 2 -16 3t-14 2.5t-17 4.5 l-89 27l-31 7l-34 3q-34 0 -54.5 -18t-33.5 -60h-111zM416 317q0 -55 32 -89.5t82 -34.5q85 0 142 56.5t57 143.5v127q-27 -29 -133 -50q-43 -7 -54 -9.5t-28 -7.5q-48 -13 -73 -47t-25 -89z" />
<glyph unicode="&#xe4;" d="M133 315q0 160 90 252t268 115l77 8q165 17 165 111q0 54 -32.5 82t-96.5 28q-69 0 -104 -35q-33 -35 -33 -108h-281v16q0 162 113 258.5t305 96.5q211 0 310.5 -83t99.5 -259v-488q0 -67 16.5 -88.5t61.5 -21.5l21 1l28 4v-212l-61 -12q-32 -5 -56 -5q-100 0 -149 36 t-66 122q-65 -83 -152 -128q-42 -22 -85.5 -33t-92.5 -11q-162 0 -254 95t-92 259zM330 1309v245h225v-245h-225zM416 317q0 -55 32 -89.5t82 -34.5q85 0 142 56.5t57 143.5v127q-27 -29 -133 -50q-43 -7 -54 -9.5t-28 -7.5q-48 -13 -73 -47t-25 -89zM678 1309v245h225v-245 h-225z" />
<glyph unicode="&#xe5;" d="M133 315q0 160 90 252t268 115l77 8q165 17 165 111q0 54 -32.5 82t-96.5 28q-69 0 -104 -35q-33 -35 -33 -108h-281v16q0 162 113 258.5t305 96.5q211 0 310.5 -83t99.5 -259v-488q0 -67 16.5 -88.5t61.5 -21.5l21 1l28 4v-212l-61 -12q-32 -5 -56 -5q-100 0 -149 36 t-66 122q-65 -83 -152 -128q-42 -22 -85.5 -33t-92.5 -11q-162 0 -254 95t-92 259zM352 1497q0 111 77 187.5t187 76.5q111 0 189 -77.5t78 -186.5q0 -110 -77.5 -189t-189.5 -79q-109 0 -186.5 78.5t-77.5 189.5zM416 317q0 -55 32 -89.5t82 -34.5q85 0 142 56.5t57 143.5 v127q-27 -29 -133 -50q-43 -7 -54 -9.5t-28 -7.5q-48 -13 -73 -47t-25 -89zM496 1495q0 -52 34 -86.5t86 -34.5t87.5 35t35.5 86t-36 87t-87 36q-50 0 -85 -36t-35 -87z" />
<glyph unicode="&#xe6;" d="M-35 315q0 159 75 251t226 116l63 8q136 17 136 111q0 54 -28 82t-81 28q-57 0 -84.5 -34t-27.5 -109h-234v14q0 166 94.5 261.5t255.5 95.5q82 0 149 -24.5t116 -72.5q52 49 110 73t125 24q199 0 303.5 -154t104.5 -446l-1 -48v-11q0 -7 -2 -19h-569q0 -138 37 -199 t119 -61q50 0 84.5 22.5t56.5 71.5h246q-35 -159 -137 -246.5t-248 -87.5q-96 0 -168 45t-141 150q-66 -99 -137.5 -147t-153.5 -48q-134 0 -211.5 94.5t-77.5 259.5zM201 319q0 -57 26 -91.5t70 -34.5q69 0 116.5 56.5t47.5 143.5v127q-44 -29 -132 -55q-128 -36 -128 -146 zM703 672h319q-10 112 -50.5 169.5t-111.5 57.5q-66 0 -111 -64q-22 -32 -34 -72.5t-12 -90.5z" />
<glyph unicode="&#xe7;" d="M152 547q0 270 133.5 431t359.5 161q200 0 320 -107q63 -56 97 -127q38 -79 38 -170h-288q-9 76 -55 118t-118 42q-91 0 -142 -89t-51 -253q0 -168 50 -256t143 -88q68 0 116.5 50.5t57.5 133.5h287q0 -96 -36.5 -176t-103.5 -141q-58 -53 -132.5 -83.5t-159.5 -30.5v-52 h14q116 0 176 -48t60 -143q0 -99 -66.5 -149.5t-198.5 -50.5q-54 0 -122.5 11t-143.5 32v129q27 -7 79 -18q39 -8 69 -14q68 -11 108 -11q50 0 75 18t25 55q0 38 -28.5 54t-89.5 16h-36q-15 0 -23 -2l-1 175q-174 21 -285 156q-128 160 -128 427z" />
<glyph unicode="&#xe8;" d="M141 551q0 272 130.5 430t353.5 158q238 0 364.5 -155t126.5 -449l-1 -47l-1 -27h-686q11 -124 65 -192t140 -68q49 0 88 24t61 70h308q-63 -173 -176 -253.5t-296 -80.5q-220 0 -348.5 158t-128.5 432zM324 1620h258l196 -371h-141zM434 672h381q0 54 -14 94.5t-41 72.5 q-50 60 -135 60q-77 0 -133 -63q-27 -33 -42.5 -74t-15.5 -90z" />
<glyph unicode="&#xe9;" d="M141 551q0 272 130.5 430t353.5 158q238 0 364.5 -155t126.5 -449l-1 -47l-1 -27h-686q11 -124 65 -192t140 -68q49 0 88 24t61 70h308q-63 -173 -176 -253.5t-296 -80.5q-220 0 -348.5 158t-128.5 432zM434 672h381q0 54 -14 94.5t-41 72.5q-50 60 -135 60 q-77 0 -133 -63q-27 -33 -42.5 -74t-15.5 -90zM455 1249l196 371h258l-313 -371h-141z" />
<glyph unicode="&#xea;" d="M141 551q0 272 130.5 430t353.5 158q238 0 364.5 -155t126.5 -449l-1 -47l-1 -27h-686q11 -124 65 -192t140 -68q49 0 88 24t61 70h308q-63 -173 -176 -253.5t-296 -80.5q-220 0 -348.5 158t-128.5 432zM301 1249l197 371h237l197 -371h-141l-177 217l-174 -217h-139z M434 672h381q0 54 -14 94.5t-41 72.5q-50 60 -135 60q-77 0 -133 -63q-27 -33 -42.5 -74t-15.5 -90z" />
<glyph unicode="&#xeb;" d="M141 551q0 272 130.5 430t353.5 158q238 0 364.5 -155t126.5 -449l-1 -47l-1 -27h-686q11 -124 65 -192t140 -68q49 0 88 24t61 70h308q-63 -173 -176 -253.5t-296 -80.5q-220 0 -348.5 158t-128.5 432zM330 1309v245h225v-245h-225zM434 672h381q0 54 -14 94.5t-41 72.5 q-50 60 -135 60q-77 0 -133 -63q-27 -33 -42.5 -74t-15.5 -90zM678 1309v245h225v-245h-225z" />
<glyph unicode="&#xec;" d="M172 0v227h350v607h-266v229h555v-836h315v-227h-954zM271 1620h258l196 -371h-141z" />
<glyph unicode="&#xed;" d="M172 0v227h350v607h-266v229h555v-836h315v-227h-954zM402 1249l196 371h258l-313 -371h-141z" />
<glyph unicode="&#xee;" d="M172 0v227h350v607h-266v229h555v-836h315v-227h-954zM248 1249l197 371h237l197 -371h-141l-177 217l-174 -217h-139z" />
<glyph unicode="&#xef;" d="M172 0v227h350v607h-266v229h555v-836h315v-227h-954zM277 1309v245h225v-245h-225zM625 1309v245h225v-245h-225z" />
<glyph unicode="&#xf0;" d="M129 573q0 128 26 228.5t81 180.5q109 157 280 157q92 0 159 -44t136 -155v162h283v-1053q0 -249 -111 -361t-358 -112q-223 0 -340 81.5t-117 238.5v4h274q0 -50 40.5 -75.5t115.5 -25.5q113 0 163 50t50 163v176q-73 -113 -138.5 -157.5t-156.5 -44.5q-173 0 -280 160 t-107 427zM307 1585h123q0 -39 12.5 -66t37.5 -47q45 -34 136 -34q92 0 135 34t50 113h123q0 -76 -23 -133.5t-64 -97.5q-72 -72 -221 -72q-148 0 -223 74q-40 40 -63 96t-23 133zM422 551q0 -146 54 -234t145 -88q95 0 149 90q27 46 40 107.5t13 146.5q0 149 -54.5 234.5 t-147.5 85.5q-92 0 -145.5 -91t-53.5 -251z" />
<glyph unicode="&#xf1;" d="M164 0v1100h293v-168q53 109 126 157t179 48q173 0 243 -91.5t70 -377.5v-668h-293v612q0 181 -30 229t-105 48q-103 0 -147 -77q-21 -38 -32 -104t-11 -161v-547h-293zM299 1296q24 122 74 179t131 57h15.5t23.5 -4q22 -3 26 -4q14 -5 20 -6l93 -25l5 -1l50 -7 q32 0 52 19.5t34 66.5h111q-27 -125 -78 -184.5t-131 -59.5h-14h-12q-8 2 -16 3t-14 2.5t-17 4.5l-89 27l-31 7l-34 3q-34 0 -54.5 -18t-33.5 -60h-111z" />
<glyph unicode="&#xf2;" d="M129 549q0 278 128.5 434t356.5 156q231 0 360.5 -156t129.5 -434q0 -277 -128.5 -432.5t-359.5 -155.5q-229 0 -358 154.5t-129 433.5zM324 1620h258l196 -371h-141zM422 559q0 -171 49.5 -261.5t144.5 -90.5q94 0 144.5 89t50.5 255q0 165 -50.5 254.5t-144.5 89.5 q-90 0 -142 -88t-52 -248z" />
<glyph unicode="&#xf3;" d="M129 549q0 278 128.5 434t356.5 156q231 0 360.5 -156t129.5 -434q0 -277 -128.5 -432.5t-359.5 -155.5q-229 0 -358 154.5t-129 433.5zM422 559q0 -171 49.5 -261.5t144.5 -90.5q94 0 144.5 89t50.5 255q0 165 -50.5 254.5t-144.5 89.5q-90 0 -142 -88t-52 -248z M455 1249l196 371h258l-313 -371h-141z" />
<glyph unicode="&#xf4;" d="M129 549q0 278 128.5 434t356.5 156q231 0 360.5 -156t129.5 -434q0 -277 -128.5 -432.5t-359.5 -155.5q-229 0 -358 154.5t-129 433.5zM301 1249l197 371h237l197 -371h-141l-177 217l-174 -217h-139zM422 559q0 -171 49.5 -261.5t144.5 -90.5q94 0 144.5 89t50.5 255 q0 165 -50.5 254.5t-144.5 89.5q-90 0 -142 -88t-52 -248z" />
<glyph unicode="&#xf5;" d="M129 549q0 278 128.5 434t356.5 156q231 0 360.5 -156t129.5 -434q0 -277 -128.5 -432.5t-359.5 -155.5q-229 0 -358 154.5t-129 433.5zM299 1296q24 122 74 179t131 57h15.5t23.5 -4q22 -3 26 -4q14 -5 20 -6l93 -25l5 -1l50 -7q32 0 52 19.5t34 66.5h111 q-27 -125 -78 -184.5t-131 -59.5h-14h-12q-8 2 -16 3t-14 2.5t-17 4.5l-89 27l-31 7l-34 3q-34 0 -54.5 -18t-33.5 -60h-111zM422 559q0 -171 49.5 -261.5t144.5 -90.5q94 0 144.5 89t50.5 255q0 165 -50.5 254.5t-144.5 89.5q-90 0 -142 -88t-52 -248z" />
<glyph unicode="&#xf6;" d="M129 549q0 278 128.5 434t356.5 156q231 0 360.5 -156t129.5 -434q0 -277 -128.5 -432.5t-359.5 -155.5q-229 0 -358 154.5t-129 433.5zM330 1309v245h225v-245h-225zM422 559q0 -171 49.5 -261.5t144.5 -90.5q94 0 144.5 89t50.5 255q0 165 -50.5 254.5t-144.5 89.5 q-90 0 -142 -88t-52 -248zM678 1309v245h225v-245h-225z" />
<glyph unicode="&#xf7;" d="M76 631q0 48 24 75t68 27h895q42 0 67 -26.5t25 -75.5q0 -48 -24.5 -75.5t-67.5 -27.5h-895q-41 0 -68 27q-24 27 -24 76zM477 315q0 59 41 100.5t98 41.5q59 0 99.5 -41t40.5 -101q0 -59 -40 -99q-20 -20 -44 -30t-56 -10q-58 0 -98.5 41t-40.5 98zM477 944q0 59 41 100 t98 41q59 0 99.5 -40t40.5 -101q0 -59 -40 -99q-20 -20 -44 -30t-56 -10q-58 0 -98.5 41t-40.5 98z" />
<glyph unicode="&#xf8;" d="M92 25l129 149q-47 81 -69.5 171.5t-22.5 203.5q0 278 128.5 434t356.5 156q107 0 188 -32t140 -95l119 137l98 -80l-139 -162q43 -77 64 -164q10 -42 15 -89t5 -105q0 -277 -129 -432.5t-359 -155.5q-98 0 -171 26.5t-140 88.5l-123 -144zM422 541l3 -68l9 -59l326 383 q-15 43 -54.5 70.5t-89.5 27.5q-94 0 -144 -91.5t-50 -262.5zM479 291q23 -42 58 -63t79 -21q94 0 144.5 89t50.5 255l-3 52q0 13 -1.5 29t-5.5 37z" />
<glyph unicode="&#xf9;" d="M162 432v668h293v-596q0 -194 30 -243.5t107 -49.5q102 0 146 77t44 265v547h293v-1100h-293v168q-52 -107 -125 -156t-182 -49q-173 0 -243 92t-70 377zM324 1620h258l196 -371h-141z" />
<glyph unicode="&#xfa;" d="M162 432v668h293v-596q0 -194 30 -243.5t107 -49.5q102 0 146 77t44 265v547h293v-1100h-293v168q-52 -107 -125 -156t-182 -49q-173 0 -243 92t-70 377zM455 1249l196 371h258l-313 -371h-141z" />
<glyph unicode="&#xfb;" d="M162 432v668h293v-596q0 -194 30 -243.5t107 -49.5q102 0 146 77t44 265v547h293v-1100h-293v168q-52 -107 -125 -156t-182 -49q-173 0 -243 92t-70 377zM301 1249l197 371h237l197 -371h-141l-177 217l-174 -217h-139z" />
<glyph unicode="&#xfc;" d="M162 432v668h293v-596q0 -194 30 -243.5t107 -49.5q102 0 146 77t44 265v547h293v-1100h-293v168q-52 -107 -125 -156t-182 -49q-173 0 -243 92t-70 377zM330 1309v245h225v-245h-225zM678 1309v245h225v-245h-225z" />
<glyph unicode="&#xfd;" d="M172 0v227h350v607h-266v229h555v-836h315v-227h-954z" />
<glyph unicode="&#xfe;" d="M158 354h278q0 -36 13 -64.5t36.5 -49.5t53.5 -31t71 -10q82 0 129 33.5t47 91.5q0 45 -27 73.5t-81 38.5l-174 31q-152 26 -234 109.5t-82 209.5q0 165 111 258t309 93t316 -93t118 -249v-4h-280q0 25 -11.5 45t-34.5 36q-43 31 -112 31q-58 0 -94.5 -27.5t-36.5 -74.5 q0 -43 28 -71.5t77 -37.5l159 -26q170 -27 253 -107.5t83 -218.5q0 -179 -122 -279q-55 -45 -126.5 -71.5t-156.5 -26.5v-53h14q116 0 176 -48t60 -143q0 -99 -66.5 -149.5t-198.5 -50.5q-54 0 -122.5 11t-143.5 32v129q27 -7 79 -18q39 -8 69 -14q68 -11 108 -11 q50 0 75 18t25 55q0 38 -28.5 54t-89.5 16h-36q-15 0 -23 -2l-1 173q-88 0 -161 26t-128 74q-118 104 -118 292z" />
<glyph unicode="&#xff;" d="M88 1100h297l254 -697l227 697h295l-448 -1243q-60 -165 -147.5 -225t-258.5 -60q-43 0 -90 6q-21 2 -44.5 6t-49.5 10v230l74 -15q35 -6 65 -6q83 0 124 29q41 26 95 152l29 65zM330 1309v245h225v-245h-225zM678 1309v245h225v-245h-225z" />
<glyph unicode="&#x152;" d="M-20 705q0 369 110 562t320 193q72 0 131 -27.5t90 -76.5v65h653v-270h-436v-283h389v-272h-389v-326h436v-270h-653v70q-43 -50 -98 -77q-25 -12 -55.5 -19t-63.5 -7q-201 0 -317.5 196.5t-116.5 541.5zM276 723q0 -231 42 -359t118 -128q38 0 67 29q27 29 56 100v706 q-28 63 -59 92t-66 29q-75 0 -116.5 -123t-41.5 -346z" />
<glyph unicode="&#x153;" d="M-45 549q0 276 103 433t286 157q84 0 150.5 -33.5t123.5 -108.5q52 71 119 106.5t150 35.5q192 0 292.5 -155t100.5 -449l-1 -45l-1 -29h-549q0 -135 33 -197.5t104 -62.5q45 0 75.5 23.5t47.5 70.5h264q-36 -159 -133 -246.5t-239 -87.5q-78 0 -142.5 33.5t-120.5 103.5 q-48 -67 -117.5 -102t-156.5 -35q-183 0 -286 155t-103 433zM221 561q0 -176 35 -265t102 -89q68 0 105 90t37 254q0 168 -36.5 256t-105.5 88q-62 0 -99.5 -87.5t-37.5 -246.5zM727 672h286q0 54 -12 95t-34 75q-36 57 -99 57q-56 0 -98 -63q-20 -32 -31.5 -73t-11.5 -91z " />
<glyph unicode="&#x178;" d="M31 1423h299l284 -612l285 612h303l-436 -837v-586h-299v582zM330 1631v245h225v-245h-225zM678 1631v245h225v-245h-225z" />
<glyph unicode="&#x2c6;" d="M301 1249l197 371h237l197 -371h-141l-177 217l-174 -217h-139z" />
<glyph unicode="&#x2dc;" d="M299 1296q24 122 74 179t131 57h15.5t23.5 -4q22 -3 26 -4q14 -5 20 -6l93 -25l5 -1l50 -7q32 0 52 19.5t34 66.5h111q-27 -125 -78 -184.5t-131 -59.5h-14h-12q-8 2 -16 3t-14 2.5t-17 4.5l-89 27l-31 7l-34 3q-34 0 -54.5 -18t-33.5 -60h-111z" />
<glyph unicode="&#x2000;" horiz-adv-x="986" />
<glyph unicode="&#x2001;" horiz-adv-x="1972" />
<glyph unicode="&#x2002;" horiz-adv-x="986" />
<glyph unicode="&#x2003;" horiz-adv-x="1972" />
<glyph unicode="&#x2004;" horiz-adv-x="657" />
<glyph unicode="&#x2005;" horiz-adv-x="493" />
<glyph unicode="&#x2006;" horiz-adv-x="328" />
<glyph unicode="&#x2007;" horiz-adv-x="328" />
<glyph unicode="&#x2008;" horiz-adv-x="246" />
<glyph unicode="&#x2009;" horiz-adv-x="394" />
<glyph unicode="&#x200a;" horiz-adv-x="109" />
<glyph unicode="&#x2010;" d="M336 412v276h561v-276h-561z" />
<glyph unicode="&#x2011;" d="M336 412v276h561v-276h-561z" />
<glyph unicode="&#x2012;" d="M336 412v276h561v-276h-561z" />
<glyph unicode="&#x2013;" d="M0 434v221h1233v-221h-1233z" />
<glyph unicode="&#x2014;" d="M0 434v221h1233v-221h-1233z" />
<glyph unicode="&#x2018;" d="M442 758v323q0 163 103 266q54 54 121 82q73 31 159 31v-129q-115 -18 -168 -72.5t-53 -152.5v-19h187v-329h-349z" />
<glyph unicode="&#x2019;" d="M408 721v127q115 18 168 73t53 154v19h-187v327h349v-321q0 -165 -104 -268q-53 -53 -122.5 -82t-156.5 -29z" />
<glyph unicode="&#x201a;" d="M408 -244q116 18 168.5 72t52.5 154v18h-187v330h349v-324q0 -163 -104 -266q-54 -54 -123.5 -83.5t-155.5 -29.5v129z" />
<glyph unicode="&#x201c;" d="M168 758v323q0 163 103 266q54 54 120 82q73 31 160 31v-129q-115 -18 -168 -72.5t-53 -152.5v-19h184v-329h-346zM717 758v323q0 163 103 266q54 54 120 82q73 31 160 31v-129q-115 -18 -168 -72.5t-53 -152.5v-19h186v-329h-348z" />
<glyph unicode="&#x201d;" d="M131 848q114 18 167.5 72.5t53.5 154.5v19h-184v327h346v-321q0 -165 -104 -268q-53 -53 -122.5 -82t-155.5 -29zM682 721v127q115 18 168 73t53 154v19h-184v327h346v-321q0 -165 -104 -268q-53 -53 -122.5 -82t-156.5 -29z" />
<glyph unicode="&#x201e;" d="M131 -244q116 18 168.5 72t52.5 154v18h-184v330h346v-324q0 -163 -103 -266q-54 -54 -123.5 -83.5t-156.5 -29.5v129zM682 -244q116 18 168.5 72t52.5 154v18h-184v330h346v-324q0 -163 -103 -266q-54 -54 -123.5 -83.5t-156.5 -29.5v129z" />
<glyph unicode="&#x2022;" d="M457 684q0 67 46.5 114.5t112.5 47.5q65 0 112.5 -48.5t47.5 -113.5q0 -66 -47 -113t-113 -47t-112.5 47t-46.5 113z" />
<glyph unicode="&#x2026;" d="M45 119q0 67 45.5 115.5t112.5 48.5q64 0 113 -49t49 -113q0 -66 -48 -113t-114 -47t-112 46t-46 112zM457 119q0 66 46.5 115t112.5 49q65 0 112.5 -49t47.5 -113q0 -67 -46.5 -113.5t-113.5 -46.5q-66 0 -112.5 46t-46.5 112zM868 119q0 67 47 115.5t113 48.5 t114 -48.5t48 -113.5q0 -66 -48 -113t-114 -47t-113 45.5t-47 112.5z" />
<glyph unicode="&#x202f;" horiz-adv-x="394" />
<glyph unicode="&#x2039;" d="M442 416v268l351 303v-260l-215 -178l215 -176v-258z" />
<glyph unicode="&#x203a;" d="M442 115v258l215 176l-215 178v260l351 -303v-268z" />
<glyph unicode="&#x205f;" horiz-adv-x="493" />
<glyph unicode="&#x2122;" d="M68 995v6l4 150q0 37 9.5 46t41.5 9h387q49 0 49 -53l4 -152v-6q0 -27 -13 -40t-38 -13q-30 0 -42.5 13t-12.5 46l-4 93h-70v-306h66q31 0 45 -14q14 -12 14 -43q0 -30 -14.5 -43.5t-44.5 -13.5h-267q-31 0 -45 13.5t-14 43.5t14 43.5t45 13.5h66v306h-70l-2 -93 q0 -32 -13.5 -45.5t-41.5 -13.5q-27 0 -40 12.5t-13 40.5zM578 731q0 26 14 41.5t37 15.5l12 306q-22 0 -35.5 15.5t-13.5 41.5q0 25 11.5 39.5t27.5 15.5h104q24 0 36.5 -10.5t22.5 -35.5l74 -216l72 215q9 25 23 36t38 11h84q31 0 45 -14q15 -12 15 -41q0 -23 -14.5 -40 t-36.5 -17l14 -306h4q21 0 33 -15t12 -42q0 -28 -15.5 -42.5t-43.5 -14.5h-101q-35 0 -51 13.5t-16 43.5q0 27 15.5 42t45.5 15h6l-6 259l-65 -203q-8 -23 -21.5 -33t-36.5 -10q-22 0 -35 9.5t-22 33.5l-66 203l-6 -259h9q22 0 36.5 -16t14.5 -41q0 -28 -15.5 -42.5 t-44.5 -14.5h-102q-31 0 -45 14t-14 43z" />
<glyph unicode="&#xe000;" horiz-adv-x="1100" d="M0 0v1100h1100v-1100h-1100z" />
</font>
</defs>
</svg>
