<?xml version="1.0" standalone="no"?>
<!DOCTYPE svg PUBLIC "-//W3C//DTD SVG 1.1//EN" "http://www.w3.org/Graphics/SVG/1.1/DTD/svg11.dtd" >
<svg>
<metadata>
Created by FontForge 20090914 at Mon Sep  9 18:20:02 2013
 By www-data
Design and data by The Monotype Corporation. &#194;&#169; 1993. Microsoft Corporation. All rights reserved.
</metadata>
<defs>
<font id="NewsGothicMT" horiz-adv-x="1280" >
  <font-face 
    font-family="News Gothic MT"
    font-weight="400"
    font-stretch="normal"
    units-per-em="2048"
    panose-1="2 11 5 4 2 2 3 2 2 4"
    ascent="1638"
    descent="-410"
    x-height="1075"
    cap-height="1516"
    bbox="-317 -458 2762 1929"
    underline-thickness="102"
    underline-position="-119"
    unicode-range="U+0020-U+F002"
  />
<missing-glyph horiz-adv-x="1536" 
d="M0 0v1280h1024v-1280h-1024zM32 32h960v1216h-960v-1216z" />
    <glyph glyph-name=".notdef" horiz-adv-x="1536" 
d="M0 0v1280h1024v-1280h-1024zM32 32h960v1216h-960v-1216z" />
    <glyph glyph-name="space" unicode=" " horiz-adv-x="640" 
 />
    <glyph glyph-name="exclam" unicode="!" horiz-adv-x="641" 
d="M204 1516h219l-52 -1050h-116zM215 227h197v-227h-197v227z" />
    <glyph glyph-name="quotedbl" unicode="&#x22;" horiz-adv-x="575" 
d="M80 1545h149v-237l-30 -272h-89l-30 272v237zM345 1545h151v-237l-31 -272h-89l-31 272v237z" />
    <glyph glyph-name="numbersign" unicode="#" horiz-adv-x="1366" 
d="M88 972h326l86 405h122l-87 -405h422l85 405h122l-86 -405h198v-122h-222l-77 -371h299v-123h-323l-84 -402h-124l86 402h-424l-82 -402h-124l85 402h-198v123h224l77 371h-301v122zM511 850l-78 -369h423l77 369h-422z" />
    <glyph glyph-name="dollar" unicode="$" 
d="M590 1617l132 -0.00390625v-101c96 -20.667 174.333 -49.167 235 -85.5s118.667 -88.5 174 -156.5l-116 -84c-55.333 60.667 -106 104 -152 130s-93 41.333 -141 46v-520c92 -25.333 162 -51 210 -77c78 -43.333 137.5 -95.166 178.5 -155.499
s61.5 -128.166 61.5 -203.499c0 -70.667 -19.5 -139.667 -58.5 -207s-98.5 -122.666 -178.5 -165.999c-60.667 -32.667 -131.667 -52 -213 -58v-252h-132v252c-54 2.66699 -100.333 9.5 -139 20.5s-77.667 29 -117 54s-78.333 56.833 -117 95.5
c-27.333 28 -63.333 71.333 -108 130l129 76c53.333 -78.667 106.5 -134.667 159.5 -168s117.167 -54 192.5 -62v597c-97.333 32.667 -172 65 -224 97c-74.667 46 -128.667 95.167 -162 147.5s-50 107.5 -50 165.5c0 60 18.5 119.333 55.5 178s95.167 107.667 174.5 147
c53.333 26.667 122 46.334 206 59.001v101zM590 891.996v476.998c-94 -12 -165.167 -40.667 -213.5 -86s-72.5 -94 -72.5 -146c0 -47.333 20.167 -92.166 60.5 -134.499s115.5 -79.166 225.5 -110.499zM722 676.994v-546c62.667 6.66699 115.667 21.834 159 45.501
s77.5 57.167 102.5 100.5s37.5 85.333 37.5 126c0 57.333 -22.833 110.666 -68.5 159.999s-122.5 87.333 -230.5 114z" />
    <glyph glyph-name="percent" unicode="%" horiz-adv-x="1921" 
d="M1465 1516l117 -0.00292969l-1115 -1946h-121l1011 1750c-76 -30 -147.833 -54.833 -215.5 -74.5s-168.167 -43.834 -301.5 -72.501c16.667 -31.333 25 -73.666 25 -126.999c0 -106.667 -34 -211.667 -102 -315c-87.333 -133.333 -194 -200 -320 -200
c-94.667 0 -174.167 33.333 -238.5 100s-96.5 155.334 -96.5 266.001c0 88 21.5 176.833 64.5 266.5s94.167 152.334 153.5 188.001s122.333 53.5 189 53.5c48 0 97.167 -12.167 147.5 -36.5s95.166 -60.833 134.499 -109.5c172.667 32.667 305.334 67.334 398.001 104.001
s182.667 87.667 270 153zM442 648.997c46.667 0 88.335 13.667 125.002 41c53.333 39.333 96.666 94.333 129.999 165s50 133.334 50 188.001c0 69.333 -23 127.333 -69 174s-102.333 70 -169 70c-88.667 0 -158 -42.167 -208 -126.5s-75 -171.833 -75 -262.5
c0 -74.667 21.667 -134.834 65 -180.501s93.666 -68.5 150.999 -68.5zM1466 540.997c100.667 0 185.167 -33.833 253.5 -101.5s102.5 -148.167 102.5 -241.5c0 -120.667 -40.5 -238.667 -121.5 -354s-179.833 -173 -296.5 -173c-96 0 -175.833 33.5 -239.5 100.5
s-95.5 156.833 -95.5 269.5c0 112 30.667 217 92 315c78 123.333 179.667 185 305 185zM1401 -215.003c86 0 161.667 52.332 227 156.999c52 82 78 161.667 78 239c0 68.667 -22.833 126.334 -68.5 173.001s-100.5 70 -164.5 70c-86.667 0 -156 -41.833 -208 -125.5
s-78 -169.167 -78 -256.5c0 -79.333 20.833 -142 62.5 -188s92.167 -69 151.5 -69z" />
    <glyph glyph-name="ampersand" unicode="&#x26;" horiz-adv-x="1493" 
d="M453 873c-39.333 64.667 -65.6699 116.667 -79.0029 156c-18.667 55.333 -28 109.666 -28 162.999c0 105.333 31.5 190.5 94.5 255.5s144.167 97.5 243.5 97.5c96.667 0 174.334 -28.333 233.001 -85s88 -129.334 88 -218.001c0 -40 -7.16699 -78.667 -21.5 -116
s-38 -75.333 -71 -114s-69.167 -73.667 -108.5 -105l-128 -88c4 -5.33301 16.333 -22.666 37 -51.999c86.667 -125.333 196 -258 328 -398c38 51.333 70.667 112.5 98 183.5s45 137.833 53 200.5h162c-11.333 -69.333 -27.666 -137.166 -48.999 -203.499
s-46.666 -129.166 -75.999 -188.499c-9.33301 -19.333 -31.666 -54.333 -66.999 -105c85.333 -73.333 172.333 -112.333 261 -117v-163c-63.333 4 -122.333 17.667 -177 41s-117.334 63 -188.001 119c-46.667 -46.667 -107 -86 -181 -118s-162.333 -48 -265 -48
c-178 0 -315.333 54.333 -412 163c-72 80.667 -108 173 -108 277c0 89.333 28.333 171.166 85 245.499s148.667 146.833 276 217.5zM589.996 955c8 6 23.333 16.333 46 31c81.333 55.333 136.333 104.5 165 147.5s43 84.833 43 125.5c0 38 -15.5 72 -46.5 102
s-66.833 45 -107.5 45c-48.667 0 -92.167 -20.667 -130.5 -62s-57.5 -93 -57.5 -155c0 -30.667 5.83301 -62.167 17.5 -94.5s35.167 -78.833 70.5 -139.5zM538.996 737c-86.667 -54.667 -143.999 -93.001 -171.999 -115.001c-37.333 -30 -66 -63.5 -86 -100.5
s-30 -76.167 -30 -117.5c0 -72 34.667 -138 104 -198s157.666 -90 264.999 -90c54.667 0 105.667 9.33301 153 28s102.333 52.334 165 101.001c-128 127.333 -261 291.333 -399 492z" />
    <glyph glyph-name="quotesingle" unicode="'" horiz-adv-x="449" 
d="M150 1545h148v-239l-26 -267h-91l-31 267v239z" />
    <glyph glyph-name="parenleft" unicode="(" horiz-adv-x="748" 
d="M591 1526l81.999 -103.999c-132 -110.667 -230.333 -225.667 -295 -345c-86 -160 -129 -335.667 -129 -527c0 -130.667 20.167 -253.834 60.5 -369.501s95.5 -218.834 165.5 -309.501c45.333 -60 111.333 -125.333 198 -196l-82 -106c-102 84 -181 161.333 -237 232
c-80.667 102 -146 217.333 -196 346s-75 262 -75 400c0 132 23.333 261.333 70 388s111 242.334 193 347.001c56.667 72.667 138.334 154 245.001 244z" />
    <glyph glyph-name="parenright" unicode=")" horiz-adv-x="748" 
d="M78 1426l83.001 104c88 -69.333 161.833 -140.333 221.5 -213s111.5 -151.167 155.5 -235.5s76.5 -165.5 97.5 -243.5s31.5 -167.333 31.5 -268c0 -140 -22.833 -274.5 -68.5 -403.5s-112.167 -249.167 -199.5 -360.5c-58 -74 -137.333 -152.333 -238 -235l-83 105
c84.667 72 151 138.667 199 200c70 90 125.5 191.333 166.5 304s61.5 235.667 61.5 369c0 139.333 -21.833 267.833 -65.5 385.5s-99.834 220.167 -168.501 307.5c-44.667 56.667 -109 118 -193 184z" />
    <glyph glyph-name="asterisk" unicode="*" horiz-adv-x="961" 
d="M50 1188l386 -51l-237 314l131 72l147 -361l153 361l127 -72l-236 -314l387 51v-145l-387 46l236 -312l-127 -72l-153 360l-147 -360l-131 72l237 312l-386 -46v145z" />
    <glyph glyph-name="plus" unicode="+" horiz-adv-x="1366" 
d="M138 727h477v480h131v-480h481v-131h-481v-475h-131v475h-477v131z" />
    <glyph glyph-name="comma" unicode="," horiz-adv-x="641" 
d="M223 230h196v-230l-150 -302h-83l133 302h-96v230z" />
    <glyph glyph-name="hyphen" unicode="-" horiz-adv-x="641" 
d="M178 612h285v-148h-285v148z" />
    <glyph glyph-name="period" unicode="." horiz-adv-x="641" 
d="M217 228h198v-228h-198v228z" />
    <glyph glyph-name="slash" unicode="/" horiz-adv-x="1087" 
d="M840 1516h136l-729 -1516h-136z" />
    <glyph glyph-name="zero" unicode="0" 
d="M639 -30c-151.333 0 -274.331 57.999 -368.998 173.999c-115.333 140 -173 342.333 -173 607c0 270.667 58.333 478.334 175 623.001c92 114 212.667 171 362 171c115.333 0 215.666 -34 300.999 -102s148.666 -162.333 189.999 -283s62 -255 62 -403
c0 -118.667 -13.5 -228.167 -40.5 -328.5s-60.167 -179.5 -99.5 -237.5s-82 -102.833 -128 -134.5s-94.333 -54 -145 -67s-95.667 -19.5 -135 -19.5zM644.002 118.999c122 0 215.665 60.1689 280.998 180.502s98 273.833 98 460.5c0 189.333 -32.667 343.666 -98 462.999
s-158.666 179 -279.999 179c-127.333 0 -223.166 -60.667 -287.499 -182s-96.5 -276.666 -96.5 -465.999c0 -138.667 18 -258.834 54 -360.501s84.833 -172.834 146.5 -213.501s122.5 -61 182.5 -61z" />
    <glyph glyph-name="one" unicode="1" 
d="M579 1516l146 0.00195312v-1384h244v-132h-665v132h275v1214c-137.333 -30.667 -229 -46.334 -275 -47.001v111c117.333 17.333 209 52.666 275 105.999z" />
    <glyph glyph-name="two" unicode="2" 
d="M149 1118c28 81.333 60.668 147 98.001 197c56.667 74 123 130.833 199 170.5s153.667 59.5 233 59.5c126.667 0 234.167 -43.5 322.5 -130.5s132.5 -192.833 132.5 -317.5c0 -70.667 -13.333 -131.834 -40 -183.501s-67.834 -103.834 -123.501 -156.501
s-150.834 -127 -285.501 -223s-228.334 -172.833 -281.001 -230.5s-89.667 -114.5 -111 -170.5h847v-133h-1003v121c0 27.333 14.333 67 43 119c40.667 74 96.167 144.333 166.5 211s169.5 145.334 297.5 236.001c92.667 66 156.334 114.667 191.001 146
c48 45.333 82.833 89.333 104.5 132s32.5 86.667 32.5 132c0 86 -28.167 158.167 -84.5 216.5s-124.166 87.5 -203.499 87.5c-85.333 0 -160.5 -27.167 -225.5 -81.5s-122.167 -133.166 -171.5 -236.499z" />
    <glyph glyph-name="three" unicode="3" 
d="M177 1313c64.667 77.333 138.836 135.331 222.503 173.998s171.834 58 264.501 58c140 0 253 -39.667 339 -119s129 -171.666 129 -276.999c0 -68 -21 -132.167 -63 -192.5s-109 -111.166 -201 -152.499c84 -30.667 149.667 -72.667 197 -126
c64 -72.667 96 -155.667 96 -249c0 -73.333 -21.667 -146.666 -65 -219.999s-105.333 -131.5 -186 -174.5s-169.334 -64.5 -266.001 -64.5c-82.667 0 -160.167 15.333 -232.5 46s-136.5 72 -192.5 124c-36 33.333 -72 78 -108 134l121 83c64 -82.667 132 -143 204 -181
s142.667 -57 212 -57c98.667 0 181.167 30.5 247.5 91.5s99.5 129.5 99.5 205.5c0 50.667 -18 101.167 -54 151.5s-94.333 90.5 -175 120.5s-163.334 45 -248.001 45c-20 0 -49.333 -1.33301 -88 -4l13 151h100c147.333 0 255.166 27.167 323.499 81.5
s102.5 117.166 102.5 188.499c0 65.333 -29.333 123.833 -88 175.5s-134.334 77.5 -227.001 77.5c-121.333 0 -240.333 -57 -357 -171z" />
    <glyph glyph-name="four" unicode="4" 
d="M693 1516h232v-1008h283v-148h-283v-360h-144v360h-710v148zM781 1398l-552 -890h552v890z" />
    <glyph glyph-name="five" unicode="5" 
d="M263 1516l789.998 0.000976562l-11 -143h-657l-37 -497c114 92 228.333 138 343 138c122.667 0 227 -47 313 -141s129 -218 129 -372c0 -98 -22.667 -188.5 -68 -271.5s-107.5 -147 -186.5 -192s-161.833 -67.5 -248.5 -67.5c-72 0 -141.333 14.167 -208 42.5
s-125 66.166 -175 113.499c-35.333 32.667 -71.666 78.667 -108.999 138l125 68c60 -76.667 117.833 -131 173.5 -163s118.834 -48 189.501 -48c97.333 0 179 35.5 245 106.5s99 165.167 99 282.5c0 106.667 -31.833 193.667 -95.5 261s-140.5 101 -230.5 101
c-64 0 -122 -16 -174 -48s-103 -80.667 -153 -146l-113 45z" />
    <glyph glyph-name="six" unicode="6" 
d="M276 738c52 68 117.499 120.831 196.499 158.498s160.833 56.5 245.5 56.5c133.333 0 241.833 -42.5 325.5 -127.5s125.5 -195.833 125.5 -332.5c0 -120 -33.333 -228.667 -100 -326c-89.333 -131.333 -217 -197 -383 -197c-105.333 0 -202.833 28.333 -292.5 85
s-159.5 141.834 -209.5 255.501s-75 246.834 -75 399.501c0 162.667 28.833 311.167 86.5 445.5s138 232.833 241 295.5s214.5 94 334.5 94c108 0 215.667 -32.667 323 -98l-90 -111c-89.333 44.667 -170.666 67 -243.999 67c-135.333 0 -249.833 -55 -343.5 -165
s-140.5 -276.667 -140.5 -500zM287.999 551.998c14 -88.667 35.334 -159.669 64.001 -213.002c40.667 -75.333 92.667 -132.666 156 -171.999c48 -30 105 -45 171 -45c96 0 177.5 35 244.5 105s100.5 158 100.5 264c0 95.333 -29.667 172.833 -89 232.5
s-135.333 89.5 -228 89.5c-79.333 0 -153.833 -21.667 -223.5 -65s-134.834 -108.666 -195.501 -195.999z" />
    <glyph glyph-name="seven" unicode="7" 
d="M167 1516h951v-145l-652 -1371h-156l654 1371h-797v145z" />
    <glyph glyph-name="eight" unicode="8" 
d="M794 803c96.667 -34 170.333 -67.999 221 -101.999c67.333 -44.667 116.5 -93.5 147.5 -146.5s46.5 -109.833 46.5 -170.5c0 -108 -45.333 -200 -136 -276c-109.333 -92 -254.666 -138 -435.999 -138c-180.667 0 -319.5 41.333 -416.5 124s-145.5 178 -145.5 286
c0 60 15.667 119.333 47 178s78 110.667 140 156c43.333 31.333 104.666 61 183.999 89c-106.667 50.667 -184.667 105.167 -234 163.5s-74 124.833 -74 199.5c0 100 44.833 188.167 134.5 264.5s216.167 114.5 379.5 114.5c154.667 0 274.667 -37.667 360 -113
s128 -164 128 -266c0 -76.667 -30 -149.334 -90 -218.001s-145.333 -117 -256 -145zM641.999 861.001c98.667 44.667 168.333 79.501 209 104.501s71.667 53.167 93 84.5s32 66 32 104c0 65.333 -28.833 122.666 -86.5 171.999s-141.167 74 -250.5 74
c-110 0 -193.667 -24 -251 -72s-86 -103.667 -86 -167c0 -51.333 21.5 -99 64.5 -143s134.833 -96.333 275.5 -157zM571.998 751.002c-114 -42 -198 -96.333 -252 -163s-81 -133.334 -81 -200.001c0 -69.333 34 -131 102 -185s169.667 -81 305 -81
c79.333 0 151.833 13.333 217.5 40s112.167 61.167 139.5 103.5s41 82.5 41 120.5c0 50.667 -23 99.667 -69 147c-60.667 62.667 -195 135.334 -403 218.001z" />
    <glyph glyph-name="nine" unicode="9" 
d="M1006 778c-62 -68 -130.167 -120 -204.5 -156s-155.833 -54 -244.5 -54c-125.333 0 -231 44 -317 132s-129 197.333 -129 328c0 87.333 22.167 172.833 66.5 256.5s104.166 148 179.499 193s156.333 67.5 243 67.5c96.667 0 191 -28.167 283 -84.5
s163.333 -141.833 214 -256.5s76 -249 76 -403c0 -166.667 -29.667 -316 -89 -448s-139.833 -228.833 -241.5 -290.5s-207.834 -92.5 -318.501 -92.5c-111.333 0 -223.666 34 -336.999 102l91 115c84 -45.333 166 -68 246 -68c69.333 0 134.833 16 196.5 48
s113.667 76.667 156 134s73.333 122.5 93 195.5s31.834 166.833 36.501 281.5zM996 978c-13.333 78.667 -32.3311 142.667 -56.998 192c-38.667 77.333 -87.334 135 -146.001 173s-121.334 57 -188.001 57c-110 0 -195 -39.167 -255 -117.5s-90 -162.5 -90 -252.5
c0 -94 29.5 -171 88.5 -231s134.5 -90 226.5 -90c84 0 161 22.5 231 67.5s133.333 112.167 190 201.5z" />
    <glyph glyph-name="colon" unicode=":" horiz-adv-x="641" 
d="M217 1075h198v-223h-198v223zM217 228h198v-228h-198v228z" />
    <glyph glyph-name="semicolon" unicode=";" horiz-adv-x="641" 
d="M218 1082h196v-227h-196v227zM218 232h196v-226l-151 -306h-83l135 300h-97v232z" />
    <glyph glyph-name="less" unicode="&#x3c;" horiz-adv-x="1366" 
d="M1225 147l-1085 457v119l1085 456v-142l-909 -373l909 -375v-142z" />
    <glyph glyph-name="equal" unicode="=" horiz-adv-x="1366" 
d="M140 966h1086v-132h-1086v132zM140 497h1086v-131h-1086v131z" />
    <glyph glyph-name="greater" unicode="&#x3e;" horiz-adv-x="1366" 
d="M140 1179l1085 -458v-118l-1085 -456v142l909 373l-909 375v142z" />
    <glyph glyph-name="question" unicode="?" horiz-adv-x="854" 
d="M85 1319c51.333 77.333 108.334 134.335 171.001 171.002s125 55 187 55c85.333 0 158.5 -31.333 219.5 -94s91.5 -140.334 91.5 -233.001c0 -58.667 -14 -117.5 -42 -176.5s-74.5 -125.833 -139.5 -200.5s-103.5 -129 -115.5 -163
c-16 -45.333 -24.333 -115.666 -25 -210.999h-129c-2.66699 42 -4 74.667 -4 98c0 71.333 10.333 132.666 31 183.999s54.667 102.666 102 153.999c62 67.333 105.167 125 129.5 173s36.5 93.333 36.5 136c0 49.333 -17.167 91.5 -51.5 126.5s-74.833 52.5 -121.5 52.5
c-34.667 0 -66.834 -9.5 -96.501 -28.5s-67.5 -59.167 -113.5 -120.5zM283.001 228.002h199v-228h-199v228z" />
    <glyph glyph-name="at" unicode="@" horiz-adv-x="2068" 
d="M1161 216c-43.333 -50.667 -91.832 -91.166 -145.499 -121.499s-107.5 -45.5 -161.5 -45.5c-59.333 0 -117 17.5 -173 52.5s-101.5 88.333 -136.5 160s-52.5 150.5 -52.5 236.5c0 106.667 27.167 213 81.5 319s121.833 185.667 202.5 239s159 80 235 80
c58 0 113.333 -15.167 166 -45.5s98 -76.5 136 -138.5l34 156h179l-144 -672c-20 -92.667 -30 -144.334 -30 -155.001c0 -18 6.83301 -33.5 20.5 -46.5s30.167 -19.5 49.5 -19.5c35.333 0 81.666 20.333 138.999 61c76 53.333 136.167 124.833 180.5 214.5
s66.5 182.5 66.5 278.5c0 110.667 -28.5 214.334 -85.5 311.001s-142 174.167 -255 232.5s-237.833 87.5 -374.5 87.5c-156 0 -298.5 -36.667 -427.5 -110s-229 -178 -300 -314s-106.5 -282.333 -106.5 -439c0 -162.667 35.5 -303 106.5 -421s173.667 -205.167 308 -261.5
s283.166 -84.5 446.499 -84.5c174.667 0 321 29.167 439 87.5s206.333 129.833 265 214.5h181c-34 -70 -92.333 -141.5 -175 -214.5s-181 -130.5 -295 -172.5s-251.333 -63 -412 -63c-148 0 -284.5 19 -409.5 57s-231.5 95.167 -319.5 171.5s-154.333 164.166 -199 263.499
c-56 125.333 -84 261 -84 407c0 162.667 33.333 317.667 100 465c81.333 180.667 196.833 319 346.5 415s331.167 144 544.5 144c263.333 0 471.5 -77.333 624.5 -232s229.5 -337 229.5 -547c0 -194 -64.333 -362 -193 -504s-265 -213 -409 -213
c-46 0 -83.167 6.83301 -111.5 20.5s-49.166 33.5 -62.499 59.5c-8.66699 17.333 -15 46.333 -19 87zM677.001 487.001c0 -91.333 21.668 -162.332 65.001 -212.999s93 -76 149 -76c37.333 0 76.666 11 117.999 33s80.833 55 118.5 99s68.5 100 92.5 168s36 135.667 36 203
c0 91.333 -22.5 162 -67.5 212s-99.833 75 -164.5 75c-60 0 -117.5 -23.833 -172.5 -71.5s-97.833 -114.334 -128.5 -200.001s-46 -162.167 -46 -229.5z" />
    <glyph glyph-name="A" unicode="A" horiz-adv-x="1300" 
d="M536 1516h236l486 -1516h-148l-153 470h-611l-153 -470h-149zM654 1416l-261 -799h517z" />
    <glyph glyph-name="B" unicode="B" horiz-adv-x="1450" 
d="M221 1516l520.999 -0.000976562c178.667 0 314 -38.667 406 -116s138 -166.333 138 -267c0 -69.333 -22.667 -135.166 -68 -197.499s-114.666 -113.166 -207.999 -152.499c106.667 -40.667 186 -94.834 238 -162.501s78 -138.5 78 -212.5c0 -104 -48.667 -198 -146 -282
s-234 -126 -410 -126h-549v1516zM366.999 1382v-539h275c181.333 0 306.833 26.5 376.5 79.5s104.5 117.833 104.5 194.5c0 72.667 -31 135 -93 187s-155.333 78 -280 78h-383zM366.999 712.999v-579h398c125.333 0 229 33.333 311 100c57.333 46.667 86 109.667 86 189
c0 55.333 -16.833 105.333 -50.5 150s-85 79.167 -154 103.5s-147.5 36.5 -235.5 36.5h-355z" />
    <glyph glyph-name="C" unicode="C" horiz-adv-x="1386" 
d="M1311 451c-25.333 -96 -59.3291 -174 -101.996 -234c-56 -79.333 -125.667 -140.333 -209 -183s-171.666 -64 -264.999 -64c-112.667 0 -215.5 30.833 -308.5 92.5s-167.167 153.167 -222.5 274.5s-83 263 -83 425c0 144.667 25.167 280 75.5 406
s122.166 220.333 215.499 283s197.666 94 312.999 94c101.333 0 189.666 -19.167 264.999 -57.5s142 -97.833 200 -178.5c42.667 -59.333 75.667 -134.666 99 -225.999l-158 -25c-32 118 -82.667 206 -152 264s-150 87 -242 87c-124.667 0 -227 -48.333 -307 -145
c-96.667 -116.667 -145 -282 -145 -496c0 -220.667 49 -391.334 147 -512.001c81.333 -99.333 182.666 -149 303.999 -149c74 0 140.833 17.333 200.5 52s109.167 83.667 148.5 147c25.333 40.667 47.666 99 66.999 175z" />
    <glyph glyph-name="D" unicode="D" horiz-adv-x="1493" 
d="M219 1516h435c220.667 0 395.167 -65.667 523.5 -197s192.5 -313.666 192.5 -546.999c0 -119.333 -15.667 -229 -47 -329c-23.333 -75.333 -56.333 -140.333 -99 -195s-91 -100.334 -145 -137.001c-39.333 -26 -86 -48.333 -140 -67c-88 -29.333 -200.333 -44 -337 -44
h-383v1516zM364 1384l-0.000976562 -1250h321c126.667 0 238.334 40.667 335.001 122c122.667 102 184 269 184 501c0 236.667 -63 407 -189 511c-93.333 77.333 -211 116 -353 116h-298z" />
    <glyph glyph-name="E" unicode="E" 
d="M221 1516h893v-144h-746v-495h555v-146h-555v-585h818v-146h-965v1516z" />
    <glyph glyph-name="F" unicode="F" horiz-adv-x="1174" 
d="M215 1516h883v-146h-737v-495h545v-147h-545v-728h-146v1516z" />
    <glyph glyph-name="G" unicode="G" horiz-adv-x="1473" 
d="M1162 193c-57.333 -73.333 -121.001 -128.834 -191.001 -166.501s-151.667 -56.5 -245 -56.5c-173.333 0 -313.666 62 -420.999 186c-125.333 143.333 -188 342.666 -188 597.999c0 256.667 60.167 452.667 180.5 588s266.833 203 439.5 203
c96.667 0 186.667 -20.833 270 -62.5s151.666 -100.167 204.999 -175.5c38 -54 69.667 -128 95 -222l-160 -32c-19.333 67.333 -41 120.333 -65 159c-39.333 63.333 -87.5 112.333 -144.5 147s-119.833 52 -188.5 52c-125.333 0 -234.666 -55.167 -327.999 -165.5
s-140 -270.166 -140 -479.499c0 -126.667 19.833 -242.667 59.5 -348s95.834 -183.666 168.501 -234.999s150.667 -77 234 -77c66.667 0 129.667 15 189 45s106.166 67.5 140.499 112.5s57.833 92.167 70.5 141.5s19 109.333 19 180h-378v146h523v-731h-145v193z" />
    <glyph glyph-name="H" unicode="H" horiz-adv-x="1516" 
d="M209 1516h146v-641h804v641h147v-1516h-147v726h-804v-726h-146v1516z" />
    <glyph glyph-name="I" unicode="I" horiz-adv-x="662" 
d="M257 1516h147v-1516h-147v1516z" />
    <glyph glyph-name="J" unicode="J" horiz-adv-x="1024" 
d="M669 1516l146 -0.000976562v-1068c0 -138 -35.667 -252.167 -107 -342.5s-170 -135.5 -296 -135.5c-83.333 0 -155 19.333 -215 58s-113 94.334 -159 167.001l126 71c66 -100 149 -150 249 -150c71.333 0 131.833 28.167 181.5 84.5s74.5 138.833 74.5 247.5v1068z" />
    <glyph glyph-name="K" unicode="K" horiz-adv-x="1366" 
d="M218 1516h147v-781l708 781h191l-522 -575l593 -941h-167l-524 832l-279 -306v-526h-147v1516z" />
    <glyph glyph-name="L" unicode="L" horiz-adv-x="1174" 
d="M224 1516h146v-1367h730v-149h-876v1516z" />
    <glyph glyph-name="M" unicode="M" horiz-adv-x="1812" 
d="M218 1516h248l442 -1221l439 1221h248v-1516h-145v1379l-500 -1379h-87l-498 1379v-1379h-147v1516z" />
    <glyph glyph-name="N" unicode="N" horiz-adv-x="1556" 
d="M216 1516h230l750 -1239v1239h146v-1516h-146l-833 1384v-1384h-147v1516z" />
    <glyph glyph-name="O" unicode="O" horiz-adv-x="1493" 
d="M752 -30c-175.333 0 -319.999 64.002 -433.999 192.002c-133.333 150.667 -200 345 -200 583c0 150.667 26.833 290.334 80.5 419.001s130 224.334 229 287.001s207.5 94 325.5 94c102.667 0 193.667 -22.833 273 -68.5s144.5 -105 195.5 -178
s89.5 -155.833 115.5 -248.5s39 -191.334 39 -296.001c0 -114.667 -14 -214.834 -42 -300.501s-61.833 -157.334 -101.5 -215.001s-79.834 -103.167 -120.501 -136.5c-53.333 -44.667 -113.5 -77.834 -180.5 -99.501s-126.833 -32.5 -179.5 -32.5zM737.001 107.002
c130.667 0 242.499 54.5 335.499 163.5s139.5 268.167 139.5 477.5c0 221.333 -51 394.666 -153 519.999c-80 97.333 -184.333 146 -313 146c-125.333 0 -233.666 -55.167 -324.999 -165.5s-137 -275.166 -137 -494.499c0 -216 45 -377.833 135 -485.5
s196 -161.5 318 -161.5z" />
    <glyph glyph-name="P" unicode="P" horiz-adv-x="1386" 
d="M221 1516h502.001c176 0 310.167 -40.333 402.5 -121s138.5 -176 138.5 -286c0 -64 -12.333 -120.5 -37 -169.5s-61.167 -92.5 -109.5 -130.5s-105.833 -68.167 -172.5 -90.5s-149.334 -33.5 -248.001 -33.5h-330v-685h-146v1516zM365.001 1385l-0.000976562 -567.999
h321c148.667 0 254.334 26.333 317.001 79s94 121.667 94 207c0 97.333 -41.667 171.666 -125 222.999c-64 39.333 -166.333 59 -307 59h-300z" />
    <glyph glyph-name="Q" unicode="Q" horiz-adv-x="1493" 
d="M822 -22c0.666992 -40 8.66602 -74.8301 23.999 -104.497s35 -53.5 59 -71.5c18.667 -13.333 48.667 -26.333 90 -39s86.666 -19 135.999 -19h127v-144h-116c-98 0 -182 15.167 -252 45.5s-123.333 75.5 -160 135.5s-55 125.667 -55 197
c-91.333 9.33301 -180.166 44 -266.499 104s-156.5 150.667 -210.5 272s-81 251.333 -81 390c0 113.333 16.667 223.333 50 330s78.5 194 135.5 262s121.833 119.833 194.5 155.5s153.334 53.5 242.001 53.5c118 0 225.167 -30.167 321.5 -90.5s173 -153 230 -278
s85.5 -267.5 85.5 -427.5c0 -144.667 -25.167 -274.834 -75.5 -390.501s-119 -205.834 -206 -270.501s-177.833 -101.334 -272.5 -110.001zM738.999 105.003c130.667 0 242 54.332 334 162.999s138 271.334 138 488.001c0 220 -50 390.667 -150 512
c-80 97.333 -184.667 146 -314 146c-124.667 0 -233.167 -55.667 -325.5 -167s-138.5 -275.333 -138.5 -492c0 -214 49.333 -381 148 -501c82 -99.333 184.667 -149 308 -149z" />
    <glyph glyph-name="R" unicode="R" horiz-adv-x="1386" 
d="M218 1516l463.999 -0.000976562c132.667 0 239.334 -15.667 320.001 -47s144.167 -80.166 190.5 -146.499s69.5 -139.5 69.5 -219.5c0 -87.333 -27.5 -164.833 -82.5 -232.5s-138.5 -118.5 -250.5 -152.5l368 -718h-158l-357 688h-417v-688h-147v1516zM364.999 1385
v-566.999h323c78.667 0 156.667 13 234 39c56 18.667 99.167 50.167 129.5 94.5s45.5 95.833 45.5 154.5c0 81.333 -29.5 148.166 -88.5 200.499s-147.833 78.5 -266.5 78.5h-377z" />
    <glyph glyph-name="S" unicode="S" horiz-adv-x="1323" 
d="M275 425c16.667 -60 35.332 -106.332 55.999 -138.999c34.667 -54 80.334 -97.167 137.001 -129.5s125.334 -48.5 206.001 -48.5c112.667 0 201.167 28.833 265.5 86.5s96.5 126.167 96.5 205.5c0 72 -29 133.333 -87 184c-44.667 38 -134.667 76.333 -270 115
c-182.667 52.667 -313 113.667 -391 183c-78 68.667 -117 153.667 -117 255c0 111.333 43.5 207.166 130.5 287.499s201.167 120.5 342.5 120.5c86 0 167 -16 243 -48s139.667 -79.667 191 -143c35.333 -44 63.333 -101.333 84 -172l-153 -47c-26 90 -70.833 159 -134.5 207
s-139.834 72 -228.501 72c-94 0 -169.667 -25.667 -227 -77s-86 -112 -86 -182c0 -57.333 23.333 -109.333 70 -156c46 -46.667 147.333 -92.667 304 -138c186 -53.333 314.333 -115 385 -185c70 -70.667 105 -159.667 105 -267c0 -121.333 -47.667 -224.833 -143 -310.5
s-222 -128.5 -380 -128.5c-98.667 0 -189 19.5 -271 58.5s-148.667 93.167 -200 162.5c-35.333 46.667 -64 110.667 -86 192z" />
    <glyph glyph-name="T" unicode="T" horiz-adv-x="1260" 
d="M81 1516h1111v-145h-480v-1371h-147v1371h-484v145z" />
    <glyph glyph-name="U" unicode="U" horiz-adv-x="1516" 
d="M205 1516h146v-992c0 -124.667 35.5 -223 106.5 -295s167.5 -108 289.5 -108c96 0 174.167 16.5 234.5 49.5s105.5 81.333 135.5 145s45 133.167 45 208.5v992h148v-992c0 -169.333 -49.5 -304 -148.5 -404s-231.167 -150 -396.5 -150c-133.333 0 -243.5 28 -330.5 84
s-147 126.833 -180 212.5s-49.5 164.5 -49.5 236.5v1013z" />
    <glyph glyph-name="V" unicode="V" 
d="M53 1516h149l439 -1276l437 1276h148l-519 -1516h-135z" />
    <glyph glyph-name="W" unicode="W" horiz-adv-x="1812" 
d="M53 1516h145l316 -1208l319 1208h150l316 -1208l318 1208h143l-399 -1516h-127l-327 1246l-328 -1246h-132z" />
    <glyph glyph-name="X" unicode="X" horiz-adv-x="1300" 
d="M122 1516h167l360 -572l362 572h168l-446 -705l515 -811h-166l-433 679l-431 -679h-165l512 811z" />
    <glyph glyph-name="Y" unicode="Y" horiz-adv-x="1237" 
d="M51 1516h162l405 -702l406 702h162l-494 -857v-659h-147v659z" />
    <glyph glyph-name="Z" unicode="Z" horiz-adv-x="1260" 
d="M164 1516h999v-146l-896 -1223h896v-147h-1068v147l899 1223h-830v146z" />
    <glyph glyph-name="bracketleft" unicode="[" horiz-adv-x="748" 
d="M152 1516h517v-86h-372v-1744h372v-95h-517v1925z" />
    <glyph glyph-name="backslash" unicode="\" horiz-adv-x="1087" 
d="M246 1516l732 -1516h-136l-732 1516h136z" />
    <glyph glyph-name="bracketright" unicode="]" horiz-adv-x="748" 
d="M81 1516h515v-1925h-515v94h370v1743h-370v88z" />
    <glyph glyph-name="asciicircum" unicode="^" horiz-adv-x="1343" 
d="M671 1545l448 -538l-65 -53l-383 461l-384 -461l-63 53z" />
    <glyph glyph-name="underscore" unicode="_" horiz-adv-x="1024" 
d="M-12 -154h1048v-102h-1048v102z" />
    <glyph glyph-name="grave" unicode="`" horiz-adv-x="682" 
d="M5 1473h263l266 -312h-128z" />
    <glyph glyph-name="a" unicode="a" horiz-adv-x="1153" 
d="M137 889c68.667 71.333 143.002 123.835 223.002 157.502s158.333 50.5 235 50.5c88.667 0 164.167 -19.667 226.5 -59s105.5 -88 129.5 -146c18 -44.667 27 -104.334 27 -179.001v-456c0 -90.667 10.333 -176.334 31 -257.001h-149c-18 63.333 -27.667 123.333 -29 180
c-66.667 -67.333 -134.5 -117.833 -203.5 -151.5s-139.5 -50.5 -211.5 -50.5c-91.333 0 -165 27.5 -221 82.5s-84 124.167 -84 207.5c0 68 21.667 131.667 65 191s110.666 106 201.999 140c66.667 24.667 217.667 62.667 453 114v67c0 56.667 -19.833 104 -59.5 142
s-89.834 57 -150.501 57c-54.667 0 -111.5 -13.5 -170.5 -40.5s-127.833 -73.833 -206.5 -140.5zM831.002 264.002l-0.00195312 342c-162 -38.667 -268.667 -67 -320 -85c-82 -28 -142.167 -64.167 -180.5 -108.5s-57.5 -91.5 -57.5 -141.5
c0 -47.333 16.5 -86.5 49.5 -117.5s77.167 -46.5 132.5 -46.5c52.667 0 110.334 13.167 173.001 39.5s130.334 65.5 203.001 117.5z" />
    <glyph glyph-name="b" unicode="b" horiz-adv-x="1260" 
d="M194 1516l145.004 -0.000976562v-578c47.333 48 104.666 86.5 171.999 115.5s132.333 43.5 195 43.5c121.333 0 226.166 -50 314.499 -150s132.5 -236.333 132.5 -409c0 -109.333 -19.833 -208.166 -59.5 -296.499s-95.334 -154.333 -167.001 -198
s-146.834 -65.5 -225.501 -65.5c-60 0 -118.333 12.5 -175 37.5s-119 66.833 -187 125.5v-141h-145v1516zM339.004 267.999c74.667 -59.333 138.5 -100.168 191.5 -122.501s106.167 -33.5 159.5 -33.5c88 0 163 36.333 225 109s93 180 93 322c0 139.333 -31.333 245 -94 317
s-140.667 108 -234 108c-56.667 0 -113.5 -13.167 -170.5 -39.5s-113.833 -66.166 -170.5 -119.499v-541z" />
    <glyph glyph-name="c" unicode="c" horiz-adv-x="1087" 
d="M998 261c-48.667 -87.333 -101.999 -152.666 -159.999 -195.999c-77.333 -58 -164.333 -87 -261 -87c-84 0 -162.833 22.667 -236.5 68s-130.667 111 -171 197s-60.5 184.667 -60.5 296c0 171.333 45.833 307.166 137.5 407.499s202.167 150.5 331.5 150.5
c87.333 0 166.666 -23 237.999 -69s132 -115 182 -207l-127 -69c-40.667 75.333 -84.667 131.5 -132 168.5s-101.666 55.5 -162.999 55.5c-87.333 0 -162.833 -37.333 -226.5 -112s-95.5 -186 -95.5 -334c0 -130.667 32.167 -234 96.5 -310s138.166 -114 221.499 -114
c126 0 225.667 75 299 225z" />
    <glyph glyph-name="d" unicode="d" horiz-adv-x="1260" 
d="M920 1516l145 0.000976562v-1181c0 -61.333 4 -124.833 12 -190.5s17 -113.834 27 -144.501h-150c-16 55.333 -24.333 105 -25 149c-64.667 -56.667 -128.5 -99.334 -191.5 -128.001s-125.167 -43 -186.5 -43c-121.333 0 -225.5 49.167 -312.5 147.5
s-130.5 234.5 -130.5 408.5c0 178 43.833 316.333 131.5 415s192.167 148 313.5 148c62 0 122.333 -13.167 181 -39.5s120.667 -68.166 186 -125.499v584zM920 806.001c-60 53.333 -119 93.167 -177 119.5s-115 39.5 -171 39.5c-91.333 0 -167.333 -35.5 -228 -106.5
s-91 -176.167 -91 -315.5c0 -146 31 -255.167 93 -327.5s137.667 -108.5 227 -108.5c54.667 0 111 13.5 169 40.5s117.333 67.5 178 121.5v537z" />
    <glyph glyph-name="e" unicode="e" horiz-adv-x="1110" 
d="M1015 241c-66 -88.667 -136.332 -154.667 -210.999 -198s-152 -65 -232 -65c-126.667 0 -235.334 49.833 -326.001 149.5s-136 238.5 -136 416.5c0 171.333 44.833 306.333 134.5 405s194.5 148 314.5 148c80 0 157 -23.5 231 -70.5s129.5 -110.5 166.5 -190.5
s56.5 -184 58.5 -312h-759c3.33301 -85.333 16.333 -155.333 39 -210c30 -72 70.333 -124.5 121 -157.5s99.667 -49.5 147 -49.5c118.667 0 229.667 72.667 333 218zM863.001 655c-10.667 101.333 -45.168 180.833 -103.501 238.5s-124.166 86.5 -197.499 86.5
c-89.333 0 -160.833 -34.167 -214.5 -102.5s-82.167 -142.5 -85.5 -222.5h601z" />
    <glyph glyph-name="f" unicode="f" horiz-adv-x="662" 
d="M248 1075v167.999c0 82.667 26.667 148.834 80 198.501s128 74.5 224 74.5c21.333 0 47 -1 77 -3v-137c-29.333 3.33301 -53.333 5 -72 5c-53.333 0 -94 -13.667 -122 -41s-42 -64 -42 -110v-155h222v-133h-222v-942h-145v942h-201v133h201z" />
    <glyph glyph-name="g" unicode="g" horiz-adv-x="1174" 
d="M278 429c-47.333 41.333 -81.665 84.001 -102.998 128.001s-32 95.667 -32 155c0 110.667 39.167 202.5 117.5 275.5s184.5 109.5 318.5 109.5c55.333 0 107.666 -7.33301 156.999 -22s95.666 -37 138.999 -67c72 42.667 163 65 273 67v-128l-52 1
c-62.667 0 -111.667 -8 -147 -24c35.333 -60 53 -126.333 53 -199c0 -113.333 -39 -207.333 -117 -282s-184 -112 -318 -112c-41.333 0 -89.333 4.66699 -144 14c-26 4.66699 -45 7 -57 7c-30.667 0 -54.834 -7.66699 -72.501 -23s-26.5 -33.333 -26.5 -54
c0 -24.667 15 -44.667 45 -60c14 -6.66699 59 -11.334 135 -14.001c184 -6.66699 319.833 -24.334 407.5 -53.001s149 -67.334 184 -116.001s52.5 -101.667 52.5 -159c0 -58 -18.833 -111 -56.5 -159s-93.667 -84.167 -168 -108.5s-152.833 -36.5 -235.5 -36.5
c-115.333 0 -220.666 15.667 -315.999 47c-72.667 24.667 -128.5 61.5 -167.5 110.5s-58.5 100.167 -58.5 153.5c0 41.333 10.833 80.833 32.5 118.5s54.167 73.834 97.5 108.501c-34.667 22.667 -58.667 44.5 -72 65.5s-20 44.833 -20 71.5c0 35.333 11.5 67.833 34.5 97.5
s61.833 58.834 116.5 87.501zM572.001 464.001c90.667 0 163.333 25.832 218 77.499s82 112.834 82 183.501c0 67.333 -25.667 125 -77 173s-123 72 -215 72c-97.333 0 -172.333 -23.833 -225 -71.5s-79 -107.5 -79 -179.5s26.833 -132.5 80.5 -181.5
s125.5 -73.5 215.5 -73.5zM345 61c-46 -26 -80.5 -53.333 -103.5 -82s-34.5 -58.334 -34.5 -89.001c0 -42 24 -79 72 -111c74 -50 180.333 -75 319 -75s237.667 20.333 297 61c42 28.667 63 65.334 63 110.001c0 53.333 -38 94.5 -114 123.5s-242.333 49.833 -499 62.5z" />
    <glyph glyph-name="h" unicode="h" horiz-adv-x="1217" 
d="M191 1516h146.001v-560c123.333 62 211.166 101 263.499 117s102.833 24 151.5 24c86.667 0 157.5 -30 212.5 -90s82.5 -149.333 82.5 -268v-739h-146v772c0 62 -16.167 109.167 -48.5 141.5s-77.833 48.5 -136.5 48.5c-52 0 -109.5 -10.833 -172.5 -32.5
s-131.833 -54.167 -206.5 -97.5v-832h-146v1516z" />
    <glyph glyph-name="i" unicode="i" horiz-adv-x="575" 
d="M215 1502h146v-175h-146v175zM215 1075h146v-1075h-146v1075z" />
    <glyph glyph-name="j" unicode="j" horiz-adv-x="555" 
d="M215 1502h145v-176h-145v176zM215 1075h144.999v-1202c0 -94 -24.167 -168.333 -72.5 -223s-108.166 -82 -179.499 -82c-12.667 0 -30.667 1.66699 -54 5v163c16.667 -2.66699 29.667 -4 39 -4c34.667 0 61.667 11.667 81 35c27.333 32.667 41 73 41 121v1187z" />
    <glyph glyph-name="k" unicode="k" horiz-adv-x="1110" 
d="M189 1516h146v-989l488 548h192l-356 -376l391 -699h-162l-319 604l-234 -248v-356h-146v1516z" />
    <glyph glyph-name="l" unicode="l" horiz-adv-x="575" 
d="M215 1516h146v-1516h-146v1516z" />
    <glyph glyph-name="m" unicode="m" horiz-adv-x="1921" 
d="M344 905c124.667 83.333 215.668 136.166 273.001 158.499s112.666 33.5 165.999 33.5c59.333 0 110.333 -15.5 153 -46.5s76 -79.5 100 -145.5c124.667 84 215.5 137 272.5 159s113.167 33 168.5 33c74.667 0 134.667 -21.333 180 -64c62.667 -60 94 -137.667 94 -233
v-800h-147v757c0 62.667 -16.5 112.834 -49.5 150.501s-72.167 56.5 -117.5 56.5c-41.333 0 -90.5 -12.167 -147.5 -36.5s-137.833 -74.166 -242.5 -149.499v-778h-146v757c0 64 -16 114.5 -48 151.5s-69 55.5 -111 55.5c-46 0 -97.167 -11.833 -153.5 -35.5
s-137.833 -73.834 -244.5 -150.501v-778h-148v1075h148v-170z" />
    <glyph glyph-name="n" unicode="n" horiz-adv-x="1217" 
d="M336 951c78.667 46.667 154.833 82.667 228.5 108s133.5 38 179.5 38c51.333 0 98.833 -10.833 142.5 -32.5s81.5 -59 113.5 -112s48 -118.833 48 -197.5v-755h-146v744c0 74 -16.333 129 -49 165s-77 54 -133 54c-51.333 0 -109 -11 -173 -33
s-134.333 -55.333 -211 -100v-830h-146v1075h146v-124z" />
    <glyph glyph-name="o" unicode="o" horiz-adv-x="1174" 
d="M601 -22c-138 0 -253.999 50.334 -347.999 151.001s-141 236 -141 406c0 113.333 20.833 213.833 62.5 301.5s99.834 153 174.501 196s154 64.5 238 64.5c81.333 0 159.166 -22.167 233.499 -66.5s133.166 -111.333 176.499 -201s65 -189.834 65 -300.501
c0 -168.667 -45.667 -302.667 -137 -402s-199.333 -149 -324 -149zM588.001 102.001c88 0 164.499 38.001 229.499 114.001s97.5 185 97.5 327c0 140 -31.667 246.667 -95 320s-139.666 110 -228.999 110c-94.667 0 -174.167 -37.333 -238.5 -112
s-96.5 -181.334 -96.5 -320.001c0 -142 32.333 -250.667 97 -326s143 -113 235 -113z" />
    <glyph glyph-name="p" unicode="p" horiz-adv-x="1260" 
d="M338 939c58.667 52.667 118.501 92.167 179.501 118.5s123.167 39.5 186.5 39.5c79.333 0 154.833 -22.667 226.5 -68s126.5 -112.333 164.5 -201s57 -186 57 -292c0 -111.333 -19.667 -210.5 -59 -297.5s-94.833 -152.167 -166.5 -195.5s-145.834 -65 -222.501 -65
c-63.333 0 -125.5 13.667 -186.5 41s-120.833 68 -179.5 122v-550h-145v1484h145v-136zM338.001 268c63.333 -52 124.668 -91.0029 184.001 -117.003s117 -39 173 -39c84.667 0 157.834 36.333 219.501 109s92.5 181.334 92.5 326.001
c0 138.667 -31.5 243.834 -94.5 315.501s-139.167 107.5 -228.5 107.5c-52.667 0 -107.834 -13.167 -165.501 -39.5s-117.834 -66.166 -180.501 -119.499v-543z" />
    <glyph glyph-name="q" unicode="q" horiz-adv-x="1260" 
d="M922 139c-60 -53.333 -120.666 -93.5 -181.999 -120.5s-123 -40.5 -185 -40.5c-122 0 -227.167 49.833 -315.5 149.5s-132.5 237.834 -132.5 414.501c0 171.333 44.667 306.666 134 405.999s193.666 149 312.999 149c62 0 120.5 -11.833 175.5 -35.5
s119.167 -66.5 192.5 -128.5v142h147v-1484h-147v548zM922.001 805c-68 58.667 -129.501 100.499 -184.501 125.499s-112.167 37.5 -171.5 37.5c-85.333 0 -158.666 -36.167 -219.999 -108.5s-92 -181.166 -92 -326.499c0 -142 30 -248 90 -318s133 -105 219 -105
c60.667 0 121 13.333 181 40s119.333 66.667 178 120v535z" />
    <glyph glyph-name="r" unicode="r" horiz-adv-x="831" 
d="M343 832c60 92 122.834 159.333 188.501 202s140.5 64 224.5 64c9.33301 0 22.666 -0.333008 39.999 -1l-21 -161l-53 3c-38.667 2 -82 -7.16699 -130 -27.5s-90.833 -52.5 -128.5 -96.5s-67.167 -98.667 -88.5 -164s-32 -123 -32 -173v-478h-146v1075h146v-243z" />
    <glyph glyph-name="s" unicode="s" horiz-adv-x="1044" 
d="M206 623c-52.667 55.333 -78.999 117 -78.999 185c0 78.667 32.333 146.5 97 203.5s154.667 85.5 270 85.5c76.667 0 149.167 -14 217.5 -42s126.5 -69.333 174.5 -124l-111 -93c-41.333 47.333 -84 82.166 -128 104.499s-94.333 33.5 -151 33.5
c-72.667 0 -127.834 -15.667 -165.501 -47s-56.5 -67.666 -56.5 -108.999c0 -35.333 14.667 -67 44 -95c28.667 -28 96 -55.667 202 -83c163.333 -42 273.333 -93 330 -153s85 -126 85 -198c0 -86 -33.833 -159.667 -101.5 -221s-159.834 -92 -276.501 -92
c-85.333 0 -164 16 -236 48s-148 85.333 -228 160l125 88c60 -60 116.333 -102.833 169 -128.5s108.334 -38.5 167.001 -38.5c74.667 0 132.5 17.833 173.5 53.5s61.5 77.5 61.5 125.5c0 40 -15.333 74.333 -46 103c-43.333 40.667 -130.333 78 -261 112
c-80.667 21.333 -147.667 45 -201 71c-26.667 12.667 -51.667 29.667 -75 51z" />
    <glyph glyph-name="t" unicode="t" horiz-adv-x="748" 
d="M258 1467h144.002v-392h267v-133h-267v-668c0 -55.333 14.667 -98.5 44 -129.5s68.666 -46.5 117.999 -46.5c26.667 0 61.667 5.33301 105 16v-131c-50 -6 -92 -9 -126 -9c-102.667 0 -175.834 21.333 -219.501 64s-65.5 112.667 -65.5 210v694h-188v133h188v392z" />
    <glyph glyph-name="u" unicode="u" horiz-adv-x="1217" 
d="M169 1075l145.999 0.00195312v-705c0 -78 19.167 -139 57.5 -183s83.833 -66 136.5 -66c47.333 0 99 12.833 155 38.5s127 74.167 213 145.5v770h147v-1075h-147v173c-81.333 -64.667 -155.666 -113.334 -222.999 -146.001s-128 -49 -182 -49
c-52 0 -100.833 11.833 -146.5 35.5s-83.167 62.667 -112.5 117s-44 125.166 -44 212.499v732z" />
    <glyph glyph-name="v" unicode="v" horiz-adv-x="981" 
d="M44 1075h149l297 -863l298 863h149l-372 -1075h-149z" />
    <glyph glyph-name="w" unicode="w" horiz-adv-x="1493" 
d="M50 1075h141l247 -782l249 782h112l253 -802l251 802h141l-343 -1075h-103l-255 814l-256 -814h-98z" />
    <glyph glyph-name="x" unicode="x" horiz-adv-x="1024" 
d="M72 1075h169l271 -393l268 393h169l-353 -518l378 -557h-167l-295 433l-293 -433h-169l378 557z" />
    <glyph glyph-name="y" unicode="y" horiz-adv-x="1044" 
d="M50 1075h150.002l333 -878l332 878h151l-432 -1144c-42.667 -112 -74.5 -184.167 -95.5 -216.5s-46.5 -59.333 -76.5 -81s-66.833 -38.667 -110.5 -51s-93.167 -18.5 -148.5 -18.5c-40 0 -86.667 5.66699 -140 17l37 139c39.333 -7.33301 73.666 -11 102.999 -11
c80.667 0 140.167 14.833 178.5 44.5s74.166 95.167 107.499 196.5c6.66699 19.333 12.667 36 18 50z" />
    <glyph glyph-name="z" unicode="z" horiz-adv-x="1067" 
d="M140 1075h818v-143l-683 -785h714v-147h-903v147l687 785h-633v143z" />
    <glyph glyph-name="braceleft" unicode="{" horiz-adv-x="682" 
d="M57 636c51.333 1.33301 93.165 15.3291 125.498 41.9961s53.833 62.834 64.5 108.501s16.334 124.5 17.001 236.5s2.66699 185.667 6 221c6.66699 58 18.667 104.167 36 138.5s38.333 61.166 63 80.499s56.334 34 95.001 44c22.667 6 61.334 9 116.001 9h56v-157h-31
c-69.333 0 -115.333 -12.5 -138 -37.5s-34 -81.167 -34 -168.5v-148c0 -142.667 -15.667 -244.167 -47 -304.5s-85.333 -108.833 -162 -145.5c73.333 -31.333 126.5 -78.5 159.5 -141.5s49.5 -166.167 49.5 -309.5v-148c0 -69.333 6.16699 -116.833 18.5 -142.5
s30 -42.5 53 -50.5s66.833 -12 131.5 -12v-157h-56c-66 0 -113.667 5.33301 -143 16c-42.667 15.333 -77.834 40.333 -105.501 75s-45.667 78.334 -54 131.001s-12.833 138.834 -13.5 258.501s-6.33398 202.334 -17.001 248.001s-32.167 81.834 -64.5 108.501
s-74.166 40.667 -125.499 42v163z" />
    <glyph glyph-name="bar" unicode="|" horiz-adv-x="1087" 
d="M478 1516h132v-1925h-132v1925z" />
    <glyph glyph-name="braceright" unicode="}" horiz-adv-x="682" 
d="M626 636l0.000976562 -162.996c-51.333 -1.33301 -93.166 -15.333 -125.499 -42s-53.833 -62.834 -64.5 -108.501s-16.334 -124.334 -17.001 -236.001s-2.66699 -185.5 -6 -221.5c-6.66699 -58 -18.667 -104.167 -36 -138.5s-38.333 -61.166 -63 -80.499
s-56.334 -34 -95.001 -44c-22.667 -5.33301 -61.334 -8 -116.001 -8h-56v157h31c69.333 0 115.333 12.5 138 37.5s34 80.833 34 167.5v148c0 143.333 16.5 246.5 49.5 309.5s86.167 110.167 159.5 141.5c-76.667 36.667 -130.667 85.167 -162 145.5s-47 161.833 -47 304.5
v148c0 87.333 -11.333 143.5 -34 168.5s-68.667 37.5 -138 37.5h-31v157h56c66 0 113.667 -5.66699 143 -17c42.667 -14.667 77.834 -39.334 105.501 -74.001s45.667 -78.334 54 -131.001s12.833 -138.834 13.5 -258.501s6.33398 -202.5 17.001 -248.5
s32.167 -82.333 64.5 -109s74.166 -40.667 125.499 -42z" />
    <glyph glyph-name="asciitilde" unicode="~" horiz-adv-x="1343" 
d="M1213 701c-102 -85.333 -196.666 -128.001 -283.999 -128.001c-38 0 -75.5 5.33301 -112.5 16s-101 37.667 -192 81s-157.833 65 -200.5 65c-85.333 0 -183 -45.667 -293 -137v143c53.333 43.333 106 75 158 95s97 30 135 30c34 0 70.167 -5.5 108.5 -16.5
s101.666 -37.833 189.999 -80.5s155.5 -64 201.5 -64c42 0 85.667 10.333 131 31s98 57.334 158 110.001v-145z" />
    <glyph glyph-name="nonbreakingspace" unicode="&#xa0;" horiz-adv-x="640" 
 />
    <glyph glyph-name="exclamdown" unicode="&#xa1;" horiz-adv-x="641" 
d="M222 1091h201v-228h-201v228zM264 624h116l51 -1051h-218z" />
    <glyph glyph-name="cent" unicode="&#xa2;" horiz-adv-x="961" 
d="M808 1516h100.005l-220 -572c71.333 -46.667 126 -113.667 164 -201l-107 -43c-26.667 58.667 -59.667 101.667 -99 129l-261 -688c44 -21.333 83.667 -32 119 -32c47.333 0 93.666 14.833 138.999 44.5s94.333 78.5 147 146.5l94 -61
c-48.667 -84.667 -109.334 -149.334 -182.001 -194.001s-143.334 -67 -212.001 -67c-44 0 -95.667 11.333 -155 34l-171 -443h-99l188 494c-122.667 96.667 -184 227.334 -184 392.001c0 100.667 21 195 63 283s94.667 153.833 158 197.5s130.666 65.5 201.999 65.5
c27.333 0 64.666 -5.33301 111.999 -16zM305.005 202l258.001 669.999c-24.667 3.33301 -43.334 5 -56.001 5c-77.333 0 -141 -31 -191 -93c-68.667 -83.333 -103 -188.666 -103 -315.999c0 -60.667 7.5 -111 22.5 -151s38.167 -78.333 69.5 -115z" />
    <glyph glyph-name="sterling" unicode="&#xa3;" 
d="M432 866l-18.999 89.002c-18 82.667 -27 149.667 -27 201c0 114.667 34.833 208.167 104.5 280.5s156.834 108.5 261.501 108.5c74.667 0 138.334 -16.167 191.001 -48.5s93 -80.833 121 -145.5c19.333 -45.333 31.666 -106 36.999 -182l-156 -7
c-8 92 -30.333 157.5 -67 196.5s-84.334 58.5 -143.001 58.5c-56 0 -102.167 -20 -138.5 -60s-54.5 -96 -54.5 -168c0 -24.667 3 -56 9 -94c3.33301 -21.333 18.666 -97.666 45.999 -228.999h309v-124h-282c14 -85.333 21 -159.333 21 -222c0 -86.667 -12.667 -167 -38 -241
c89.333 -58.667 157.333 -97.334 204 -116.001s86.334 -28 119.001 -28c42.667 0 79.667 18 111 54s49 93 53 171h148c-6.66699 -88.667 -20.667 -156.667 -42 -204c-28 -62 -67.167 -108.5 -117.5 -139.5s-106.5 -46.5 -168.5 -46.5c-47.333 0 -95.5 10 -144.5 30
s-108.833 58.333 -179.5 115c-18 14 -32.333 24.667 -43 32c-82 -118 -173 -177 -273 -177c-58 0 -106 19.333 -144 58s-57 89 -57 151c0 63.333 21.167 115.666 63.5 156.999s96.833 62 163.5 62c24.667 0 48.667 -3 72 -9s63.666 -20.667 120.999 -44
c4 39.333 6 74.666 6 105.999c0 110.667 -14 207.667 -42 291h-312v124h287zM448.001 216.002c-73.333 44.667 -131.333 66.999 -174 66.999c-29.333 0 -54.333 -10.167 -75 -30.5s-31 -45.166 -31 -74.499c0 -27.333 9.5 -50 28.5 -68s44.167 -27 75.5 -27
c71.333 0 130 44.333 176 133z" />
    <glyph glyph-name="currency" unicode="&#xa4;" horiz-adv-x="1409" 
d="M960 1024l126.997 127.002l88 -90l-126 -127c60 -87.333 90 -178 90 -272c0 -50.667 -7.16699 -97 -21.5 -139s-37.166 -86 -68.499 -132l126 -126l-88 -89l-127 126c-46 -32 -90.167 -55.167 -132.5 -69.5s-89.166 -21.5 -140.499 -21.5s-98 7.16699 -140 21.5
s-86 37.166 -132 68.499l-126 -125l-90 89l127 125c-32 46 -55.167 90.167 -69.5 132.5s-21.5 88.833 -21.5 139.5c0 51.333 7.16699 98.166 21.5 140.499s37.5 86.5 69.5 132.5l-127 126l89 90l127 -126c44.667 30 89.667 52.5 135 67.5s91 22.5 137 22.5
c50 0 96.333 -7.16699 139 -21.5s87.334 -37.5 134.001 -69.5zM1012 663.002c0 89.333 -31.667 165.833 -95 229.5s-140 95.5 -230 95.5s-166.667 -31.833 -230 -95.5s-95 -140.167 -95 -229.5c0 -90 31.667 -166.833 95 -230.5s140 -95.5 230 -95.5
s166.667 31.833 230 95.5s95 140.5 95 230.5z" />
    <glyph glyph-name="yen" unicode="&#xa5;" horiz-adv-x="1237" 
d="M819 880h367v-132h-443l-51 -89v-175h494v-132h-494v-352h-147v352h-494v132h494v175l-52 89h-442v132h366l-366 636h163l404 -702l405 702h163z" />
    <glyph glyph-name="brokenbar" unicode="&#xa6;" horiz-adv-x="1087" 
d="M478 1516h132v-725h-132v725zM478 315h132v-724h-132v724z" />
    <glyph glyph-name="section" unicode="&#xa7;" horiz-adv-x="1067" 
d="M384 938c-83.333 56.667 -139.168 106.002 -167.501 148.002s-42.5 88.667 -42.5 140c0 86.667 33.833 161.5 101.5 224.5s158.5 94.5 272.5 94.5c75.333 0 139.833 -12.167 193.5 -36.5s97.167 -61.5 130.5 -111.5c24.667 -36 45.334 -87.667 62.001 -155l-153 -29
c-22 69.333 -53.167 119.666 -93.5 150.999s-91.166 47 -152.499 47c-64.667 0 -114.667 -15.667 -150 -47s-53 -70.333 -53 -117c0 -38 13 -72.333 39 -103c26 -31.333 94 -80.333 204 -147c167.333 -100.667 274.833 -182.834 322.5 -246.501s71.5 -136.5 71.5 -218.5
c0 -66 -18.333 -125.5 -55 -178.5s-107.667 -112.833 -213 -179.5c81.333 -55.333 136.333 -105 165 -149s43 -92.667 43 -146c0 -84 -34 -156.667 -102 -218s-161.667 -92 -281 -92c-105.333 0 -188.333 23.5 -249 70.5s-104.334 123.167 -131.001 228.5l151 33
c22 -69.333 54.167 -120 96.5 -152s94.5 -48 156.5 -48c63.333 0 112.833 15.833 148.5 47.5s53.5 70.5 53.5 116.5c0 37.333 -13 71 -39 101s-97 80.5 -213 151.5s-193.333 123.167 -232 156.5c-53.333 46 -92.833 93.833 -118.5 143.5s-38.5 103.167 -38.5 160.5
c0 67.333 19.5 128.5 58.5 183.5s110.5 113.833 214.5 176.5zM476.998 876.002c-87.333 -58 -147.5 -109.001 -180.5 -153.001s-49.5 -87.667 -49.5 -131c0 -107.333 119.333 -225.666 358 -354.999c94 64.667 155.167 116.834 183.5 156.501s42.5 80.5 42.5 122.5
c0 50 -20.5 99.167 -61.5 147.5s-138.5 119.166 -292.5 212.499z" />
    <glyph glyph-name="dieresis" unicode="&#xa8;" horiz-adv-x="682" 
d="M66 1382h144v-144h-144v144zM490 1382h146v-144h-146v144z" />
    <glyph glyph-name="copyright" unicode="&#xa9;" horiz-adv-x="1516" 
d="M758 1545c126.667 0 250.334 -32.5 371.001 -97.5s214.667 -158 282 -279s101 -247.167 101 -378.5c0 -130 -33.167 -254.833 -99.5 -374.5s-159.333 -212.834 -279 -279.501s-244.834 -100 -375.501 -100s-255.834 33.333 -375.501 100
s-212.834 159.834 -279.501 279.501s-100 244.5 -100 374.5c0 131.333 33.833 257.5 101.5 378.5s161.834 214 282.501 279s244.334 97.5 371.001 97.5zM758 1420c-106 0 -209.167 -27.167 -309.5 -81.5s-178.833 -132 -235.5 -233s-85 -206.167 -85 -315.5
c0 -108.667 27.833 -212.834 83.5 -312.501s133.5 -177.334 233.5 -233.001s204.333 -83.5 313 -83.5s213 27.833 313 83.5s177.667 133.334 233 233.001s83 203.834 83 312.501c0 109.333 -28.167 214.5 -84.5 315.5s-134.833 178.667 -235.5 233s-203.667 81.5 -309 81.5z
M1000 668l122.999 -36.001c-20 -83.333 -62.5 -149.833 -127.5 -199.5s-143.833 -74.5 -236.5 -74.5c-117.333 0 -212.666 38.167 -285.999 114.5s-110 181.5 -110 315.5c0 134.667 36.333 239.334 109 314.001s171 112 295 112c88.667 0 162.334 -21.167 221.001 -63.5
s98.667 -99.833 120 -172.5l-119 -29c-20 49.333 -49.5 87.333 -88.5 114s-84.833 40 -137.5 40c-76.667 0 -139.834 -27.5 -189.501 -82.5s-74.5 -133.5 -74.5 -235.5s23.5 -179.167 70.5 -231.5s107.833 -78.5 182.5 -78.5c60 0 112.667 17.333 158 52
s75.333 81.667 90 141z" />
    <glyph glyph-name="ordfeminine" unicode="&#xaa;" horiz-adv-x="768" 
d="M113 1416c85.333 86 182.333 129.001 291 129.001c80 0 141.667 -21.667 185 -65c42.667 -44 64 -102.667 64 -176v-322c0 -44 6.66699 -89.333 20 -136h-95c-5.33301 16.667 -12 53.667 -20 111c-44.667 -41.333 -89.334 -72.5 -134.001 -93.5s-89 -31.5 -133 -31.5
c-57.333 0 -104 17.667 -140 53s-54 79.666 -54 132.999c0 70 26.5 124 79.5 162s151.5 72.667 295.5 104c33.333 7.33301 62 14 86 20v43c0 35.333 -12.667 65.333 -38 90s-57.666 37 -96.999 37c-32 0 -65.167 -7.5 -99.5 -22.5s-81.833 -45.833 -142.5 -92.5zM558 1014
l0.000976562 221c-156.667 -34 -258.334 -70.667 -305.001 -110c-34.667 -29.333 -52 -64.333 -52 -105c0 -32 10.5 -57.667 31.5 -77s50.833 -29 89.5 -29c32 0 67.667 8.33301 107 25s82.333 41.667 129 75z" />
    <glyph glyph-name="guillemotleft" unicode="&#xab;" horiz-adv-x="961" 
d="M346 1075h164l-287 -539l287 -536h-164l-289 536zM759 1075h165l-288 -539l288 -536h-165l-285 536z" />
    <glyph glyph-name="logicalnot" unicode="&#xac;" horiz-adv-x="1366" 
d="M139 975h1088v-619h-130l-1 488h-957v131z" />
    <glyph glyph-name="sfthyphen" unicode="&#xad;" horiz-adv-x="641" 
d="M178 612h285v-148h-285v148z" />
    <glyph glyph-name="registered" unicode="&#xae;" horiz-adv-x="1516" 
d="M758 1545c126.667 0 250.334 -32.5 371.001 -97.5s214.667 -158 282 -279s101 -247.167 101 -378.5c0 -130 -33.167 -254.833 -99.5 -374.5s-159.333 -212.834 -279 -279.501s-244.834 -100 -375.501 -100s-255.834 33.333 -375.501 100
s-212.834 159.834 -279.501 279.501s-100 244.5 -100 374.5c0 131.333 33.833 257.5 101.5 378.5s161.834 214 282.501 279s244.334 97.5 371.001 97.5zM758 1420c-106 0 -209.167 -27.167 -309.5 -81.5s-178.833 -132 -235.5 -233s-85 -206.167 -85 -315.5
c0 -108.667 27.833 -212.834 83.5 -312.501s133.5 -177.334 233.5 -233.001s204.333 -83.5 313 -83.5s213 27.833 313 83.5s177.667 133.334 233 233.001s83 203.834 83 312.501c0 109.333 -28.167 214.5 -84.5 315.5s-134.833 178.667 -235.5 233s-203.667 81.5 -309 81.5z
M427 373v812h279c95.333 0 164.333 -7.5 207 -22.5s76.667 -41 102 -78s38 -76.833 38 -119.5c0 -59.333 -21.167 -111 -63.5 -155s-98.5 -68.667 -168.5 -74c28.667 -12 51.667 -26.333 69 -43c32.667 -32 72.667 -85.667 120 -161l99 -159h-160l-72 128
c-54.667 96.667 -96.667 157 -126 181s-68 36 -116 36h-77v-345h-131zM558 830h159c76 0 127.833 11.333 155.5 34s41.5 52.667 41.5 90c0 44 -18.667 76.667 -56 98c-26 15.333 -76.333 23 -151 23h-149v-245z" />
    <glyph glyph-name="macron" unicode="&#xaf;" horiz-adv-x="1024" 
d="M103 1685h1048v-102h-1048v102z" />
    <glyph glyph-name="degree" unicode="&#xb0;" horiz-adv-x="811" 
d="M128 1268c0 76.667 27.167 142 81.5 196s119.5 81 195.5 81c77.333 0 143 -27 197 -81s81 -119.333 81 -196s-27.167 -142.167 -81.5 -196.5s-119.833 -81.5 -196.5 -81.5c-76 0 -141.167 27.167 -195.5 81.5s-81.5 119.833 -81.5 196.5zM237 1268
c0 -46.667 16.5 -86.5 49.5 -119.5s72.833 -49.5 119.5 -49.5c46 0 85.5 16.5 118.5 49.5s49.5 72.833 49.5 119.5s-16.5 86.5 -49.5 119.5s-72.5 49.5 -118.5 49.5c-46.667 0 -86.5 -16.5 -119.5 -49.5s-49.5 -72.833 -49.5 -119.5z" />
    <glyph glyph-name="plusminus" unicode="&#xb1;" horiz-adv-x="1366" 
d="M138 894h477v480h131v-480h481v-131h-481v-477h-131v477h-477v131zM138 87h1089v-131h-1089v131z" />
    <glyph glyph-name="twosuperior" unicode="&#xb2;" horiz-adv-x="641" 
d="M86 1324c29.333 66.667 63.668 115.334 103.001 146.001s88 46 146 46c69.333 0 126.166 -21.333 170.499 -64s66.5 -94 66.5 -154c0 -49.333 -14.333 -93.333 -43 -132c-29.333 -39.333 -76.833 -78 -142.5 -116s-111 -71.5 -136 -100.5s-45.167 -67.167 -60.5 -114.5
h382v-101h-492v49c0 68 21.667 132.333 65 193c32.667 46 94 97.333 184 154c48.667 30.667 80.667 56.667 96 78c22 29.333 33 59 33 89c0 31.333 -11.5 58.666 -34.5 81.999s-49.833 35 -80.5 35c-33.333 0 -64 -10.667 -92 -32s-48.333 -51 -61 -89z" />
    <glyph glyph-name="threesuperior" unicode="&#xb3;" horiz-adv-x="641" 
d="M101 1408c41.333 39.333 80 67.167 116 83.5s75.333 24.5 118 24.5c64.667 0 116.667 -18.667 156 -56s59 -83.666 59 -138.999c0 -45.333 -15 -85.333 -45 -120s-76.333 -59.667 -139 -75c71.333 -14.667 122.166 -38.834 152.499 -72.501s45.5 -75.167 45.5 -124.5
c0 -60.667 -23.833 -112.5 -71.5 -155.5s-111.167 -64.5 -190.5 -64.5c-50.667 0 -95 9.5 -133 28.5s-75.333 49.833 -112 92.5l89 65c60 -55.333 116 -83 168 -83c40.667 0 73.834 12 99.501 36s38.5 52.333 38.5 85c0 39.333 -16.333 72.833 -49 100.5s-85 41.5 -157 41.5
h-31v96c78 0 135.167 13.833 171.5 41.5s54.5 58.5 54.5 92.5c0 30.667 -10.333 56.167 -31 76.5s-48 30.5 -82 30.5c-55.333 0 -104.333 -25 -147 -75z" />
    <glyph glyph-name="acute" unicode="&#xb4;" horiz-adv-x="682" 
d="M428 1471h259l-403 -310h-125z" />
    <glyph glyph-name="mu" unicode="&#xb5;" horiz-adv-x="1130" 
d="M994 1062l0.000976562 -1062h-161v126c-34.667 -53.333 -69 -90 -103 -110c-46.667 -27.333 -101 -41 -163 -41c-55.333 0 -104.333 11 -147 33c-32 16.667 -67.333 49.667 -106 99v-514h-178v1469h178v-450c0 -141.333 6 -238.5 18 -291.5s38.833 -96.667 80.5 -131
s90.5 -51.5 146.5 -51.5c56.667 0 107.167 16.5 151.5 49.5s73.166 74.667 86.499 125s20 149.166 20 296.499v453h177z" />
    <glyph glyph-name="paragraph" unicode="&#xb6;" horiz-adv-x="1323" 
d="M1267 1516l0.000976562 -138.999h-196v-1736h-127v1736h-267v-1736h-131v1033c-89.333 0 -166.333 15.167 -231 45.5s-117.167 79.5 -157.5 147.5s-60.5 144.667 -60.5 230c0 72 15 137.167 45 195.5s72.333 106.166 127 143.499c35.333 24 82.166 43.333 140.499 58
s113.833 22 166.5 22h691z" />
    <glyph glyph-name="cedilla" unicode="&#xb8;" horiz-adv-x="682" 
d="M265 23l102 -0.00195312l-36 -124c60 0 104.833 -12.667 134.5 -38s44.5 -57.666 44.5 -96.999c0 -46 -19.333 -83 -58 -111c-52 -38.667 -134.333 -58 -247 -58c-29.333 0 -65 3 -107 9l9 84c36.667 -3.33301 65 -5 85 -5c66 0 115 11.333 147 34
c22.667 16 34 35.333 34 58c0 20.667 -10.5 39.334 -31.5 56.001s-52.167 25 -93.5 25c-8.66699 0 -18.667 -0.333008 -30 -1z" />
    <glyph glyph-name="onesuperior" unicode="&#xb9;" horiz-adv-x="641" 
d="M333 1500h54.999v-660h93v-100h-289v100h90v530c-22 -8 -52 -13.667 -90 -17v95c38 5.33301 66.833 11.833 86.5 19.5s37.834 18.5 54.501 32.5z" />
    <glyph glyph-name="ordmasculine" unicode="&#xba;" horiz-adv-x="768" 
d="M406 833c-92 0 -167.832 32.166 -227.499 96.499s-89.5 150.833 -89.5 259.5c0 111.333 29 198.5 87 261.5s130.667 94.5 218 94.5c84 0 155.5 -32.5 214.5 -97.5s88.5 -152.833 88.5 -263.5c0 -107.333 -28.833 -192.666 -86.5 -255.999s-125.834 -95 -204.501 -95z
M391.001 912.999c59.333 0 109.668 24.1689 151.001 72.502s62 118.833 62 211.5c0 89.333 -20.333 157.166 -61 203.499s-91 69.5 -151 69.5c-58.667 0 -108.5 -23.833 -149.5 -71.5s-61.5 -116.834 -61.5 -207.501c0 -89.333 20.667 -158 62 -206s90.666 -72 147.999 -72z
" />
    <glyph glyph-name="guillemotright" unicode="&#xbb;" horiz-adv-x="961" 
d="M50 1075h165l287 -539l-287 -536h-165l288 536zM465 1075h165l287 -539l-287 -536h-165l288 536z" />
    <glyph glyph-name="onequarter" unicode="&#xbc;" horiz-adv-x="1921" 
d="M1388 1552l90 -44l-957 -1761l-86 49zM312 1543h113v-861h168v-115h-444v115h163v726c-20 -14 -40.833 -23.833 -62.5 -29.5s-55.167 -8.5 -100.5 -8.5v84c68 11.333 122.333 41 163 89zM1412 783h157v-687h198v-96h-198v-253h-113v253h-477v96zM1456 642l-344 -546h344
v546z" />
    <glyph glyph-name="onehalf" unicode="&#xbd;" horiz-adv-x="1921" 
d="M1345 1550l86 -47l-952 -1755l-88 50zM321 1541h113v-860h175v-114h-450v114h162v716c-46 -18 -100 -27 -162 -27v84c68 11.333 122 40.333 162 87zM1130 492c32 99.333 78.499 173.167 139.499 221.5s125.167 72.5 192.5 72.5c51.333 0 103.333 -13.333 156 -40
s92.667 -63 120 -109s41 -94 41 -144c0 -56 -17.333 -111 -52 -165c-24.667 -38 -76.667 -84.667 -156 -140c-107.333 -74.667 -184.333 -140 -231 -196c-34 -40.667 -57.333 -83 -70 -127h520v-117h-660c0 81.333 19.667 153 59 215
c54.667 87.333 155.334 189.666 302.001 306.999c65.333 52.667 108 95.334 128 128.001s30 66.667 30 102c0 48 -17 88.667 -51 122s-76.333 50 -127 50c-49.333 0 -94.5 -17.333 -135.5 -52s-72.167 -88.667 -93.5 -162z" />
    <glyph glyph-name="threequarters" unicode="&#xbe;" horiz-adv-x="1921" 
d="M1422 1549l90 -49l-957 -1753l-88 44zM150 1399c46.667 49.333 93.333 86.001 140 110.001s98 36 154 36c78 0 143.5 -25.333 196.5 -76s79.5 -110.334 79.5 -179.001c0 -61.333 -24 -111.333 -72 -150c-28 -22.667 -72.333 -39 -133 -49
c52.667 -10 90.667 -22.333 114 -37c35.333 -20.667 64 -49.834 86 -87.501s33 -78.167 33 -121.5c0 -74 -30.667 -139.333 -92 -196s-137.333 -85 -228 -85c-63.333 0 -119.5 14.833 -168.5 44.5s-96.167 76.834 -141.5 141.501l89 68c72.667 -93.333 150 -140 232 -140
c53.333 0 98.666 17.833 135.999 53.5s56 76.167 56 121.5c0 44 -18.333 83.333 -55 118s-83.667 52 -141 52h-139l30 115h59c62 0 115.667 19.333 161 58c34.667 29.333 52 64.333 52 105c0 32.667 -14.667 62 -44 88s-67.666 39 -114.999 39
c-36.667 0 -70.667 -8.16699 -102 -24.5s-66 -44.5 -104 -84.5zM1449 783.001h163v-688h193v-101h-193v-247h-114v253h-476v95zM1498 642.001l-343 -547h343v547z" />
    <glyph glyph-name="questiondown" unicode="&#xbf;" horiz-adv-x="854" 
d="M365 1090h199v-229h-199v229zM414 622h132.998c0 -130 -9.16699 -221.167 -27.5 -273.5s-58.833 -112.833 -121.5 -181.5c-98.667 -109.333 -148 -205 -148 -287c0 -50 17.167 -93.167 51.5 -129.5s74.5 -54.5 120.5 -54.5c78 0 148.333 50.667 211 152l134 -76
c-54 -80 -112.667 -138.333 -176 -175s-125.333 -55 -186 -55c-85.333 0 -158.833 31.5 -220.5 94.5s-92.5 139.833 -92.5 230.5c0 118.667 62 247.667 186 387c58.667 65.333 95.834 118.5 111.501 159.5s23.834 110.5 24.501 208.5z" />
    <glyph glyph-name="Agrave" unicode="&#xc0;" horiz-adv-x="1300" 
d="M536 1516h236l486 -1516h-148l-153 470h-611l-153 -470h-149zM654 1416l-261 -799h517zM314 1870h263l266 -312h-128z" />
    <glyph glyph-name="Aacute" unicode="&#xc1;" horiz-adv-x="1300" 
d="M536 1516h236l486 -1516h-148l-153 470h-611l-153 -470h-149zM654 1416l-261 -799h517zM737 1868h259l-403 -310h-125z" />
    <glyph glyph-name="Acircumflex" unicode="&#xc2;" horiz-adv-x="1300" 
d="M536 1516h236l486 -1516h-148l-153 470h-611l-153 -470h-149zM654 1416l-261 -799h517zM971 1579h-91l-218 179l-221 -179h-92l254 320h125z" />
    <glyph glyph-name="Atilde" unicode="&#xc3;" horiz-adv-x="1300" 
d="M536 1516h236l486 -1516h-148l-153 470h-611l-153 -470h-149zM654 1416l-261 -799h517zM355 1615c1.33301 88 18.833 152.167 52.5 192.5s74.5 60.5 122.5 60.5c44 0 100 -22 168 -66c44.667 -28.667 77 -43 97 -43c19.333 0 36.333 6.83301 51 20.5s29 43.167 43 88.5
h82c-3.33301 -85.333 -23 -149.333 -59 -192s-77.333 -64 -124 -64c-42.667 0 -97.334 21 -164.001 63c-43.333 27.333 -74.666 41 -93.999 41c-18 0 -33.833 -6.33301 -47.5 -19s-26.5 -40 -38.5 -82h-89z" />
    <glyph glyph-name="Adieresis" unicode="&#xc4;" horiz-adv-x="1300" 
d="M536 1516h236l486 -1516h-148l-153 470h-611l-153 -470h-149zM654 1416l-261 -799h517zM375 1779h144v-144h-144v144zM799 1779h146v-144h-146v144z" />
    <glyph glyph-name="Aring" unicode="&#xc5;" horiz-adv-x="1300" 
d="M536 1516h236l486 -1516h-148l-153 470h-611l-153 -470h-149zM654 1416l-261 -799h517zM662 1558c-53.333 0 -98.166 18.167 -134.499 54.5s-54.5 79.833 -54.5 130.5c0 51.333 18.167 95.166 54.5 131.499s80.166 54.5 131.499 54.5
c50.667 0 94.167 -18.167 130.5 -54.5s54.5 -80.166 54.5 -131.499c0 -50.667 -18 -94.167 -54 -130.5s-78.667 -54.5 -128 -54.5zM655 1618c36 0 66.335 12.167 91.002 36.5s37 53.833 37 88.5s-12.333 64.334 -37 89.001s-54.334 37 -89.001 37s-64.167 -12.333 -88.5 -37
s-36.5 -54.334 -36.5 -89.001c0 -34 12.167 -63.333 36.5 -88s53.166 -37 86.499 -37z" />
    <glyph glyph-name="AE" unicode="&#xc6;" horiz-adv-x="1878" 
d="M725 1516h986v-146h-667v-491h494v-147h-494v-583h739v-149h-885v470h-489l-211 -470h-152zM812 1370l-337 -753h423v753h-86z" />
    <glyph glyph-name="Ccedilla" unicode="&#xc7;" horiz-adv-x="1386" 
d="M1311 451c-25.333 -96 -59.3291 -174 -101.996 -234c-56 -79.333 -125.667 -140.333 -209 -183s-171.666 -64 -264.999 -64c-112.667 0 -215.5 30.833 -308.5 92.5s-167.167 153.167 -222.5 274.5s-83 263 -83 425c0 144.667 25.167 280 75.5 406
s122.166 220.333 215.499 283s197.666 94 312.999 94c101.333 0 189.666 -19.167 264.999 -57.5s142 -97.833 200 -178.5c42.667 -59.333 75.667 -134.666 99 -225.999l-158 -25c-32 118 -82.667 206 -152 264s-150 87 -242 87c-124.667 0 -227 -48.333 -307 -145
c-96.667 -116.667 -145 -282 -145 -496c0 -220.667 49 -391.334 147 -512.001c81.333 -99.333 182.666 -149 303.999 -149c74 0 140.833 17.333 200.5 52s109.167 83.667 148.5 147c25.333 40.667 47.666 99 66.999 175zM617.004 23l102 -0.00195312l-36 -124
c60 0 104.833 -12.667 134.5 -38s44.5 -57.666 44.5 -96.999c0 -46 -19.333 -83 -58 -111c-52 -38.667 -134.333 -58 -247 -58c-29.333 0 -65 3 -107 9l9 84c36.667 -3.33301 65 -5 85 -5c66 0 115 11.333 147 34c22.667 16 34 35.333 34 58
c0 20.667 -10.5 39.334 -31.5 56.001s-52.167 25 -93.5 25c-8.66699 0 -18.667 -0.333008 -30 -1z" />
    <glyph glyph-name="Egrave" unicode="&#xc8;" 
d="M221 1516h893v-144h-746v-495h555v-146h-555v-585h818v-146h-965v1516zM304 1870h263l266 -312h-128z" />
    <glyph glyph-name="Eacute" unicode="&#xc9;" 
d="M221 1516h893v-144h-746v-495h555v-146h-555v-585h818v-146h-965v1516zM727 1868h259l-403 -310h-125z" />
    <glyph glyph-name="Ecircumflex" unicode="&#xca;" 
d="M221 1516h893v-144h-746v-495h555v-146h-555v-585h818v-146h-965v1516zM961 1579h-91l-218 179l-221 -179h-92l254 320h125z" />
    <glyph glyph-name="Edieresis" unicode="&#xcb;" 
d="M221 1516h893v-144h-746v-495h555v-146h-555v-585h818v-146h-965v1516zM365 1779h144v-144h-144v144zM789 1779h146v-144h-146v144z" />
    <glyph glyph-name="Igrave" unicode="&#xcc;" horiz-adv-x="662" 
d="M257 1516h147v-1516h-147v1516zM-5 1870h263l266 -312h-128z" />
    <glyph glyph-name="Iacute" unicode="&#xcd;" horiz-adv-x="662" 
d="M257 1516h147v-1516h-147v1516zM418 1868h259l-403 -310h-125z" />
    <glyph glyph-name="Icircumflex" unicode="&#xce;" horiz-adv-x="662" 
d="M257 1516h147v-1516h-147v1516zM652 1579h-91l-218 179l-221 -179h-92l254 320h125z" />
    <glyph glyph-name="Idieresis" unicode="&#xcf;" horiz-adv-x="662" 
d="M257 1516h147v-1516h-147v1516zM56 1779h144v-144h-144v144zM480 1779h146v-144h-146v144z" />
    <glyph glyph-name="Eth" unicode="&#xd0;" horiz-adv-x="1493" 
d="M219 827l0.000976562 689h435c220.667 0 395.167 -65.667 523.5 -197s192.5 -313.666 192.5 -546.999c0 -119.333 -15.667 -229 -47 -329c-23.333 -75.333 -56.333 -140.333 -99 -195s-91 -100.334 -145 -137.001c-38.667 -26 -85.334 -48.333 -140.001 -67
c-88 -29.333 -200.333 -44 -337 -44h-383v701h-172v126h172zM365.001 827h323v-126h-323v-567h320c126.667 0 238.334 40.667 335.001 122c122.667 102 184 269 184 501c0 236.667 -63 407 -189 511c-92.667 77.333 -210.334 116 -353.001 116h-297v-557z" />
    <glyph glyph-name="Ntilde" unicode="&#xd1;" horiz-adv-x="1556" 
d="M216 1516h230l750 -1239v1239h146v-1516h-146l-833 1384v-1384h-147v1516zM483 1615c1.33301 88 18.833 152.167 52.5 192.5s74.5 60.5 122.5 60.5c44 0 100 -22 168 -66c44.667 -28.667 77 -43 97 -43c19.333 0 36.333 6.83301 51 20.5s29 43.167 43 88.5h82
c-3.33301 -85.333 -23 -149.333 -59 -192s-77.333 -64 -124 -64c-42.667 0 -97.334 21 -164.001 63c-43.333 27.333 -74.666 41 -93.999 41c-18 0 -33.833 -6.33301 -47.5 -19s-26.5 -40 -38.5 -82h-89z" />
    <glyph glyph-name="Ograve" unicode="&#xd2;" horiz-adv-x="1493" 
d="M752 -30c-175.333 0 -319.999 64.002 -433.999 192.002c-133.333 150.667 -200 345 -200 583c0 150.667 26.833 290.334 80.5 419.001s130 224.334 229 287.001s207.5 94 325.5 94c102.667 0 193.667 -22.833 273 -68.5s144.5 -105 195.5 -178
s89.5 -155.833 115.5 -248.5s39 -191.334 39 -296.001c0 -114.667 -14 -214.834 -42 -300.501s-61.833 -157.334 -101.5 -215.001s-79.834 -103.167 -120.501 -136.5c-53.333 -44.667 -113.5 -77.834 -180.5 -99.501s-126.833 -32.5 -179.5 -32.5zM737.001 107.002
c130.667 0 242.499 54.5 335.499 163.5s139.5 268.167 139.5 477.5c0 221.333 -51 394.666 -153 519.999c-80 97.333 -184.333 146 -313 146c-125.333 0 -233.666 -55.167 -324.999 -165.5s-137 -275.166 -137 -494.499c0 -216 45 -377.833 135 -485.5
s196 -161.5 318 -161.5zM411 1870h263l266 -312h-128z" />
    <glyph glyph-name="Oacute" unicode="&#xd3;" horiz-adv-x="1493" 
d="M752 -30c-175.333 0 -319.999 64.002 -433.999 192.002c-133.333 150.667 -200 345 -200 583c0 150.667 26.833 290.334 80.5 419.001s130 224.334 229 287.001s207.5 94 325.5 94c102.667 0 193.667 -22.833 273 -68.5s144.5 -105 195.5 -178
s89.5 -155.833 115.5 -248.5s39 -191.334 39 -296.001c0 -114.667 -14 -214.834 -42 -300.501s-61.833 -157.334 -101.5 -215.001s-79.834 -103.167 -120.501 -136.5c-53.333 -44.667 -113.5 -77.834 -180.5 -99.501s-126.833 -32.5 -179.5 -32.5zM737.001 107.002
c130.667 0 242.499 54.5 335.499 163.5s139.5 268.167 139.5 477.5c0 221.333 -51 394.666 -153 519.999c-80 97.333 -184.333 146 -313 146c-125.333 0 -233.666 -55.167 -324.999 -165.5s-137 -275.166 -137 -494.499c0 -216 45 -377.833 135 -485.5
s196 -161.5 318 -161.5zM834 1868h259l-403 -310h-125z" />
    <glyph glyph-name="Ocircumflex" unicode="&#xd4;" horiz-adv-x="1493" 
d="M752 -30c-175.333 0 -319.999 64.002 -433.999 192.002c-133.333 150.667 -200 345 -200 583c0 150.667 26.833 290.334 80.5 419.001s130 224.334 229 287.001s207.5 94 325.5 94c102.667 0 193.667 -22.833 273 -68.5s144.5 -105 195.5 -178
s89.5 -155.833 115.5 -248.5s39 -191.334 39 -296.001c0 -114.667 -14 -214.834 -42 -300.501s-61.833 -157.334 -101.5 -215.001s-79.834 -103.167 -120.501 -136.5c-53.333 -44.667 -113.5 -77.834 -180.5 -99.501s-126.833 -32.5 -179.5 -32.5zM737.001 107.002
c130.667 0 242.499 54.5 335.499 163.5s139.5 268.167 139.5 477.5c0 221.333 -51 394.666 -153 519.999c-80 97.333 -184.333 146 -313 146c-125.333 0 -233.666 -55.167 -324.999 -165.5s-137 -275.166 -137 -494.499c0 -216 45 -377.833 135 -485.5
s196 -161.5 318 -161.5zM1068 1579h-91l-218 179l-221 -179h-92l254 320h125z" />
    <glyph glyph-name="Otilde" unicode="&#xd5;" horiz-adv-x="1493" 
d="M752 -30c-175.333 0 -319.999 64.002 -433.999 192.002c-133.333 150.667 -200 345 -200 583c0 150.667 26.833 290.334 80.5 419.001s130 224.334 229 287.001s207.5 94 325.5 94c102.667 0 193.667 -22.833 273 -68.5s144.5 -105 195.5 -178
s89.5 -155.833 115.5 -248.5s39 -191.334 39 -296.001c0 -114.667 -14 -214.834 -42 -300.501s-61.833 -157.334 -101.5 -215.001s-79.834 -103.167 -120.501 -136.5c-53.333 -44.667 -113.5 -77.834 -180.5 -99.501s-126.833 -32.5 -179.5 -32.5zM737.001 107.002
c130.667 0 242.499 54.5 335.499 163.5s139.5 268.167 139.5 477.5c0 221.333 -51 394.666 -153 519.999c-80 97.333 -184.333 146 -313 146c-125.333 0 -233.666 -55.167 -324.999 -165.5s-137 -275.166 -137 -494.499c0 -216 45 -377.833 135 -485.5
s196 -161.5 318 -161.5zM452 1615c1.33301 88 18.833 152.167 52.5 192.5s74.5 60.5 122.5 60.5c44 0 100 -22 168 -66c44.667 -28.667 77 -43 97 -43c19.333 0 36.333 6.83301 51 20.5s29 43.167 43 88.5h82c-3.33301 -85.333 -23 -149.333 -59 -192s-77.333 -64 -124 -64
c-42.667 0 -97.334 21 -164.001 63c-43.333 27.333 -74.666 41 -93.999 41c-18 0 -33.833 -6.33301 -47.5 -19s-26.5 -40 -38.5 -82h-89z" />
    <glyph glyph-name="Odieresis" unicode="&#xd6;" horiz-adv-x="1493" 
d="M752 -30c-175.333 0 -319.999 64.002 -433.999 192.002c-133.333 150.667 -200 345 -200 583c0 150.667 26.833 290.334 80.5 419.001s130 224.334 229 287.001s207.5 94 325.5 94c102.667 0 193.667 -22.833 273 -68.5s144.5 -105 195.5 -178
s89.5 -155.833 115.5 -248.5s39 -191.334 39 -296.001c0 -114.667 -14 -214.834 -42 -300.501s-61.833 -157.334 -101.5 -215.001s-79.834 -103.167 -120.501 -136.5c-53.333 -44.667 -113.5 -77.834 -180.5 -99.501s-126.833 -32.5 -179.5 -32.5zM737.001 107.002
c130.667 0 242.499 54.5 335.499 163.5s139.5 268.167 139.5 477.5c0 221.333 -51 394.666 -153 519.999c-80 97.333 -184.333 146 -313 146c-125.333 0 -233.666 -55.167 -324.999 -165.5s-137 -275.166 -137 -494.499c0 -216 45 -377.833 135 -485.5
s196 -161.5 318 -161.5zM472 1779h144v-144h-144v144zM896 1779h146v-144h-146v144z" />
    <glyph glyph-name="multiply" unicode="&#xd7;" horiz-adv-x="1366" 
d="M184 1070l92 93l408 -409l408 409l93 -93l-408 -409l404 -404l-93 -93l-403 405l-407 -405l-92 93l406 404z" />
    <glyph glyph-name="Oslash" unicode="&#xd8;" horiz-adv-x="1493" 
d="M1254 1247c81.333 -139.333 122 -303.667 122 -493c0 -138 -22.333 -261.5 -67 -370.5s-102 -195.5 -172 -259.5s-149.667 -107.667 -239 -131c-60.667 -15.333 -117.667 -23 -171 -23c-67.333 0 -137.166 15.5 -209.499 46.5s-140.5 81.5 -204.5 151.5l-167 -191l-83 70
l184 211c-86 133.333 -129 295.333 -129 486c0 150.667 26.667 290.5 80 419.5s129.666 224.833 228.999 287.5s208 94 326 94c170 0 315.333 -68.333 436 -205l181 207l83 -72zM352 378.999l737.999 846.999c-46 63.333 -95.833 110.5 -149.5 141.5
s-118.5 46.5 -194.5 46.5c-125.333 0 -233.666 -55.167 -324.999 -165.5s-137 -275.166 -137 -494.499c0 -144 22.667 -269 68 -375zM1145 1122l-735 -842c93.333 -115.333 204.666 -173 333.999 -173c126.667 0 236.334 54.667 329.001 164s139 268.333 139 477
c0 133.333 -22.333 258 -67 374z" />
    <glyph glyph-name="Ugrave" unicode="&#xd9;" horiz-adv-x="1516" 
d="M205 1516h146v-992c0 -124.667 35.5 -223 106.5 -295s167.5 -108 289.5 -108c96 0 174.167 16.5 234.5 49.5s105.5 81.333 135.5 145s45 133.167 45 208.5v992h148v-992c0 -169.333 -49.5 -304 -148.5 -404s-231.167 -150 -396.5 -150c-133.333 0 -243.5 28 -330.5 84
s-147 126.833 -180 212.5s-49.5 164.5 -49.5 236.5v1013zM422 1870h263l266 -312h-128z" />
    <glyph glyph-name="Uacute" unicode="&#xda;" horiz-adv-x="1516" 
d="M205 1516h146v-992c0 -124.667 35.5 -223 106.5 -295s167.5 -108 289.5 -108c96 0 174.167 16.5 234.5 49.5s105.5 81.333 135.5 145s45 133.167 45 208.5v992h148v-992c0 -169.333 -49.5 -304 -148.5 -404s-231.167 -150 -396.5 -150c-133.333 0 -243.5 28 -330.5 84
s-147 126.833 -180 212.5s-49.5 164.5 -49.5 236.5v1013zM845 1868h259l-403 -310h-125z" />
    <glyph glyph-name="Ucircumflex" unicode="&#xdb;" horiz-adv-x="1516" 
d="M205 1516h146v-992c0 -124.667 35.5 -223 106.5 -295s167.5 -108 289.5 -108c96 0 174.167 16.5 234.5 49.5s105.5 81.333 135.5 145s45 133.167 45 208.5v992h148v-992c0 -169.333 -49.5 -304 -148.5 -404s-231.167 -150 -396.5 -150c-133.333 0 -243.5 28 -330.5 84
s-147 126.833 -180 212.5s-49.5 164.5 -49.5 236.5v1013zM1079 1579h-91l-218 179l-221 -179h-92l254 320h125z" />
    <glyph glyph-name="Udieresis" unicode="&#xdc;" horiz-adv-x="1516" 
d="M205 1516h146v-992c0 -124.667 35.5 -223 106.5 -295s167.5 -108 289.5 -108c96 0 174.167 16.5 234.5 49.5s105.5 81.333 135.5 145s45 133.167 45 208.5v992h148v-992c0 -169.333 -49.5 -304 -148.5 -404s-231.167 -150 -396.5 -150c-133.333 0 -243.5 28 -330.5 84
s-147 126.833 -180 212.5s-49.5 164.5 -49.5 236.5v1013zM483 1779h144v-144h-144v144zM907 1779h146v-144h-146v144z" />
    <glyph glyph-name="Yacute" unicode="&#xdd;" horiz-adv-x="1237" 
d="M51 1516h162l405 -702l406 702h162l-494 -857v-659h-147v659zM706 1868h259l-403 -310h-125z" />
    <glyph glyph-name="Thorn" unicode="&#xde;" horiz-adv-x="1386" 
d="M221 1516l146 0.000976562v-342h356c142.667 0 262 -30 358 -90c122.667 -76.667 184 -183 184 -319c0 -124.667 -51.5 -226.334 -154.5 -305.001s-243.5 -118 -421.5 -118h-322v-342h-146v1516zM367 1043l-0.000976562 -569.001h313
c148.667 0 255.834 26.333 321.501 79s98.5 121 98.5 205c0 84.667 -32.167 153.334 -96.5 206.001s-176.5 79 -336.5 79h-300z" />
    <glyph glyph-name="germandbls" unicode="&#xdf;" horiz-adv-x="1323" 
d="M247 0l-0.00195312 1010c0 147.333 25.333 259.333 76 336c74.667 113.333 203 170 385 170c136.667 0 243.834 -35.167 321.501 -105.5s116.5 -153.833 116.5 -250.5c0 -64.667 -20.167 -124.5 -60.5 -179.5s-97.166 -96.833 -170.499 -125.5
c60 -26.667 106 -53.334 138 -80.001c48 -40.667 86.333 -91 115 -151s43 -128.667 43 -206c0 -130.667 -37.167 -236.667 -111.5 -318s-161.5 -122 -261.5 -122c-67.333 0 -125.333 18.667 -174 56s-93 98 -133 182l120 53c27.333 -59.333 55.333 -101.166 84 -125.499
s61.667 -36.5 99 -36.5c54.667 0 104.5 27.5 149.5 82.5s67.5 133.5 67.5 235.5c0 84.667 -16.667 154.834 -50 210.501s-82 96.834 -146 123.501c-45.333 18 -106 28.333 -182 31v130c110 0 191.167 22.5 243.5 67.5s78.5 101.167 78.5 168.5c0 63.333 -24.667 117 -74 161
s-119 66 -209 66c-55.333 0 -103.833 -7.5 -145.5 -22.5s-75.167 -36.5 -100.5 -64.5c-19.333 -22 -35 -51 -47 -87c-16.667 -51.333 -25 -102.666 -25 -153.999v-1055h-147z" />
    <glyph glyph-name="agrave" unicode="&#xe0;" horiz-adv-x="1153" 
d="M137 889c68.667 71.333 143.002 123.835 223.002 157.502s158.333 50.5 235 50.5c88.667 0 164.167 -19.667 226.5 -59s105.5 -88 129.5 -146c18 -44.667 27 -104.334 27 -179.001v-456c0 -90.667 10.333 -176.334 31 -257.001h-149c-18 63.333 -27.667 123.333 -29 180
c-66.667 -67.333 -134.5 -117.833 -203.5 -151.5s-139.5 -50.5 -211.5 -50.5c-91.333 0 -165 27.5 -221 82.5s-84 124.167 -84 207.5c0 68 21.667 131.667 65 191s110.666 106 201.999 140c66.667 24.667 217.667 62.667 453 114v67c0 56.667 -19.833 104 -59.5 142
s-89.834 57 -150.501 57c-54.667 0 -111.5 -13.5 -170.5 -40.5s-127.833 -73.833 -206.5 -140.5zM831.002 264.002l-0.00195312 342c-162 -38.667 -268.667 -67 -320 -85c-82 -28 -142.167 -64.167 -180.5 -108.5s-57.5 -91.5 -57.5 -141.5
c0 -47.333 16.5 -86.5 49.5 -117.5s77.167 -46.5 132.5 -46.5c52.667 0 110.334 13.167 173.001 39.5s130.334 65.5 203.001 117.5zM241 1473h263l266 -312h-128z" />
    <glyph glyph-name="aacute" unicode="&#xe1;" horiz-adv-x="1153" 
d="M137 889c68.667 71.333 143.002 123.835 223.002 157.502s158.333 50.5 235 50.5c88.667 0 164.167 -19.667 226.5 -59s105.5 -88 129.5 -146c18 -44.667 27 -104.334 27 -179.001v-456c0 -90.667 10.333 -176.334 31 -257.001h-149c-18 63.333 -27.667 123.333 -29 180
c-66.667 -67.333 -134.5 -117.833 -203.5 -151.5s-139.5 -50.5 -211.5 -50.5c-91.333 0 -165 27.5 -221 82.5s-84 124.167 -84 207.5c0 68 21.667 131.667 65 191s110.666 106 201.999 140c66.667 24.667 217.667 62.667 453 114v67c0 56.667 -19.833 104 -59.5 142
s-89.834 57 -150.501 57c-54.667 0 -111.5 -13.5 -170.5 -40.5s-127.833 -73.833 -206.5 -140.5zM831.002 264.002l-0.00195312 342c-162 -38.667 -268.667 -67 -320 -85c-82 -28 -142.167 -64.167 -180.5 -108.5s-57.5 -91.5 -57.5 -141.5
c0 -47.333 16.5 -86.5 49.5 -117.5s77.167 -46.5 132.5 -46.5c52.667 0 110.334 13.167 173.001 39.5s130.334 65.5 203.001 117.5zM664 1471h259l-403 -310h-125z" />
    <glyph glyph-name="acircumflex" unicode="&#xe2;" horiz-adv-x="1153" 
d="M137 889c68.667 71.333 143.002 123.835 223.002 157.502s158.333 50.5 235 50.5c88.667 0 164.167 -19.667 226.5 -59s105.5 -88 129.5 -146c18 -44.667 27 -104.334 27 -179.001v-456c0 -90.667 10.333 -176.334 31 -257.001h-149c-18 63.333 -27.667 123.333 -29 180
c-66.667 -67.333 -134.5 -117.833 -203.5 -151.5s-139.5 -50.5 -211.5 -50.5c-91.333 0 -165 27.5 -221 82.5s-84 124.167 -84 207.5c0 68 21.667 131.667 65 191s110.666 106 201.999 140c66.667 24.667 217.667 62.667 453 114v67c0 56.667 -19.833 104 -59.5 142
s-89.834 57 -150.501 57c-54.667 0 -111.5 -13.5 -170.5 -40.5s-127.833 -73.833 -206.5 -140.5zM831.002 264.002l-0.00195312 342c-162 -38.667 -268.667 -67 -320 -85c-82 -28 -142.167 -64.167 -180.5 -108.5s-57.5 -91.5 -57.5 -141.5
c0 -47.333 16.5 -86.5 49.5 -117.5s77.167 -46.5 132.5 -46.5c52.667 0 110.334 13.167 173.001 39.5s130.334 65.5 203.001 117.5zM898 1182h-91l-218 179l-221 -179h-92l254 320h125z" />
    <glyph glyph-name="atilde" unicode="&#xe3;" horiz-adv-x="1153" 
d="M137 889c68.667 71.333 143.002 123.835 223.002 157.502s158.333 50.5 235 50.5c88.667 0 164.167 -19.667 226.5 -59s105.5 -88 129.5 -146c18 -44.667 27 -104.334 27 -179.001v-456c0 -90.667 10.333 -176.334 31 -257.001h-149c-18 63.333 -27.667 123.333 -29 180
c-66.667 -67.333 -134.5 -117.833 -203.5 -151.5s-139.5 -50.5 -211.5 -50.5c-91.333 0 -165 27.5 -221 82.5s-84 124.167 -84 207.5c0 68 21.667 131.667 65 191s110.666 106 201.999 140c66.667 24.667 217.667 62.667 453 114v67c0 56.667 -19.833 104 -59.5 142
s-89.834 57 -150.501 57c-54.667 0 -111.5 -13.5 -170.5 -40.5s-127.833 -73.833 -206.5 -140.5zM831.002 264.002l-0.00195312 342c-162 -38.667 -268.667 -67 -320 -85c-82 -28 -142.167 -64.167 -180.5 -108.5s-57.5 -91.5 -57.5 -141.5
c0 -47.333 16.5 -86.5 49.5 -117.5s77.167 -46.5 132.5 -46.5c52.667 0 110.334 13.167 173.001 39.5s130.334 65.5 203.001 117.5zM282 1218c1.33301 88 18.833 152.167 52.5 192.5s74.5 60.5 122.5 60.5c44 0 100 -22 168 -66c44.667 -28.667 77 -43 97 -43
c19.333 0 36.333 6.83301 51 20.5s29 43.167 43 88.5h82c-3.33301 -85.333 -23 -149.333 -59 -192s-77.333 -64 -124 -64c-42.667 0 -97.334 21 -164.001 63c-43.333 27.333 -74.666 41 -93.999 41c-18 0 -33.833 -6.33301 -47.5 -19s-26.5 -40 -38.5 -82h-89z" />
    <glyph glyph-name="adieresis" unicode="&#xe4;" horiz-adv-x="1153" 
d="M137 889c68.667 71.333 143.002 123.835 223.002 157.502s158.333 50.5 235 50.5c88.667 0 164.167 -19.667 226.5 -59s105.5 -88 129.5 -146c18 -44.667 27 -104.334 27 -179.001v-456c0 -90.667 10.333 -176.334 31 -257.001h-149c-18 63.333 -27.667 123.333 -29 180
c-66.667 -67.333 -134.5 -117.833 -203.5 -151.5s-139.5 -50.5 -211.5 -50.5c-91.333 0 -165 27.5 -221 82.5s-84 124.167 -84 207.5c0 68 21.667 131.667 65 191s110.666 106 201.999 140c66.667 24.667 217.667 62.667 453 114v67c0 56.667 -19.833 104 -59.5 142
s-89.834 57 -150.501 57c-54.667 0 -111.5 -13.5 -170.5 -40.5s-127.833 -73.833 -206.5 -140.5zM831.002 264.002l-0.00195312 342c-162 -38.667 -268.667 -67 -320 -85c-82 -28 -142.167 -64.167 -180.5 -108.5s-57.5 -91.5 -57.5 -141.5
c0 -47.333 16.5 -86.5 49.5 -117.5s77.167 -46.5 132.5 -46.5c52.667 0 110.334 13.167 173.001 39.5s130.334 65.5 203.001 117.5zM302 1382h144v-144h-144v144zM726 1382h146v-144h-146v144z" />
    <glyph glyph-name="aring" unicode="&#xe5;" horiz-adv-x="1153" 
d="M137 889c68.667 71.333 143.002 123.835 223.002 157.502s158.333 50.5 235 50.5c88.667 0 164.167 -19.667 226.5 -59s105.5 -88 129.5 -146c18 -44.667 27 -104.334 27 -179.001v-456c0 -90.667 10.333 -176.334 31 -257.001h-149c-18 63.333 -27.667 123.333 -29 180
c-66.667 -67.333 -134.5 -117.833 -203.5 -151.5s-139.5 -50.5 -211.5 -50.5c-91.333 0 -165 27.5 -221 82.5s-84 124.167 -84 207.5c0 68 21.667 131.667 65 191s110.666 106 201.999 140c66.667 24.667 217.667 62.667 453 114v67c0 56.667 -19.833 104 -59.5 142
s-89.834 57 -150.501 57c-54.667 0 -111.5 -13.5 -170.5 -40.5s-127.833 -73.833 -206.5 -140.5zM831.002 264.002l-0.00195312 342c-162 -38.667 -268.667 -67 -320 -85c-82 -28 -142.167 -64.167 -180.5 -108.5s-57.5 -91.5 -57.5 -141.5
c0 -47.333 16.5 -86.5 49.5 -117.5s77.167 -46.5 132.5 -46.5c52.667 0 110.334 13.167 173.001 39.5s130.334 65.5 203.001 117.5zM589 1161c-53.333 0 -98.166 18.167 -134.499 54.5s-54.5 79.833 -54.5 130.5c0 51.333 18.167 95.166 54.5 131.499
s80.166 54.5 131.499 54.5c50.667 0 94.167 -18.167 130.5 -54.5s54.5 -80.166 54.5 -131.499c0 -50.667 -18 -94.167 -54 -130.5s-78.667 -54.5 -128 -54.5zM582 1221c36 0 66.335 12.167 91.002 36.5s37 53.833 37 88.5s-12.333 64.334 -37 89.001s-54.334 37 -89.001 37
s-64.167 -12.333 -88.5 -37s-36.5 -54.334 -36.5 -89.001c0 -34 12.167 -63.333 36.5 -88s53.166 -37 86.499 -37z" />
    <glyph glyph-name="ae" unicode="&#xe6;" horiz-adv-x="1855" 
d="M944 933c105.333 109.333 223.662 164 354.995 164c75.333 0 150.333 -23.167 225 -69.5s130.334 -110.333 167.001 -192s56 -186.5 58 -314.5h-764c2.66699 -80 14.334 -145.667 35.001 -197c28.667 -74 67.334 -128.667 116.001 -164s98.667 -53 150 -53
c133.333 0 250.333 70.333 351 211l124 -78c-64 -89.333 -138 -155.333 -222 -198s-167 -64 -249 -64c-152 0 -284.333 67.667 -397 203c-90 -74 -171.5 -126.333 -244.5 -157s-146.167 -46 -219.5 -46c-98 0 -175.667 26.5 -233 79.5s-86 118.5 -86 196.5
c0 107.333 54.333 195 163 263s297.334 129 566.001 183c0 55.333 -5.33301 98 -16 128c-17.333 47.333 -45.666 84 -84.999 110s-89.666 39 -150.999 39c-138 0 -246.333 -63.667 -325 -191l-120 76c30 46 59 81.667 87 107c41.333 37.333 92 68 152 92s125.333 36 196 36
c75.333 0 142.166 -13.667 200.499 -41s113.833 -68.333 166.5 -123zM1595 651c-10.667 102.667 -44.833 182.667 -102.5 240s-123.167 86 -196.5 86c-76 0 -142.5 -28 -199.5 -84s-91.833 -136.667 -104.5 -242h603zM838.997 599
c-266 -66 -434.999 -128.334 -506.999 -187.001c-44.667 -36.667 -67 -82 -67 -136c0 -43.333 20.333 -83.166 61 -119.499s90 -54.5 148 -54.5c85.333 0 181.666 35 288.999 105c50.667 33.333 76 63 76 89v303z" />
    <glyph glyph-name="ccedilla" unicode="&#xe7;" horiz-adv-x="1087" 
d="M998 261c-48.667 -87.333 -101.999 -152.666 -159.999 -195.999c-77.333 -58 -164.333 -87 -261 -87c-84 0 -162.833 22.667 -236.5 68s-130.667 111 -171 197s-60.5 184.667 -60.5 296c0 171.333 45.833 307.166 137.5 407.499s202.167 150.5 331.5 150.5
c87.333 0 166.666 -23 237.999 -69s132 -115 182 -207l-127 -69c-40.667 75.333 -84.667 131.5 -132 168.5s-101.666 55.5 -162.999 55.5c-87.333 0 -162.833 -37.333 -226.5 -112s-95.5 -186 -95.5 -334c0 -130.667 32.167 -234 96.5 -310s138.166 -114 221.499 -114
c126 0 225.667 75 299 225zM468.001 23l102 -0.00195312l-36 -124c60 0 104.833 -12.667 134.5 -38s44.5 -57.666 44.5 -96.999c0 -46 -19.333 -83 -58 -111c-52 -38.667 -134.333 -58 -247 -58c-29.333 0 -65 3 -107 9l9 84c36.667 -3.33301 65 -5 85 -5
c66 0 115 11.333 147 34c22.667 16 34 35.333 34 58c0 20.667 -10.5 39.334 -31.5 56.001s-52.167 25 -93.5 25c-8.66699 0 -18.667 -0.333008 -30 -1z" />
    <glyph glyph-name="egrave" unicode="&#xe8;" horiz-adv-x="1110" 
d="M1015 241c-66 -88.667 -136.332 -154.667 -210.999 -198s-152 -65 -232 -65c-126.667 0 -235.334 49.833 -326.001 149.5s-136 238.5 -136 416.5c0 171.333 44.833 306.333 134.5 405s194.5 148 314.5 148c80 0 157 -23.5 231 -70.5s129.5 -110.5 166.5 -190.5
s56.5 -184 58.5 -312h-759c3.33301 -85.333 16.333 -155.333 39 -210c30 -72 70.333 -124.5 121 -157.5s99.667 -49.5 147 -49.5c118.667 0 229.667 72.667 333 218zM863.001 655c-10.667 101.333 -45.168 180.833 -103.501 238.5s-124.166 86.5 -197.499 86.5
c-89.333 0 -160.833 -34.167 -214.5 -102.5s-82.167 -142.5 -85.5 -222.5h601zM219 1473h263l266 -312h-128z" />
    <glyph glyph-name="eacute" unicode="&#xe9;" horiz-adv-x="1110" 
d="M1015 241c-66 -88.667 -136.332 -154.667 -210.999 -198s-152 -65 -232 -65c-126.667 0 -235.334 49.833 -326.001 149.5s-136 238.5 -136 416.5c0 171.333 44.833 306.333 134.5 405s194.5 148 314.5 148c80 0 157 -23.5 231 -70.5s129.5 -110.5 166.5 -190.5
s56.5 -184 58.5 -312h-759c3.33301 -85.333 16.333 -155.333 39 -210c30 -72 70.333 -124.5 121 -157.5s99.667 -49.5 147 -49.5c118.667 0 229.667 72.667 333 218zM863.001 655c-10.667 101.333 -45.168 180.833 -103.501 238.5s-124.166 86.5 -197.499 86.5
c-89.333 0 -160.833 -34.167 -214.5 -102.5s-82.167 -142.5 -85.5 -222.5h601zM642 1471h259l-403 -310h-125z" />
    <glyph glyph-name="ecircumflex" unicode="&#xea;" horiz-adv-x="1110" 
d="M1015 241c-66 -88.667 -136.332 -154.667 -210.999 -198s-152 -65 -232 -65c-126.667 0 -235.334 49.833 -326.001 149.5s-136 238.5 -136 416.5c0 171.333 44.833 306.333 134.5 405s194.5 148 314.5 148c80 0 157 -23.5 231 -70.5s129.5 -110.5 166.5 -190.5
s56.5 -184 58.5 -312h-759c3.33301 -85.333 16.333 -155.333 39 -210c30 -72 70.333 -124.5 121 -157.5s99.667 -49.5 147 -49.5c118.667 0 229.667 72.667 333 218zM863.001 655c-10.667 101.333 -45.168 180.833 -103.501 238.5s-124.166 86.5 -197.499 86.5
c-89.333 0 -160.833 -34.167 -214.5 -102.5s-82.167 -142.5 -85.5 -222.5h601zM876 1182h-91l-218 179l-221 -179h-92l254 320h125z" />
    <glyph glyph-name="edieresis" unicode="&#xeb;" horiz-adv-x="1110" 
d="M1015 241c-66 -88.667 -136.332 -154.667 -210.999 -198s-152 -65 -232 -65c-126.667 0 -235.334 49.833 -326.001 149.5s-136 238.5 -136 416.5c0 171.333 44.833 306.333 134.5 405s194.5 148 314.5 148c80 0 157 -23.5 231 -70.5s129.5 -110.5 166.5 -190.5
s56.5 -184 58.5 -312h-759c3.33301 -85.333 16.333 -155.333 39 -210c30 -72 70.333 -124.5 121 -157.5s99.667 -49.5 147 -49.5c118.667 0 229.667 72.667 333 218zM863.001 655c-10.667 101.333 -45.168 180.833 -103.501 238.5s-124.166 86.5 -197.499 86.5
c-89.333 0 -160.833 -34.167 -214.5 -102.5s-82.167 -142.5 -85.5 -222.5h601zM280 1382h144v-144h-144v144zM704 1382h146v-144h-146v144z" />
    <glyph glyph-name="igrave" unicode="&#xec;" horiz-adv-x="575" 
d="M215 1075h146v-1075h-146v1075zM-49 1473h263l266 -312h-128z" />
    <glyph glyph-name="iacute" unicode="&#xed;" horiz-adv-x="575" 
d="M215 1075h146v-1075h-146v1075zM374 1471h259l-403 -310h-125z" />
    <glyph glyph-name="icircumflex" unicode="&#xee;" horiz-adv-x="575" 
d="M215 1075h146v-1075h-146v1075zM608 1182h-91l-218 179l-221 -179h-92l254 320h125z" />
    <glyph glyph-name="idieresis" unicode="&#xef;" horiz-adv-x="575" 
d="M215 1075h146v-1075h-146v1075zM12 1382h144v-144h-144v144zM436 1382h146v-144h-146v144z" />
    <glyph glyph-name="eth" unicode="&#xf0;" horiz-adv-x="1174" 
d="M495 1516l125.001 -0.000976562l95 -93l153 93l44 -71l-141 -85c100 -115.333 172.667 -241.666 218 -378.999s68 -276 68 -416c0 -108 -17.833 -208 -53.5 -300s-90.167 -162.833 -163.5 -212.5s-156 -74.5 -248 -74.5c-134 0 -246.833 49.833 -338.5 149.5
s-137.5 236.167 -137.5 409.5c0 172.667 45.5 309.167 136.5 409.5s201.5 150.5 331.5 150.5c40.667 0 78.167 -4.83301 112.5 -14.5s77.166 -28.167 128.499 -55.5c-40.667 108 -87.667 200.667 -141 278l-199 -124l-43 70l193 121c-47.333 54 -94 102 -140 144z
M588.001 106.999c88 0 163.667 37.167 227 111.5s95 182.833 95 325.5c0 138.667 -31.5 245 -94.5 319s-137.5 111 -223.5 111c-92.667 0 -171.5 -37 -236.5 -111s-97.5 -181.333 -97.5 -322s32 -248.167 96 -322.5s142 -111.5 234 -111.5z" />
    <glyph glyph-name="ntilde" unicode="&#xf1;" horiz-adv-x="1217" 
d="M336 951c78.667 46.667 154.833 82.667 228.5 108s133.5 38 179.5 38c51.333 0 98.833 -10.833 142.5 -32.5s81.5 -59 113.5 -112s48 -118.833 48 -197.5v-755h-146v744c0 74 -16.333 129 -49 165s-77 54 -133 54c-51.333 0 -109 -11 -173 -33
s-134.333 -55.333 -211 -100v-830h-146v1075h146v-124zM313.999 1218c1.33301 88 18.833 152.167 52.5 192.5s74.5 60.5 122.5 60.5c44 0 100 -22 168 -66c44.667 -28.667 77 -43 97 -43c19.333 0 36.333 6.83301 51 20.5s29 43.167 43 88.5h82
c-3.33301 -85.333 -23 -149.333 -59 -192s-77.333 -64 -124 -64c-42.667 0 -97.334 21 -164.001 63c-43.333 27.333 -74.666 41 -93.999 41c-18 0 -33.833 -6.33301 -47.5 -19s-26.5 -40 -38.5 -82h-89z" />
    <glyph glyph-name="ograve" unicode="&#xf2;" horiz-adv-x="1174" 
d="M601 -22c-138 0 -253.999 50.334 -347.999 151.001s-141 236 -141 406c0 113.333 20.833 213.833 62.5 301.5s99.834 153 174.501 196s154 64.5 238 64.5c81.333 0 159.166 -22.167 233.499 -66.5s133.166 -111.333 176.499 -201s65 -189.834 65 -300.501
c0 -168.667 -45.667 -302.667 -137 -402s-199.333 -149 -324 -149zM588.001 102.001c88 0 164.499 38.001 229.499 114.001s97.5 185 97.5 327c0 140 -31.667 246.667 -95 320s-139.666 110 -228.999 110c-94.667 0 -174.167 -37.333 -238.5 -112
s-96.5 -181.334 -96.5 -320.001c0 -142 32.333 -250.667 97 -326s143 -113 235 -113zM251 1473h263l266 -312h-128z" />
    <glyph glyph-name="oacute" unicode="&#xf3;" horiz-adv-x="1174" 
d="M601 -22c-138 0 -253.999 50.334 -347.999 151.001s-141 236 -141 406c0 113.333 20.833 213.833 62.5 301.5s99.834 153 174.501 196s154 64.5 238 64.5c81.333 0 159.166 -22.167 233.499 -66.5s133.166 -111.333 176.499 -201s65 -189.834 65 -300.501
c0 -168.667 -45.667 -302.667 -137 -402s-199.333 -149 -324 -149zM588.001 102.001c88 0 164.499 38.001 229.499 114.001s97.5 185 97.5 327c0 140 -31.667 246.667 -95 320s-139.666 110 -228.999 110c-94.667 0 -174.167 -37.333 -238.5 -112
s-96.5 -181.334 -96.5 -320.001c0 -142 32.333 -250.667 97 -326s143 -113 235 -113zM674 1471h259l-403 -310h-125z" />
    <glyph glyph-name="ocircumflex" unicode="&#xf4;" horiz-adv-x="1174" 
d="M601 -22c-138 0 -253.999 50.334 -347.999 151.001s-141 236 -141 406c0 113.333 20.833 213.833 62.5 301.5s99.834 153 174.501 196s154 64.5 238 64.5c81.333 0 159.166 -22.167 233.499 -66.5s133.166 -111.333 176.499 -201s65 -189.834 65 -300.501
c0 -168.667 -45.667 -302.667 -137 -402s-199.333 -149 -324 -149zM588.001 102.001c88 0 164.499 38.001 229.499 114.001s97.5 185 97.5 327c0 140 -31.667 246.667 -95 320s-139.666 110 -228.999 110c-94.667 0 -174.167 -37.333 -238.5 -112
s-96.5 -181.334 -96.5 -320.001c0 -142 32.333 -250.667 97 -326s143 -113 235 -113zM908 1182h-91l-218 179l-221 -179h-92l254 320h125z" />
    <glyph glyph-name="otilde" unicode="&#xf5;" horiz-adv-x="1174" 
d="M601 -22c-138 0 -253.999 50.334 -347.999 151.001s-141 236 -141 406c0 113.333 20.833 213.833 62.5 301.5s99.834 153 174.501 196s154 64.5 238 64.5c81.333 0 159.166 -22.167 233.499 -66.5s133.166 -111.333 176.499 -201s65 -189.834 65 -300.501
c0 -168.667 -45.667 -302.667 -137 -402s-199.333 -149 -324 -149zM588.001 102.001c88 0 164.499 38.001 229.499 114.001s97.5 185 97.5 327c0 140 -31.667 246.667 -95 320s-139.666 110 -228.999 110c-94.667 0 -174.167 -37.333 -238.5 -112
s-96.5 -181.334 -96.5 -320.001c0 -142 32.333 -250.667 97 -326s143 -113 235 -113zM292 1218c1.33301 88 18.833 152.167 52.5 192.5s74.5 60.5 122.5 60.5c44 0 100 -22 168 -66c44.667 -28.667 77 -43 97 -43c19.333 0 36.333 6.83301 51 20.5s29 43.167 43 88.5h82
c-3.33301 -85.333 -23 -149.333 -59 -192s-77.333 -64 -124 -64c-42.667 0 -97.334 21 -164.001 63c-43.333 27.333 -74.666 41 -93.999 41c-18 0 -33.833 -6.33301 -47.5 -19s-26.5 -40 -38.5 -82h-89z" />
    <glyph glyph-name="odieresis" unicode="&#xf6;" horiz-adv-x="1174" 
d="M601 -22c-138 0 -253.999 50.334 -347.999 151.001s-141 236 -141 406c0 113.333 20.833 213.833 62.5 301.5s99.834 153 174.501 196s154 64.5 238 64.5c81.333 0 159.166 -22.167 233.499 -66.5s133.166 -111.333 176.499 -201s65 -189.834 65 -300.501
c0 -168.667 -45.667 -302.667 -137 -402s-199.333 -149 -324 -149zM588.001 102.001c88 0 164.499 38.001 229.499 114.001s97.5 185 97.5 327c0 140 -31.667 246.667 -95 320s-139.666 110 -228.999 110c-94.667 0 -174.167 -37.333 -238.5 -112
s-96.5 -181.334 -96.5 -320.001c0 -142 32.333 -250.667 97 -326s143 -113 235 -113zM312 1382h144v-144h-144v144zM736 1382h146v-144h-146v144z" />
    <glyph glyph-name="divide" unicode="&#xf7;" horiz-adv-x="1366" 
d="M764 1079c0 -22.667 -8.16699 -42.334 -24.5 -59.001s-36.166 -25 -59.499 -25s-43.166 8.33301 -59.499 25s-24.5 36.334 -24.5 59.001c0 23.333 8.16699 43.333 24.5 60s36.166 25 59.499 25s43.166 -8.33301 59.499 -25s24.5 -36.667 24.5 -60zM139 725h1088v-126
h-1088v126zM766 253c0 -23.333 -8.33301 -43.333 -25 -60s-36.667 -25 -60 -25s-43.333 8.33301 -60 25s-25 36.667 -25 60s8.33301 43.333 25 60s36.667 25 60 25s43.333 -8.33301 60 -25s25 -36.667 25 -60z" />
    <glyph glyph-name="oslash" unicode="&#xf8;" horiz-adv-x="1174" 
d="M958 899c68.667 -116.667 103 -239.666 103 -368.999c0 -170 -45.833 -304.5 -137.5 -403.5s-202.5 -148.5 -332.5 -148.5c-110.667 0 -212.667 39.333 -306 118l-123 -147h-124l183 218c-73.333 94 -110 215 -110 363c0 179.333 45.333 318.666 136 417.999
s203.667 149 339 149c114.667 0 218.667 -41.667 312 -125l136 162h121zM313 277.001l499.999 594c-32.667 36 -66.167 62 -100.5 78s-75.166 24 -122.499 24c-94 0 -173.167 -37.333 -237.5 -112s-96.5 -180.667 -96.5 -318c0 -101.333 19 -190 57 -266zM865.999 789.001
l-497.002 -592.999c56.667 -62.667 130.334 -94 221.001 -94c86.667 0 162.334 38 227.001 114s97 184.667 97 326c0 91.333 -16 173.666 -48 246.999z" />
    <glyph glyph-name="ugrave" unicode="&#xf9;" horiz-adv-x="1217" 
d="M169 1075l145.999 0.00195312v-705c0 -78 19.167 -139 57.5 -183s83.833 -66 136.5 -66c47.333 0 99 12.833 155 38.5s127 74.167 213 145.5v770h147v-1075h-147v173c-81.333 -64.667 -155.666 -113.334 -222.999 -146.001s-128 -49 -182 -49
c-52 0 -100.833 11.833 -146.5 35.5s-83.167 62.667 -112.5 117s-44 125.166 -44 212.499v732zM272.999 1473h263l266 -312h-128z" />
    <glyph glyph-name="uacute" unicode="&#xfa;" horiz-adv-x="1217" 
d="M169 1075l145.999 0.00195312v-705c0 -78 19.167 -139 57.5 -183s83.833 -66 136.5 -66c47.333 0 99 12.833 155 38.5s127 74.167 213 145.5v770h147v-1075h-147v173c-81.333 -64.667 -155.666 -113.334 -222.999 -146.001s-128 -49 -182 -49
c-52 0 -100.833 11.833 -146.5 35.5s-83.167 62.667 -112.5 117s-44 125.166 -44 212.499v732zM695.999 1471h259l-403 -310h-125z" />
    <glyph glyph-name="ucircumflex" unicode="&#xfb;" horiz-adv-x="1217" 
d="M169 1075l145.999 0.00195312v-705c0 -78 19.167 -139 57.5 -183s83.833 -66 136.5 -66c47.333 0 99 12.833 155 38.5s127 74.167 213 145.5v770h147v-1075h-147v173c-81.333 -64.667 -155.666 -113.334 -222.999 -146.001s-128 -49 -182 -49
c-52 0 -100.833 11.833 -146.5 35.5s-83.167 62.667 -112.5 117s-44 125.166 -44 212.499v732zM929.999 1182h-91l-218 179l-221 -179h-92l254 320h125z" />
    <glyph glyph-name="udieresis" unicode="&#xfc;" horiz-adv-x="1217" 
d="M169 1075l145.999 0.00195312v-705c0 -78 19.167 -139 57.5 -183s83.833 -66 136.5 -66c47.333 0 99 12.833 155 38.5s127 74.167 213 145.5v770h147v-1075h-147v173c-81.333 -64.667 -155.666 -113.334 -222.999 -146.001s-128 -49 -182 -49
c-52 0 -100.833 11.833 -146.5 35.5s-83.167 62.667 -112.5 117s-44 125.166 -44 212.499v732zM333.999 1382h144v-144h-144v144zM757.999 1382h146v-144h-146v144z" />
    <glyph glyph-name="yacute" unicode="&#xfd;" horiz-adv-x="1044" 
d="M50 1075h150.002l333 -878l332 878h151l-432 -1144c-42.667 -112 -74.5 -184.167 -95.5 -216.5s-46.5 -59.333 -76.5 -81s-66.833 -38.667 -110.5 -51s-93.167 -18.5 -148.5 -18.5c-40 0 -86.667 5.66699 -140 17l37 139c39.333 -7.33301 73.666 -11 102.999 -11
c80.667 0 140.167 14.833 178.5 44.5s74.166 95.167 107.499 196.5c6.66699 19.333 12.667 36 18 50zM609.002 1471h259l-403 -310h-125z" />
    <glyph glyph-name="thorn" unicode="&#xfe;" horiz-adv-x="1260" 
d="M339 941c66.667 55.333 128.832 95.166 186.499 119.499s117.167 36.5 178.5 36.5c123.333 0 228.833 -49.667 316.5 -149s131.5 -237 131.5 -413c0 -146.667 -33 -269 -99 -367c-85.333 -126.667 -201.666 -190 -348.999 -190c-62.667 0 -121.667 11.833 -177 35.5
s-118 65.834 -188 126.501v-549h-146v1925h146v-575zM338.998 811l-0.00195312 -542.001c74.667 -59.333 138 -100.166 190 -122.499s104.333 -33.5 157 -33.5c112.667 0 194.334 42.333 245.001 127s76 186 76 304c0 138.667 -31.167 244.5 -93.5 317.5
s-136.166 109.5 -221.499 109.5c-56 0 -113.333 -13.333 -172 -40s-119 -66.667 -181 -120z" />
    <glyph glyph-name="ydieresis" unicode="&#xff;" horiz-adv-x="1044" 
d="M50 1075h150.002l333 -878l332 878h151l-432 -1144c-42.667 -112 -74.5 -184.167 -95.5 -216.5s-46.5 -59.333 -76.5 -81s-66.833 -38.667 -110.5 -51s-93.167 -18.5 -148.5 -18.5c-40 0 -86.667 5.66699 -140 17l37 139c39.333 -7.33301 73.666 -11 102.999 -11
c80.667 0 140.167 14.833 178.5 44.5s74.166 95.167 107.499 196.5c6.66699 19.333 12.667 36 18 50zM247.002 1382h144v-144h-144v144zM671.002 1382h146v-144h-146v144z" />
    <glyph glyph-name="dotlessi" unicode="&#x131;" horiz-adv-x="575" 
d="M215 1075h146v-1075h-146v1075z" />
    <glyph glyph-name="OE" unicode="&#x152;" horiz-adv-x="1962" 
d="M1065 178c-50 -63.333 -108 -110.833 -174 -142.5s-140 -47.5 -222 -47.5c-182 0 -325.333 81.333 -430 244c-82 128.667 -123 307 -123 535c0 254 58.667 451.333 176 592c98 117.333 222.667 176 374 176c82.667 0 157.167 -16 223.5 -48s124.833 -80.333 175.5 -145
v174h771v-145h-622v-490h442v-147h-442v-584h657v-150h-806v178zM662 155c125.333 0 224 51.1699 296 153.503s108 252.166 108 449.499c0 209.333 -36.667 363.666 -110 462.999s-166.333 149 -279 149c-72 0 -132 -15.667 -180 -47
c-68.667 -45.333 -122 -113.5 -160 -204.5s-57 -210.833 -57 -359.5c0 -210.667 41.667 -369.334 125 -476.001c67.333 -85.333 153 -128 257 -128z" />
    <glyph glyph-name="oe" unicode="&#x153;" horiz-adv-x="1898" 
d="M975 835c44.667 88.667 102.002 154.5 172.002 197.5s143 64.5 219 64.5c66.667 0 128.334 -15.667 185.001 -47s104.167 -73.333 142.5 -126s65.833 -110.834 82.5 -174.501s26 -140.5 28 -230.5h-751c3.33301 -80.667 15.666 -147 36.999 -199
c30 -74.667 70.167 -129.334 120.5 -164.001s100.166 -52 149.499 -52c48.667 0 102 17.333 160 52s111.667 90 161 166l116 -88c-134 -170.667 -279.333 -256 -436 -256c-84 0 -157 23.167 -219 69.5s-117.667 111.5 -167 195.5
c-34.667 -59.333 -66.334 -103.666 -95.001 -132.999c-41.333 -43.333 -86.666 -76.166 -135.999 -98.499s-105.666 -33.5 -168.999 -33.5c-127.333 0 -236.333 49.667 -327 149s-136 234.666 -136 405.999c0 176.667 45.5 314.834 136.5 414.501s204.5 149.5 340.5 149.5
c69.333 0 130.666 -13.167 183.999 -39.5s97.666 -60.5 132.999 -102.5c23.333 -28 46.333 -68 69 -120zM1652 649c-12.667 107.333 -46.8311 188.333 -102.498 243s-120.834 82 -195.501 82c-78 0 -145.833 -30.333 -203.5 -91s-87.834 -138.667 -90.501 -234h592z
M579.005 105c89.333 0 166.334 38.167 231.001 114.5s97 185.833 97 328.5c0 138.667 -31.333 244.334 -94 317.001s-138 109 -226 109c-90 0 -167.333 -37.167 -232 -111.5s-97 -182.833 -97 -325.5c0 -138.667 32.167 -245.334 96.5 -320.001s139.166 -112 224.499 -112z
" />
    <glyph glyph-name="Scaron" unicode="&#x160;" horiz-adv-x="1323" 
d="M275 425c16.667 -60 35.332 -106.332 55.999 -138.999c34.667 -54 80.334 -97.167 137.001 -129.5s125.334 -48.5 206.001 -48.5c112.667 0 201.167 28.833 265.5 86.5s96.5 126.167 96.5 205.5c0 72 -29 133.333 -87 184c-44.667 38 -134.667 76.333 -270 115
c-182.667 52.667 -313 113.667 -391 183c-78 68.667 -117 153.667 -117 255c0 111.333 43.5 207.166 130.5 287.499s201.167 120.5 342.5 120.5c86 0 167 -16 243 -48s139.667 -79.667 191 -143c35.333 -44 63.333 -101.333 84 -172l-153 -47c-26 90 -70.833 159 -134.5 207
s-139.834 72 -228.501 72c-94 0 -169.667 -25.667 -227 -77s-86 -112 -86 -182c0 -57.333 23.333 -109.333 70 -156c46 -46.667 147.333 -92.667 304 -138c186 -53.333 314.333 -115 385 -185c70 -70.667 105 -159.667 105 -267c0 -121.333 -47.667 -224.833 -143 -310.5
s-222 -128.5 -380 -128.5c-98.667 0 -189 19.5 -271 58.5s-148.667 93.167 -200 162.5c-35.333 46.667 -64 110.667 -86 192zM360.998 1899h91l218 -180l221 180h92l-254 -320h-125z" />
    <glyph glyph-name="scaron" unicode="&#x161;" horiz-adv-x="1044" 
d="M206 623c-52.667 55.333 -78.999 117 -78.999 185c0 78.667 32.333 146.5 97 203.5s154.667 85.5 270 85.5c76.667 0 149.167 -14 217.5 -42s126.5 -69.333 174.5 -124l-111 -93c-41.333 47.333 -84 82.166 -128 104.499s-94.333 33.5 -151 33.5
c-72.667 0 -127.834 -15.667 -165.501 -47s-56.5 -67.666 -56.5 -108.999c0 -35.333 14.667 -67 44 -95c28.667 -28 96 -55.667 202 -83c163.333 -42 273.333 -93 330 -153s85 -126 85 -198c0 -86 -33.833 -159.667 -101.5 -221s-159.834 -92 -276.501 -92
c-85.333 0 -164 16 -236 48s-148 85.333 -228 160l125 88c60 -60 116.333 -102.833 169 -128.5s108.334 -38.5 167.001 -38.5c74.667 0 132.5 17.833 173.5 53.5s61.5 77.5 61.5 125.5c0 40 -15.333 74.333 -46 103c-43.333 40.667 -130.333 78 -261 112
c-80.667 21.333 -147.667 45 -201 71c-26.667 12.667 -51.667 29.667 -75 51zM221.001 1502h91l218 -180l221 180h92l-254 -320h-125z" />
    <glyph glyph-name="Ydieresis" unicode="&#x178;" horiz-adv-x="1237" 
d="M51 1516h162l405 -702l406 702h162l-494 -857v-659h-147v659zM344 1779h144v-144h-144v144zM768 1779h146v-144h-146v144z" />
    <glyph glyph-name="florin" unicode="&#x192;" horiz-adv-x="1130" 
d="M731 1116l223.999 -0.000976562l-22 -92h-221l-248 -1141c-21.333 -99.333 -53.333 -167.5 -96 -204.5s-102.334 -55.5 -179.001 -55.5c-49.333 0 -109 10.333 -179 31l22 100c58.667 -14.667 107.334 -22 146.001 -22c41.333 0 73.333 8 96 24s39.334 37.667 50.001 65
c2 6.66699 19.667 84.334 53 233.001l209 970h-169l20 92h168l25 106c24 101.333 45 169.333 63 204s46.667 63.167 86 85.5s85.666 33.5 138.999 33.5c36.667 0 97.334 -10.667 182.001 -32l-21 -98c-55.333 12.667 -106.333 19 -153 19c-43.333 0 -77 -11.667 -101 -35
s-47 -81 -69 -173z" />
    <glyph glyph-name="circumflex" unicode="&#x2c6;" horiz-adv-x="682" 
d="M662 1182h-91l-218 179l-221 -179h-92l254 320h125z" />
    <glyph glyph-name="caron" unicode="&#x2c7;" horiz-adv-x="682" 
d="M40 1502h91l218 -180l221 180h92l-254 -320h-125z" />
    <glyph glyph-name="uni02C9" unicode="&#x2c9;" horiz-adv-x="682" 
d="M37 1416h633v-147h-633v147z" />
    <glyph glyph-name="breve" unicode="&#x2d8;" horiz-adv-x="682" 
d="M36 1471h98c22 -36 50.833 -63.167 86.5 -81.5s78.167 -27.5 127.5 -27.5c48.667 0 90.5 9.16699 125.5 27.5s63.167 45.5 84.5 81.5h100c-25.333 -81.333 -66.5 -144.333 -123.5 -189s-119.833 -67 -188.5 -67c-78 0 -147 27.667 -207 83
c-42.667 40 -77 97.667 -103 173z" />
    <glyph glyph-name="dotaccent" unicode="&#x2d9;" horiz-adv-x="682" 
d="M249 1431h168v-194h-168v194z" />
    <glyph glyph-name="ring" unicode="&#x2da;" horiz-adv-x="682" 
d="M353 1161c-53.333 0 -98.166 18.167 -134.499 54.5s-54.5 79.833 -54.5 130.5c0 51.333 18.167 95.166 54.5 131.499s80.166 54.5 131.499 54.5c50.667 0 94.167 -18.167 130.5 -54.5s54.5 -80.166 54.5 -131.499c0 -50.667 -18 -94.167 -54 -130.5
s-78.667 -54.5 -128 -54.5zM346 1221c36 0 66.335 12.167 91.002 36.5s37 53.833 37 88.5s-12.333 64.334 -37 89.001s-54.334 37 -89.001 37s-64.167 -12.333 -88.5 -37s-36.5 -54.334 -36.5 -89.001c0 -34 12.167 -63.333 36.5 -88s53.166 -37 86.499 -37z" />
    <glyph glyph-name="ogonek" unicode="&#x2db;" horiz-adv-x="682" 
d="M216 24l124 -0.00195312c-25.333 -59.333 -38 -114.666 -38 -165.999c0 -43.333 13.5 -79.166 40.5 -107.499s60.5 -42.5 100.5 -42.5c52.667 0 109.334 15.333 170.001 46v-119c-78.667 -44 -153.334 -66 -224.001 -66c-62 0 -113.167 20.167 -153.5 60.5
s-60.5 94.5 -60.5 162.5c0 58 13.667 135.333 41 232z" />
    <glyph glyph-name="tilde" unicode="&#x2dc;" horiz-adv-x="682" 
d="M46 1218c1.33301 88 18.833 152.167 52.5 192.5s74.5 60.5 122.5 60.5c44 0 100 -22 168 -66c44.667 -28.667 77 -43 97 -43c19.333 0 36.333 6.83301 51 20.5s29 43.167 43 88.5h82c-3.33301 -85.333 -23 -149.333 -59 -192s-77.333 -64 -124 -64
c-42.667 0 -97.334 21 -164.001 63c-43.333 27.333 -74.666 41 -93.999 41c-18 0 -33.833 -6.33301 -47.5 -19s-26.5 -40 -38.5 -82h-89z" />
    <glyph glyph-name="hungarumlaut" unicode="&#x2dd;" horiz-adv-x="682" 
d="M344 1471h259l-403 -310h-125zM677 1471h259l-403 -310h-125z" />
    <glyph glyph-name="pi" unicode="&#x3c0;" horiz-adv-x="1124" 
d="M0 1063h1124v-158h-162v-905h-189v905h-426v-905h-188v905h-159v158z" />
    <glyph glyph-name="endash" unicode="&#x2013;" horiz-adv-x="1024" 
d="M-11 584h1057v-129h-1057v129z" />
    <glyph glyph-name="emdash" unicode="&#x2014;" horiz-adv-x="2048" 
d="M-18 584h2085v-129h-2085v129z" />
    <glyph glyph-name="quoteleft" unicode="&#x2018;" horiz-adv-x="641" 
d="M373 1516h85l-135 -301h96v-222h-198v222z" />
    <glyph glyph-name="quoteright" unicode="&#x2019;" horiz-adv-x="641" 
d="M221 1516h197v-222l-151 -302h-83l131 302h-94v222z" />
    <glyph glyph-name="quotesinglbase" unicode="&#x201a;" horiz-adv-x="641" 
d="M223 230h196v-230l-150 -302h-83l133 302h-96v230z" />
    <glyph glyph-name="quotedblleft" unicode="&#x201c;" horiz-adv-x="961" 
d="M353 1516h82l-134 -296h91v-224h-191v224zM720 1516h83l-136 -296h95v-224h-190v224z" />
    <glyph glyph-name="quotedblright" unicode="&#x201d;" horiz-adv-x="961" 
d="M209 1516h190v-218l-150 -302h-83l136 302h-93v218zM576 1516h192v-218l-152 -302h-82l136 302h-94v218z" />
    <glyph glyph-name="quotedblbase" unicode="&#x201e;" horiz-adv-x="961" 
d="M192 230h196v-230l-150 -302h-83l133 302h-96v230zM595 230h196v-230l-150 -302h-83l133 302h-96v230z" />
    <glyph glyph-name="dagger" unicode="&#x2020;" horiz-adv-x="1067" 
d="M464 1516h151l-34 -549l412 32v-150l-412 31l46 -1289h-178l48 1289l-411 -31v150l411 -32z" />
    <glyph glyph-name="daggerdbl" unicode="&#x2021;" horiz-adv-x="1067" 
d="M468 1516h149l-32 -496l392 31v-151l-392 32l21 -372l-21 -385l392 32v-149l-392 32l32 -499h-149l33 499l-390 -32v149l390 -32l-21 385l21 372l-390 -32v151l390 -31z" />
    <glyph glyph-name="bullet" unicode="&#x2022;" horiz-adv-x="725" 
d="M109 718c0 70 24.833 129.667 74.5 179s109.167 74 178.5 74c70 0 129.833 -24.667 179.5 -74s74.5 -109 74.5 -179s-24.833 -129.833 -74.5 -179.5s-109.5 -74.5 -179.5 -74.5c-69.333 0 -128.833 24.833 -178.5 74.5s-74.5 109.5 -74.5 179.5z" />
    <glyph glyph-name="ellipsis" unicode="&#x2026;" horiz-adv-x="1921" 
d="M236 228h198v-228h-198v228zM872 228h198v-228h-198v228zM1508 228h197v-228h-197v228z" />
    <glyph glyph-name="perthousand" unicode="&#x2030;" horiz-adv-x="2859" 
d="M1464 1516l117 -0.00292969l-1115 -1946h-121l1011 1750c-76 -30 -147.833 -54.833 -215.5 -74.5s-168.167 -43.834 -301.5 -72.501c16.667 -31.333 25 -73.666 25 -126.999c0 -106.667 -34 -211.667 -102 -315c-87.333 -133.333 -194 -200 -320 -200
c-94.667 0 -174.167 33.333 -238.5 100s-96.5 155.334 -96.5 266.001c0 88 21.5 176.833 64.5 266.5s94.167 152.334 153.5 188.001s122.333 53.5 189 53.5c48 0 97.167 -12.167 147.5 -36.5s95.166 -60.833 134.499 -109.5c172.667 32.667 305.334 67.334 398.001 104.001
s182.667 87.667 270 153zM441 648.997c46.667 0 88.335 13.667 125.002 41c53.333 39.333 96.666 94.333 129.999 165s50 133.334 50 188.001c0 69.333 -23 127.333 -69 174s-102.333 70 -169 70c-88.667 0 -158 -42.167 -208 -126.5s-75 -171.833 -75 -262.5
c0 -74.667 21.667 -134.834 65 -180.501s93.666 -68.5 150.999 -68.5zM1465 540.997c100.667 0 185.167 -33.833 253.5 -101.5s102.5 -148.167 102.5 -241.5c0 -120.667 -40.5 -238.667 -121.5 -354s-179.833 -173 -296.5 -173c-96 0 -175.833 33.5 -239.5 100.5
s-95.5 156.833 -95.5 269.5c0 112 30.667 217 92 315c78 123.333 179.667 185 305 185zM1400 -215.003c86 0 161.667 52.332 227 156.999c52 82 78 161.667 78 239c0 68.667 -22.833 126.334 -68.5 173.001s-100.5 70 -164.5 70c-86.667 0 -156 -41.833 -208 -125.5
s-78 -169.167 -78 -256.5c0 -79.333 20.833 -142 62.5 -188s92.167 -69 151.5 -69zM2406 540.996c100.667 0 185.167 -33.833 253.5 -101.5s102.5 -148.167 102.5 -241.5c0 -120.667 -40.5 -238.667 -121.5 -354s-179.833 -173 -296.5 -173
c-96 0 -175.833 33.5 -239.5 100.5s-95.5 156.833 -95.5 269.5c0 112 30.667 217 92 315c78 123.333 179.667 185 305 185zM2341 -215.004c86 0 161.667 52.332 227 156.999c52 82 78 161.667 78 239c0 68.667 -22.833 126.334 -68.5 173.001s-100.5 70 -164.5 70
c-86.667 0 -156 -41.833 -208 -125.5s-78 -169.167 -78 -256.5c0 -79.333 20.833 -142 62.5 -188s92.167 -69 151.5 -69z" />
    <glyph glyph-name="guilsinglleft" unicode="&#x2039;" horiz-adv-x="532" 
d="M332 1075h164l-287 -539l287 -536h-164l-286 536z" />
    <glyph glyph-name="guilsinglright" unicode="&#x203a;" horiz-adv-x="532" 
d="M45 1075h164l287 -539l-287 -536h-164l287 536z" />
    <glyph glyph-name="trademark" unicode="&#x2122;" horiz-adv-x="2048" 
d="M489 701v694h-264v121h666v-121h-266v-694h-136zM982 701v815h200l206 -651l199 651h196v-815h-124v684l-210 -684h-123l-219 694v-694h-125z" />
    <glyph glyph-name="Omega" unicode="&#x2126;" horiz-adv-x="1573" 
d="M496 160c-72 44.667 -127 88 -165 130c-58 64 -102.667 139.167 -134 225.5s-47 181.833 -47 286.5c0 130.667 26.5 250.834 79.5 360.501s130 193.834 231 252.501s216.833 88 347.5 88c224 0 396 -84.667 516 -254c87.333 -124 131 -273.333 131 -448
c0 -112 -18 -211.167 -54 -297.5s-83 -160.5 -141 -222.5c-35.333 -38.667 -85 -79 -149 -121l364 6v-166h-575v177c53.333 26.667 94.666 52.667 123.999 78c48 40.667 88.667 89 122 145s58.5 115.667 75.5 179s25.5 129.333 25.5 198c0 92 -16.5 184.5 -49.5 277.5
s-83 163.833 -150 212.5s-148.167 73 -243.5 73c-127.333 0 -226 -40 -296 -120c-97.333 -112.667 -146 -259.334 -146 -440.001c0 -144.667 30.333 -268.834 91 -372.501s144.334 -179.5 251.001 -227.5v-180h-577v168z" />
    <glyph glyph-name="partialdiff" unicode="&#x2202;" horiz-adv-x="1012" 
d="M930 717c8 75.333 12.002 137.003 12.002 185.003c0 120 -31.5 213 -94.5 279s-146.833 99 -251.5 99c-70.667 0 -129.334 -13.333 -176.001 -40s-88.334 -66.334 -125.001 -119.001h-46c51.333 105.333 106.666 181.833 165.999 229.5s131 71.5 215 71.5
c60 0 118.5 -16.333 175.5 -49s103 -85.334 138 -158.001s52.5 -171.334 52.5 -296.001c0 -165.333 -27.667 -324.333 -83 -477c-31.333 -86.667 -72.166 -167.167 -122.499 -241.5s-107.5 -131.5 -171.5 -171.5s-135.667 -60 -215 -60c-104 0 -186.5 30 -247.5 90
s-91.5 141.667 -91.5 245c0 68.667 13 138.834 39 210.501s60.167 133 102.5 184s86.333 91.333 132 121s92 51.834 139 66.501s93.167 22 138.5 22c55.333 0 105 -10.333 149 -31s80.667 -46.334 110 -77.001c18 -18.667 36.333 -46.334 55 -83.001zM913.002 628.003
c-26 74 -64.8359 130.001 -116.503 168.001s-108.5 57 -170.5 57c-60 0 -119.167 -20.833 -177.5 -62.5s-108.666 -114.334 -150.999 -218.001s-63.5 -206.167 -63.5 -307.5c0 -77.333 18.333 -136.5 55 -177.5s83.334 -61.5 140.001 -61.5c82 0 165.667 43.333 251 130
c108.667 110.667 186.334 268 233.001 472z" />
    <glyph glyph-name="Delta" unicode="&#x2206;" horiz-adv-x="1259" 
d="M1229 0h-1200l628 1387zM993 82l-399 967l-440 -967h839z" />
    <glyph glyph-name="product" unicode="&#x220f;" horiz-adv-x="1685" 
d="M1240 1438h-795.002v-1449c0 -55.333 12.333 -95 37 -119s66.334 -36 125.001 -36h36v-38h-597v38h35c62.667 0 105.5 12.833 128.5 38.5s34.5 64.5 34.5 116.5v1334c0 55.333 -12.333 95 -37 119s-66.667 36 -126 36h-35v38h1594v-38h-35
c-62.667 0 -105.334 -12.833 -128.001 -38.5s-34 -64.5 -34 -116.5v-1334c0 -55.333 12.333 -95 37 -119s66.334 -36 125.001 -36h35v-38h-597v38h35c62.667 0 105.334 12.833 128.001 38.5s34 64.5 34 116.5v1449z" />
    <glyph glyph-name="summation" unicode="&#x2211;" horiz-adv-x="1460" 
d="M139 1491h1237v-164h-988l607 -775l-649 -822h1040v-161h-1264v187l620 788l-603 772v175z" />
    <glyph glyph-name="fraction" unicode="&#x2215;" horiz-adv-x="319" 
d="M538 1508h96l-853 -1508h-98z" />
    <glyph glyph-name="periodcentered" unicode="&#x2219;" horiz-adv-x="532" 
d="M179 874h196v-226h-196v226z" />
    <glyph glyph-name="radical" unicode="&#x221a;" horiz-adv-x="1131" 
d="M1053 1869h74l-312 -1947l-496 1021l-198 -91l-34 64l301 151l405 -823z" />
    <glyph glyph-name="infinity" unicode="&#x221e;" horiz-adv-x="1196" 
d="M556 812c70 88 124.667 146.002 164 174.002c53.333 38.667 109.666 58 168.999 58c70 0 135.5 -25.333 196.5 -76s91.5 -132.334 91.5 -245.001c0 -78.667 -11.333 -140.5 -34 -185.5s-58 -81.167 -106 -108.5s-97.333 -41 -148 -41c-59.333 0 -115.666 19 -168.999 57
c-39.333 28.667 -94 87 -164 175c-90.667 -114 -187 -171 -289 -171c-67.333 0 -125.166 25.5 -173.499 76.5s-72.5 114.5 -72.5 190.5c0 75.333 24.167 138.666 72.5 189.999s106.166 77 173.499 77c102 0 198.333 -57 289 -171zM625 717.002c58 -90 111 -151.667 159 -185
c30.667 -22 65 -33 103 -33c50.667 0 93.167 18.667 127.5 56s51.5 90 51.5 158c0 70.667 -17.5 124.667 -52.5 162s-78.5 56 -130.5 56c-33.333 0 -64 -9.33301 -92 -28c-38.667 -26 -94 -88 -166 -186zM487 716.002c-53.333 66.667 -95.999 109.499 -127.999 128.499
s-62.667 28.5 -92 28.5c-38.667 0 -70.834 -13.667 -96.501 -41s-38.5 -65 -38.5 -113c0 -47.333 13.333 -85.166 40 -113.499s59 -42.5 97 -42.5c67.333 0 140 51 218 153z" />
    <glyph glyph-name="integral" unicode="&#x222b;" horiz-adv-x="555" 
d="M197 895l18 580.999c5.33301 102.667 22 187.667 50 255c18 44.667 42.667 77.834 74 99.501s62.333 32.5 93 32.5c33.333 0 62.5 -11.167 87.5 -33.5s37.5 -46.833 37.5 -73.5c0 -31.333 -8.83301 -56.5 -26.5 -75.5s-39.5 -28.5 -65.5 -28.5
c-23.333 0 -48.666 12 -75.999 36c-15.333 13.333 -28.666 20 -39.999 20s-20.833 -4.83301 -28.5 -14.5s-11.5 -26.167 -11.5 -49.5c0 -27.333 3 -75.666 9 -144.999c24.667 -274 37 -495 37 -663c0 -46.667 -5.33301 -243.334 -16 -590.001
c-5.33301 -196.667 -35.333 -329.667 -90 -399c-36 -44.667 -80.667 -67 -134 -67c-34.667 0 -63 11.333 -85 34s-33 51.667 -33 87c0 30 8.5 54 25.5 72s38.5 27 64.5 27c26.667 -0 49.667 -10.667 69 -32s35.666 -32 48.999 -32c11.333 0 20.666 4.66699 27.999 14
s11 25 11 47c0 28 -3 68 -9 120c-11.333 95.333 -20 208 -26 338c-8 166 -12 312.667 -12 440z" />
    <glyph glyph-name="approxequal" unicode="&#x2248;" horiz-adv-x="1196" 
d="M87 738l0.00292969 205.002c70.667 80 163.334 120 278.001 120c40 0 82 -5.83301 126 -17.5s106.667 -34.834 188 -69.501c46 -19.333 80.5 -32 103.5 -38s46.167 -9 69.5 -9c43.333 0 88.166 13 134.499 39s87.5 58.667 123.5 98v-212
c-42.667 -40 -85.834 -69 -129.501 -87s-92.834 -27 -147.501 -27c-40 0 -78.167 4.66699 -114.5 14s-94 31.666 -173 66.999s-144.833 53 -197.5 53c-42.667 0 -82.834 -9.16699 -120.501 -27.5s-84.5 -54.5 -140.5 -108.5zM87.0029 376.002l0.00292969 205.002
c70.667 80 163.334 120 278.001 120c40 0 82 -5.83301 126 -17.5s106.667 -34.834 188 -69.501c46 -19.333 80.5 -32 103.5 -38s46.167 -9 69.5 -9c43.333 0 88.166 13 134.499 39s87.5 58.667 123.5 98v-212c-42.667 -40 -85.834 -69 -129.501 -87
s-92.834 -27 -147.501 -27c-40 0 -78.167 4.66699 -114.5 14s-94 31.666 -173 66.999s-144.833 53 -197.5 53c-42.667 0 -82.834 -9.16699 -120.501 -27.5s-84.5 -54.5 -140.5 -108.5z" />
    <glyph glyph-name="notequal" unicode="&#x2260;" horiz-adv-x="1196" 
d="M531 417l-194 -445h-136l195 445h-282v168h356l122 277h-478v168h551l196 444h134l-195 -444h282v-168h-356l-121 -277h477v-168h-551z" />
    <glyph glyph-name="lessequal" unicode="&#x2264;" horiz-adv-x="1196" 
d="M112 762v168l971 410v-180l-770 -315l770 -319v-179zM1081 106h-968v167h968v-167z" />
    <glyph glyph-name="greaterequal" unicode="&#x2265;" horiz-adv-x="1196" 
d="M1083 762l-971 -415v179l769 319l-769 315v180l971 -410v-168zM1081 106h-968v167h968v-167z" />
    <glyph glyph-name="lozenge" unicode="&#x25ca;" horiz-adv-x="1003" 
d="M543 1422l418 -713l-418 -709h-111l-391 709l391 713h111zM489 1325l-340 -616l340 -615l359 615z" />
    <glyph glyph-name="fi" unicode="&#xf001;" 
d="M624 1514v-131c-30.667 4.66699 -55 7 -73 7c-50 0 -88.667 -14 -116 -42s-41 -66.667 -41 -116v-157h221v-133h-221v-942h-145v942h-199v133h199v168c0 84 26.833 150.5 80.5 199.5s134.5 73.5 242.5 73.5c12 0 29.333 -0.666992 52 -2zM919 1502h145v-172h-145v172z
M919 1075h145v-1075h-145v1075z" />
    <glyph glyph-name="fl" unicode="&#xf002;" 
d="M622 1514v-131c-30.667 4.66699 -55 7 -73 7c-50 0 -88.667 -14 -116 -42s-41 -66.667 -41 -116v-157h221v-133h-221v-942h-145v942h-199v133h199v168c0 84 26.833 150.5 80.5 199.5s134.5 73.5 242.5 73.5c12 0 29.333 -0.666992 52 -2zM918 1516h146v-1516h-146v1516z
" />
    <glyph glyph-name="glyph1" horiz-adv-x="0" 
 />
    <glyph glyph-name="glyph2" horiz-adv-x="640" 
 />
    </font>
</defs>
</svg>
